solid concept_puck_v3_mic_capsules.stl
  facet normal -0.993712 -0.111964 0
    outer loop
      vertex -13.8 18 16.8
      vertex -13.8 18 22.8
      vertex -13.905303 18.934588 22.8
    endloop
  endfacet
  facet normal -0.993712 -0.111964 0
    outer loop
      vertex -13.8 18 16.8
      vertex -13.905303 18.934588 22.8
      vertex -13.905303 18.934588 16.8
    endloop
  endfacet
  facet normal 0 0 -1
    outer loop
      vertex -18 18 16.8
      vertex -13.905303 18.934588 16.8
      vertex -13.8 18 16.8
    endloop
  endfacet
  facet normal 0 0 1
    outer loop
      vertex -18 18 22.8
      vertex -13.8 18 22.8
      vertex -13.905303 18.934588 22.8
    endloop
  endfacet
  facet normal -0.943883 -0.330279 0
    outer loop
      vertex -13.905303 18.934588 16.8
      vertex -13.905303 18.934588 22.8
      vertex -14.215931 19.822312 22.8
    endloop
  endfacet
  facet normal -0.943883 -0.330279 0
    outer loop
      vertex -13.905303 18.934588 16.8
      vertex -14.215931 19.822312 22.8
      vertex -14.215931 19.822312 16.8
    endloop
  endfacet
  facet normal 0 0 -1
    outer loop
      vertex -18 18 16.8
      vertex -14.215931 19.822312 16.8
      vertex -13.905303 18.934588 16.8
    endloop
  endfacet
  facet normal 0 0 1
    outer loop
      vertex -18 18 22.8
      vertex -13.905303 18.934588 22.8
      vertex -14.215931 19.822312 22.8
    endloop
  endfacet
  facet normal -0.846724 -0.532032 0
    outer loop
      vertex -14.215931 19.822312 16.8
      vertex -14.215931 19.822312 22.8
      vertex -14.716308 20.618657 22.8
    endloop
  endfacet
  facet normal -0.846724 -0.532032 0
    outer loop
      vertex -14.215931 19.822312 16.8
      vertex -14.716308 20.618657 22.8
      vertex -14.716308 20.618657 16.8
    endloop
  endfacet
  facet normal 0 0 -1
    outer loop
      vertex -18 18 16.8
      vertex -14.716308 20.618657 16.8
      vertex -14.215931 19.822312 16.8
    endloop
  endfacet
  facet normal 0 0 1
    outer loop
      vertex -18 18 22.8
      vertex -14.215931 19.822312 22.8
      vertex -14.716308 20.618657 22.8
    endloop
  endfacet
  facet normal -0.707107 -0.707107 0
    outer loop
      vertex -14.716308 20.618657 16.8
      vertex -14.716308 20.618657 22.8
      vertex -15.381343 21.283692 22.8
    endloop
  endfacet
  facet normal -0.707107 -0.707107 0
    outer loop
      vertex -14.716308 20.618657 16.8
      vertex -15.381343 21.283692 22.8
      vertex -15.381343 21.283692 16.8
    endloop
  endfacet
  facet normal 0 0 -1
    outer loop
      vertex -18 18 16.8
      vertex -15.381343 21.283692 16.8
      vertex -14.716308 20.618657 16.8
    endloop
  endfacet
  facet normal 0 0 1
    outer loop
      vertex -18 18 22.8
      vertex -14.716308 20.618657 22.8
      vertex -15.381343 21.283692 22.8
    endloop
  endfacet
  facet normal -0.532032 -0.846724 0
    outer loop
      vertex -15.381343 21.283692 16.8
      vertex -15.381343 21.283692 22.8
      vertex -16.177688 21.784069 22.8
    endloop
  endfacet
  facet normal -0.532032 -0.846724 0
    outer loop
      vertex -15.381343 21.283692 16.8
      vertex -16.177688 21.784069 22.8
      vertex -16.177688 21.784069 16.8
    endloop
  endfacet
  facet normal 0 0 -1
    outer loop
      vertex -18 18 16.8
      vertex -16.177688 21.784069 16.8
      vertex -15.381343 21.283692 16.8
    endloop
  endfacet
  facet normal 0 0 1
    outer loop
      vertex -18 18 22.8
      vertex -15.381343 21.283692 22.8
      vertex -16.177688 21.784069 22.8
    endloop
  endfacet
  facet normal -0.330279 -0.943883 0
    outer loop
      vertex -16.177688 21.784069 16.8
      vertex -16.177688 21.784069 22.8
      vertex -17.065412 22.094697 22.8
    endloop
  endfacet
  facet normal -0.330279 -0.943883 0
    outer loop
      vertex -16.177688 21.784069 16.8
      vertex -17.065412 22.094697 22.8
      vertex -17.065412 22.094697 16.8
    endloop
  endfacet
  facet normal 0 0 -1
    outer loop
      vertex -18 18 16.8
      vertex -17.065412 22.094697 16.8
      vertex -16.177688 21.784069 16.8
    endloop
  endfacet
  facet normal 0 0 1
    outer loop
      vertex -18 18 22.8
      vertex -16.177688 21.784069 22.8
      vertex -17.065412 22.094697 22.8
    endloop
  endfacet
  facet normal -0.111964 -0.993712 0
    outer loop
      vertex -17.065412 22.094697 16.8
      vertex -17.065412 22.094697 22.8
      vertex -18 22.2 22.8
    endloop
  endfacet
  facet normal -0.111964 -0.993712 0
    outer loop
      vertex -17.065412 22.094697 16.8
      vertex -18 22.2 22.8
      vertex -18 22.2 16.8
    endloop
  endfacet
  facet normal 0 0 -1
    outer loop
      vertex -18 18 16.8
      vertex -18 22.2 16.8
      vertex -17.065412 22.094697 16.8
    endloop
  endfacet
  facet normal 0 0 1
    outer loop
      vertex -18 18 22.8
      vertex -17.065412 22.094697 22.8
      vertex -18 22.2 22.8
    endloop
  endfacet
  facet normal 0.111964 -0.993712 0
    outer loop
      vertex -18 22.2 16.8
      vertex -18 22.2 22.8
      vertex -18.934588 22.094697 22.8
    endloop
  endfacet
  facet normal 0.111964 -0.993712 0
    outer loop
      vertex -18 22.2 16.8
      vertex -18.934588 22.094697 22.8
      vertex -18.934588 22.094697 16.8
    endloop
  endfacet
  facet normal 0 0 -1
    outer loop
      vertex -18 18 16.8
      vertex -18.934588 22.094697 16.8
      vertex -18 22.2 16.8
    endloop
  endfacet
  facet normal 0 0 1
    outer loop
      vertex -18 18 22.8
      vertex -18 22.2 22.8
      vertex -18.934588 22.094697 22.8
    endloop
  endfacet
  facet normal 0.330279 -0.943883 0
    outer loop
      vertex -18.934588 22.094697 16.8
      vertex -18.934588 22.094697 22.8
      vertex -19.822312 21.784069 22.8
    endloop
  endfacet
  facet normal 0.330279 -0.943883 0
    outer loop
      vertex -18.934588 22.094697 16.8
      vertex -19.822312 21.784069 22.8
      vertex -19.822312 21.784069 16.8
    endloop
  endfacet
  facet normal 0 0 -1
    outer loop
      vertex -18 18 16.8
      vertex -19.822312 21.784069 16.8
      vertex -18.934588 22.094697 16.8
    endloop
  endfacet
  facet normal 0 0 1
    outer loop
      vertex -18 18 22.8
      vertex -18.934588 22.094697 22.8
      vertex -19.822312 21.784069 22.8
    endloop
  endfacet
  facet normal 0.532032 -0.846724 0
    outer loop
      vertex -19.822312 21.784069 16.8
      vertex -19.822312 21.784069 22.8
      vertex -20.618657 21.283692 22.8
    endloop
  endfacet
  facet normal 0.532032 -0.846724 0
    outer loop
      vertex -19.822312 21.784069 16.8
      vertex -20.618657 21.283692 22.8
      vertex -20.618657 21.283692 16.8
    endloop
  endfacet
  facet normal 0 0 -1
    outer loop
      vertex -18 18 16.8
      vertex -20.618657 21.283692 16.8
      vertex -19.822312 21.784069 16.8
    endloop
  endfacet
  facet normal 0 0 1
    outer loop
      vertex -18 18 22.8
      vertex -19.822312 21.784069 22.8
      vertex -20.618657 21.283692 22.8
    endloop
  endfacet
  facet normal 0.707107 -0.707107 0
    outer loop
      vertex -20.618657 21.283692 16.8
      vertex -20.618657 21.283692 22.8
      vertex -21.283692 20.618657 22.8
    endloop
  endfacet
  facet normal 0.707107 -0.707107 0
    outer loop
      vertex -20.618657 21.283692 16.8
      vertex -21.283692 20.618657 22.8
      vertex -21.283692 20.618657 16.8
    endloop
  endfacet
  facet normal 0 0 -1
    outer loop
      vertex -18 18 16.8
      vertex -21.283692 20.618657 16.8
      vertex -20.618657 21.283692 16.8
    endloop
  endfacet
  facet normal 0 0 1
    outer loop
      vertex -18 18 22.8
      vertex -20.618657 21.283692 22.8
      vertex -21.283692 20.618657 22.8
    endloop
  endfacet
  facet normal 0.846724 -0.532032 0
    outer loop
      vertex -21.283692 20.618657 16.8
      vertex -21.283692 20.618657 22.8
      vertex -21.784069 19.822312 22.8
    endloop
  endfacet
  facet normal 0.846724 -0.532032 0
    outer loop
      vertex -21.283692 20.618657 16.8
      vertex -21.784069 19.822312 22.8
      vertex -21.784069 19.822312 16.8
    endloop
  endfacet
  facet normal 0 0 -1
    outer loop
      vertex -18 18 16.8
      vertex -21.784069 19.822312 16.8
      vertex -21.283692 20.618657 16.8
    endloop
  endfacet
  facet normal 0 0 1
    outer loop
      vertex -18 18 22.8
      vertex -21.283692 20.618657 22.8
      vertex -21.784069 19.822312 22.8
    endloop
  endfacet
  facet normal 0.943883 -0.330279 0
    outer loop
      vertex -21.784069 19.822312 16.8
      vertex -21.784069 19.822312 22.8
      vertex -22.094697 18.934588 22.8
    endloop
  endfacet
  facet normal 0.943883 -0.330279 0
    outer loop
      vertex -21.784069 19.822312 16.8
      vertex -22.094697 18.934588 22.8
      vertex -22.094697 18.934588 16.8
    endloop
  endfacet
  facet normal 0 0 -1
    outer loop
      vertex -18 18 16.8
      vertex -22.094697 18.934588 16.8
      vertex -21.784069 19.822312 16.8
    endloop
  endfacet
  facet normal 0 0 1
    outer loop
      vertex -18 18 22.8
      vertex -21.784069 19.822312 22.8
      vertex -22.094697 18.934588 22.8
    endloop
  endfacet
  facet normal 0.993712 -0.111964 0
    outer loop
      vertex -22.094697 18.934588 16.8
      vertex -22.094697 18.934588 22.8
      vertex -22.2 18 22.8
    endloop
  endfacet
  facet normal 0.993712 -0.111964 0
    outer loop
      vertex -22.094697 18.934588 16.8
      vertex -22.2 18 22.8
      vertex -22.2 18 16.8
    endloop
  endfacet
  facet normal 0 0 -1
    outer loop
      vertex -18 18 16.8
      vertex -22.2 18 16.8
      vertex -22.094697 18.934588 16.8
    endloop
  endfacet
  facet normal 0 0 1
    outer loop
      vertex -18 18 22.8
      vertex -22.094697 18.934588 22.8
      vertex -22.2 18 22.8
    endloop
  endfacet
  facet normal 0.993712 0.111964 0
    outer loop
      vertex -22.2 18 16.8
      vertex -22.2 18 22.8
      vertex -22.094697 17.065412 22.8
    endloop
  endfacet
  facet normal 0.993712 0.111964 0
    outer loop
      vertex -22.2 18 16.8
      vertex -22.094697 17.065412 22.8
      vertex -22.094697 17.065412 16.8
    endloop
  endfacet
  facet normal 0 0 -1
    outer loop
      vertex -18 18 16.8
      vertex -22.094697 17.065412 16.8
      vertex -22.2 18 16.8
    endloop
  endfacet
  facet normal 0 0 1
    outer loop
      vertex -18 18 22.8
      vertex -22.2 18 22.8
      vertex -22.094697 17.065412 22.8
    endloop
  endfacet
  facet normal 0.943883 0.330279 0
    outer loop
      vertex -22.094697 17.065412 16.8
      vertex -22.094697 17.065412 22.8
      vertex -21.784069 16.177688 22.8
    endloop
  endfacet
  facet normal 0.943883 0.330279 0
    outer loop
      vertex -22.094697 17.065412 16.8
      vertex -21.784069 16.177688 22.8
      vertex -21.784069 16.177688 16.8
    endloop
  endfacet
  facet normal 0 0 -1
    outer loop
      vertex -18 18 16.8
      vertex -21.784069 16.177688 16.8
      vertex -22.094697 17.065412 16.8
    endloop
  endfacet
  facet normal 0 0 1
    outer loop
      vertex -18 18 22.8
      vertex -22.094697 17.065412 22.8
      vertex -21.784069 16.177688 22.8
    endloop
  endfacet
  facet normal 0.846724 0.532032 0
    outer loop
      vertex -21.784069 16.177688 16.8
      vertex -21.784069 16.177688 22.8
      vertex -21.283692 15.381343 22.8
    endloop
  endfacet
  facet normal 0.846724 0.532032 0
    outer loop
      vertex -21.784069 16.177688 16.8
      vertex -21.283692 15.381343 22.8
      vertex -21.283692 15.381343 16.8
    endloop
  endfacet
  facet normal 0 0 -1
    outer loop
      vertex -18 18 16.8
      vertex -21.283692 15.381343 16.8
      vertex -21.784069 16.177688 16.8
    endloop
  endfacet
  facet normal 0 0 1
    outer loop
      vertex -18 18 22.8
      vertex -21.784069 16.177688 22.8
      vertex -21.283692 15.381343 22.8
    endloop
  endfacet
  facet normal 0.707107 0.707107 0
    outer loop
      vertex -21.283692 15.381343 16.8
      vertex -21.283692 15.381343 22.8
      vertex -20.618657 14.716308 22.8
    endloop
  endfacet
  facet normal 0.707107 0.707107 0
    outer loop
      vertex -21.283692 15.381343 16.8
      vertex -20.618657 14.716308 22.8
      vertex -20.618657 14.716308 16.8
    endloop
  endfacet
  facet normal 0 0 -1
    outer loop
      vertex -18 18 16.8
      vertex -20.618657 14.716308 16.8
      vertex -21.283692 15.381343 16.8
    endloop
  endfacet
  facet normal 0 0 1
    outer loop
      vertex -18 18 22.8
      vertex -21.283692 15.381343 22.8
      vertex -20.618657 14.716308 22.8
    endloop
  endfacet
  facet normal 0.532032 0.846724 0
    outer loop
      vertex -20.618657 14.716308 16.8
      vertex -20.618657 14.716308 22.8
      vertex -19.822312 14.215931 22.8
    endloop
  endfacet
  facet normal 0.532032 0.846724 0
    outer loop
      vertex -20.618657 14.716308 16.8
      vertex -19.822312 14.215931 22.8
      vertex -19.822312 14.215931 16.8
    endloop
  endfacet
  facet normal 0 0 -1
    outer loop
      vertex -18 18 16.8
      vertex -19.822312 14.215931 16.8
      vertex -20.618657 14.716308 16.8
    endloop
  endfacet
  facet normal 0 0 1
    outer loop
      vertex -18 18 22.8
      vertex -20.618657 14.716308 22.8
      vertex -19.822312 14.215931 22.8
    endloop
  endfacet
  facet normal 0.330279 0.943883 0
    outer loop
      vertex -19.822312 14.215931 16.8
      vertex -19.822312 14.215931 22.8
      vertex -18.934588 13.905303 22.8
    endloop
  endfacet
  facet normal 0.330279 0.943883 0
    outer loop
      vertex -19.822312 14.215931 16.8
      vertex -18.934588 13.905303 22.8
      vertex -18.934588 13.905303 16.8
    endloop
  endfacet
  facet normal 0 0 -1
    outer loop
      vertex -18 18 16.8
      vertex -18.934588 13.905303 16.8
      vertex -19.822312 14.215931 16.8
    endloop
  endfacet
  facet normal 0 0 1
    outer loop
      vertex -18 18 22.8
      vertex -19.822312 14.215931 22.8
      vertex -18.934588 13.905303 22.8
    endloop
  endfacet
  facet normal 0.111964 0.993712 0
    outer loop
      vertex -18.934588 13.905303 16.8
      vertex -18.934588 13.905303 22.8
      vertex -18 13.8 22.8
    endloop
  endfacet
  facet normal 0.111964 0.993712 0
    outer loop
      vertex -18.934588 13.905303 16.8
      vertex -18 13.8 22.8
      vertex -18 13.8 16.8
    endloop
  endfacet
  facet normal 0 0 -1
    outer loop
      vertex -18 18 16.8
      vertex -18 13.8 16.8
      vertex -18.934588 13.905303 16.8
    endloop
  endfacet
  facet normal 0 0 1
    outer loop
      vertex -18 18 22.8
      vertex -18.934588 13.905303 22.8
      vertex -18 13.8 22.8
    endloop
  endfacet
  facet normal -0.111964 0.993712 0
    outer loop
      vertex -18 13.8 16.8
      vertex -18 13.8 22.8
      vertex -17.065412 13.905303 22.8
    endloop
  endfacet
  facet normal -0.111964 0.993712 0
    outer loop
      vertex -18 13.8 16.8
      vertex -17.065412 13.905303 22.8
      vertex -17.065412 13.905303 16.8
    endloop
  endfacet
  facet normal 0 0 -1
    outer loop
      vertex -18 18 16.8
      vertex -17.065412 13.905303 16.8
      vertex -18 13.8 16.8
    endloop
  endfacet
  facet normal 0 0 1
    outer loop
      vertex -18 18 22.8
      vertex -18 13.8 22.8
      vertex -17.065412 13.905303 22.8
    endloop
  endfacet
  facet normal -0.330279 0.943883 0
    outer loop
      vertex -17.065412 13.905303 16.8
      vertex -17.065412 13.905303 22.8
      vertex -16.177688 14.215931 22.8
    endloop
  endfacet
  facet normal -0.330279 0.943883 0
    outer loop
      vertex -17.065412 13.905303 16.8
      vertex -16.177688 14.215931 22.8
      vertex -16.177688 14.215931 16.8
    endloop
  endfacet
  facet normal 0 0 -1
    outer loop
      vertex -18 18 16.8
      vertex -16.177688 14.215931 16.8
      vertex -17.065412 13.905303 16.8
    endloop
  endfacet
  facet normal 0 0 1
    outer loop
      vertex -18 18 22.8
      vertex -17.065412 13.905303 22.8
      vertex -16.177688 14.215931 22.8
    endloop
  endfacet
  facet normal -0.532032 0.846724 0
    outer loop
      vertex -16.177688 14.215931 16.8
      vertex -16.177688 14.215931 22.8
      vertex -15.381343 14.716308 22.8
    endloop
  endfacet
  facet normal -0.532032 0.846724 0
    outer loop
      vertex -16.177688 14.215931 16.8
      vertex -15.381343 14.716308 22.8
      vertex -15.381343 14.716308 16.8
    endloop
  endfacet
  facet normal 0 0 -1
    outer loop
      vertex -18 18 16.8
      vertex -15.381343 14.716308 16.8
      vertex -16.177688 14.215931 16.8
    endloop
  endfacet
  facet normal 0 0 1
    outer loop
      vertex -18 18 22.8
      vertex -16.177688 14.215931 22.8
      vertex -15.381343 14.716308 22.8
    endloop
  endfacet
  facet normal -0.707107 0.707107 0
    outer loop
      vertex -15.381343 14.716308 16.8
      vertex -15.381343 14.716308 22.8
      vertex -14.716308 15.381343 22.8
    endloop
  endfacet
  facet normal -0.707107 0.707107 0
    outer loop
      vertex -15.381343 14.716308 16.8
      vertex -14.716308 15.381343 22.8
      vertex -14.716308 15.381343 16.8
    endloop
  endfacet
  facet normal 0 0 -1
    outer loop
      vertex -18 18 16.8
      vertex -14.716308 15.381343 16.8
      vertex -15.381343 14.716308 16.8
    endloop
  endfacet
  facet normal 0 0 1
    outer loop
      vertex -18 18 22.8
      vertex -15.381343 14.716308 22.8
      vertex -14.716308 15.381343 22.8
    endloop
  endfacet
  facet normal -0.846724 0.532032 0
    outer loop
      vertex -14.716308 15.381343 16.8
      vertex -14.716308 15.381343 22.8
      vertex -14.215931 16.177688 22.8
    endloop
  endfacet
  facet normal -0.846724 0.532032 0
    outer loop
      vertex -14.716308 15.381343 16.8
      vertex -14.215931 16.177688 22.8
      vertex -14.215931 16.177688 16.8
    endloop
  endfacet
  facet normal 0 0 -1
    outer loop
      vertex -18 18 16.8
      vertex -14.215931 16.177688 16.8
      vertex -14.716308 15.381343 16.8
    endloop
  endfacet
  facet normal 0 0 1
    outer loop
      vertex -18 18 22.8
      vertex -14.716308 15.381343 22.8
      vertex -14.215931 16.177688 22.8
    endloop
  endfacet
  facet normal -0.943883 0.330279 0
    outer loop
      vertex -14.215931 16.177688 16.8
      vertex -14.215931 16.177688 22.8
      vertex -13.905303 17.065412 22.8
    endloop
  endfacet
  facet normal -0.943883 0.330279 0
    outer loop
      vertex -14.215931 16.177688 16.8
      vertex -13.905303 17.065412 22.8
      vertex -13.905303 17.065412 16.8
    endloop
  endfacet
  facet normal 0 0 -1
    outer loop
      vertex -18 18 16.8
      vertex -13.905303 17.065412 16.8
      vertex -14.215931 16.177688 16.8
    endloop
  endfacet
  facet normal 0 0 1
    outer loop
      vertex -18 18 22.8
      vertex -14.215931 16.177688 22.8
      vertex -13.905303 17.065412 22.8
    endloop
  endfacet
  facet normal -0.993712 0.111964 0
    outer loop
      vertex -13.905303 17.065412 16.8
      vertex -13.905303 17.065412 22.8
      vertex -13.8 18 22.8
    endloop
  endfacet
  facet normal -0.993712 0.111964 0
    outer loop
      vertex -13.905303 17.065412 16.8
      vertex -13.8 18 22.8
      vertex -13.8 18 16.8
    endloop
  endfacet
  facet normal 0 0 -1
    outer loop
      vertex -18 18 16.8
      vertex -13.8 18 16.8
      vertex -13.905303 17.065412 16.8
    endloop
  endfacet
  facet normal 0 0 1
    outer loop
      vertex -18 18 22.8
      vertex -13.905303 17.065412 22.8
      vertex -13.8 18 22.8
    endloop
  endfacet
  facet normal -0.993712 -0.111964 0
    outer loop
      vertex 22.2 18 16.8
      vertex 22.2 18 22.8
      vertex 22.094697 18.934588 22.8
    endloop
  endfacet
  facet normal -0.993712 -0.111964 0
    outer loop
      vertex 22.2 18 16.8
      vertex 22.094697 18.934588 22.8
      vertex 22.094697 18.934588 16.8
    endloop
  endfacet
  facet normal 0 0 -1
    outer loop
      vertex 18 18 16.8
      vertex 22.094697 18.934588 16.8
      vertex 22.2 18 16.8
    endloop
  endfacet
  facet normal 0 0 1
    outer loop
      vertex 18 18 22.8
      vertex 22.2 18 22.8
      vertex 22.094697 18.934588 22.8
    endloop
  endfacet
  facet normal -0.943883 -0.330279 0
    outer loop
      vertex 22.094697 18.934588 16.8
      vertex 22.094697 18.934588 22.8
      vertex 21.784069 19.822312 22.8
    endloop
  endfacet
  facet normal -0.943883 -0.330279 0
    outer loop
      vertex 22.094697 18.934588 16.8
      vertex 21.784069 19.822312 22.8
      vertex 21.784069 19.822312 16.8
    endloop
  endfacet
  facet normal 0 0 -1
    outer loop
      vertex 18 18 16.8
      vertex 21.784069 19.822312 16.8
      vertex 22.094697 18.934588 16.8
    endloop
  endfacet
  facet normal 0 0 1
    outer loop
      vertex 18 18 22.8
      vertex 22.094697 18.934588 22.8
      vertex 21.784069 19.822312 22.8
    endloop
  endfacet
  facet normal -0.846724 -0.532032 0
    outer loop
      vertex 21.784069 19.822312 16.8
      vertex 21.784069 19.822312 22.8
      vertex 21.283692 20.618657 22.8
    endloop
  endfacet
  facet normal -0.846724 -0.532032 0
    outer loop
      vertex 21.784069 19.822312 16.8
      vertex 21.283692 20.618657 22.8
      vertex 21.283692 20.618657 16.8
    endloop
  endfacet
  facet normal 0 0 -1
    outer loop
      vertex 18 18 16.8
      vertex 21.283692 20.618657 16.8
      vertex 21.784069 19.822312 16.8
    endloop
  endfacet
  facet normal 0 0 1
    outer loop
      vertex 18 18 22.8
      vertex 21.784069 19.822312 22.8
      vertex 21.283692 20.618657 22.8
    endloop
  endfacet
  facet normal -0.707107 -0.707107 0
    outer loop
      vertex 21.283692 20.618657 16.8
      vertex 21.283692 20.618657 22.8
      vertex 20.618657 21.283692 22.8
    endloop
  endfacet
  facet normal -0.707107 -0.707107 0
    outer loop
      vertex 21.283692 20.618657 16.8
      vertex 20.618657 21.283692 22.8
      vertex 20.618657 21.283692 16.8
    endloop
  endfacet
  facet normal 0 0 -1
    outer loop
      vertex 18 18 16.8
      vertex 20.618657 21.283692 16.8
      vertex 21.283692 20.618657 16.8
    endloop
  endfacet
  facet normal 0 0 1
    outer loop
      vertex 18 18 22.8
      vertex 21.283692 20.618657 22.8
      vertex 20.618657 21.283692 22.8
    endloop
  endfacet
  facet normal -0.532032 -0.846724 0
    outer loop
      vertex 20.618657 21.283692 16.8
      vertex 20.618657 21.283692 22.8
      vertex 19.822312 21.784069 22.8
    endloop
  endfacet
  facet normal -0.532032 -0.846724 0
    outer loop
      vertex 20.618657 21.283692 16.8
      vertex 19.822312 21.784069 22.8
      vertex 19.822312 21.784069 16.8
    endloop
  endfacet
  facet normal 0 0 -1
    outer loop
      vertex 18 18 16.8
      vertex 19.822312 21.784069 16.8
      vertex 20.618657 21.283692 16.8
    endloop
  endfacet
  facet normal 0 0 1
    outer loop
      vertex 18 18 22.8
      vertex 20.618657 21.283692 22.8
      vertex 19.822312 21.784069 22.8
    endloop
  endfacet
  facet normal -0.330279 -0.943883 0
    outer loop
      vertex 19.822312 21.784069 16.8
      vertex 19.822312 21.784069 22.8
      vertex 18.934588 22.094697 22.8
    endloop
  endfacet
  facet normal -0.330279 -0.943883 0
    outer loop
      vertex 19.822312 21.784069 16.8
      vertex 18.934588 22.094697 22.8
      vertex 18.934588 22.094697 16.8
    endloop
  endfacet
  facet normal 0 0 -1
    outer loop
      vertex 18 18 16.8
      vertex 18.934588 22.094697 16.8
      vertex 19.822312 21.784069 16.8
    endloop
  endfacet
  facet normal 0 0 1
    outer loop
      vertex 18 18 22.8
      vertex 19.822312 21.784069 22.8
      vertex 18.934588 22.094697 22.8
    endloop
  endfacet
  facet normal -0.111964 -0.993712 0
    outer loop
      vertex 18.934588 22.094697 16.8
      vertex 18.934588 22.094697 22.8
      vertex 18 22.2 22.8
    endloop
  endfacet
  facet normal -0.111964 -0.993712 0
    outer loop
      vertex 18.934588 22.094697 16.8
      vertex 18 22.2 22.8
      vertex 18 22.2 16.8
    endloop
  endfacet
  facet normal 0 0 -1
    outer loop
      vertex 18 18 16.8
      vertex 18 22.2 16.8
      vertex 18.934588 22.094697 16.8
    endloop
  endfacet
  facet normal 0 0 1
    outer loop
      vertex 18 18 22.8
      vertex 18.934588 22.094697 22.8
      vertex 18 22.2 22.8
    endloop
  endfacet
  facet normal 0.111964 -0.993712 0
    outer loop
      vertex 18 22.2 16.8
      vertex 18 22.2 22.8
      vertex 17.065412 22.094697 22.8
    endloop
  endfacet
  facet normal 0.111964 -0.993712 0
    outer loop
      vertex 18 22.2 16.8
      vertex 17.065412 22.094697 22.8
      vertex 17.065412 22.094697 16.8
    endloop
  endfacet
  facet normal 0 0 -1
    outer loop
      vertex 18 18 16.8
      vertex 17.065412 22.094697 16.8
      vertex 18 22.2 16.8
    endloop
  endfacet
  facet normal 0 0 1
    outer loop
      vertex 18 18 22.8
      vertex 18 22.2 22.8
      vertex 17.065412 22.094697 22.8
    endloop
  endfacet
  facet normal 0.330279 -0.943883 0
    outer loop
      vertex 17.065412 22.094697 16.8
      vertex 17.065412 22.094697 22.8
      vertex 16.177688 21.784069 22.8
    endloop
  endfacet
  facet normal 0.330279 -0.943883 0
    outer loop
      vertex 17.065412 22.094697 16.8
      vertex 16.177688 21.784069 22.8
      vertex 16.177688 21.784069 16.8
    endloop
  endfacet
  facet normal 0 0 -1
    outer loop
      vertex 18 18 16.8
      vertex 16.177688 21.784069 16.8
      vertex 17.065412 22.094697 16.8
    endloop
  endfacet
  facet normal 0 0 1
    outer loop
      vertex 18 18 22.8
      vertex 17.065412 22.094697 22.8
      vertex 16.177688 21.784069 22.8
    endloop
  endfacet
  facet normal 0.532032 -0.846724 0
    outer loop
      vertex 16.177688 21.784069 16.8
      vertex 16.177688 21.784069 22.8
      vertex 15.381343 21.283692 22.8
    endloop
  endfacet
  facet normal 0.532032 -0.846724 0
    outer loop
      vertex 16.177688 21.784069 16.8
      vertex 15.381343 21.283692 22.8
      vertex 15.381343 21.283692 16.8
    endloop
  endfacet
  facet normal 0 0 -1
    outer loop
      vertex 18 18 16.8
      vertex 15.381343 21.283692 16.8
      vertex 16.177688 21.784069 16.8
    endloop
  endfacet
  facet normal 0 0 1
    outer loop
      vertex 18 18 22.8
      vertex 16.177688 21.784069 22.8
      vertex 15.381343 21.283692 22.8
    endloop
  endfacet
  facet normal 0.707107 -0.707107 0
    outer loop
      vertex 15.381343 21.283692 16.8
      vertex 15.381343 21.283692 22.8
      vertex 14.716308 20.618657 22.8
    endloop
  endfacet
  facet normal 0.707107 -0.707107 0
    outer loop
      vertex 15.381343 21.283692 16.8
      vertex 14.716308 20.618657 22.8
      vertex 14.716308 20.618657 16.8
    endloop
  endfacet
  facet normal 0 0 -1
    outer loop
      vertex 18 18 16.8
      vertex 14.716308 20.618657 16.8
      vertex 15.381343 21.283692 16.8
    endloop
  endfacet
  facet normal 0 0 1
    outer loop
      vertex 18 18 22.8
      vertex 15.381343 21.283692 22.8
      vertex 14.716308 20.618657 22.8
    endloop
  endfacet
  facet normal 0.846724 -0.532032 0
    outer loop
      vertex 14.716308 20.618657 16.8
      vertex 14.716308 20.618657 22.8
      vertex 14.215931 19.822312 22.8
    endloop
  endfacet
  facet normal 0.846724 -0.532032 0
    outer loop
      vertex 14.716308 20.618657 16.8
      vertex 14.215931 19.822312 22.8
      vertex 14.215931 19.822312 16.8
    endloop
  endfacet
  facet normal 0 0 -1
    outer loop
      vertex 18 18 16.8
      vertex 14.215931 19.822312 16.8
      vertex 14.716308 20.618657 16.8
    endloop
  endfacet
  facet normal 0 0 1
    outer loop
      vertex 18 18 22.8
      vertex 14.716308 20.618657 22.8
      vertex 14.215931 19.822312 22.8
    endloop
  endfacet
  facet normal 0.943883 -0.330279 0
    outer loop
      vertex 14.215931 19.822312 16.8
      vertex 14.215931 19.822312 22.8
      vertex 13.905303 18.934588 22.8
    endloop
  endfacet
  facet normal 0.943883 -0.330279 0
    outer loop
      vertex 14.215931 19.822312 16.8
      vertex 13.905303 18.934588 22.8
      vertex 13.905303 18.934588 16.8
    endloop
  endfacet
  facet normal 0 0 -1
    outer loop
      vertex 18 18 16.8
      vertex 13.905303 18.934588 16.8
      vertex 14.215931 19.822312 16.8
    endloop
  endfacet
  facet normal 0 0 1
    outer loop
      vertex 18 18 22.8
      vertex 14.215931 19.822312 22.8
      vertex 13.905303 18.934588 22.8
    endloop
  endfacet
  facet normal 0.993712 -0.111964 0
    outer loop
      vertex 13.905303 18.934588 16.8
      vertex 13.905303 18.934588 22.8
      vertex 13.8 18 22.8
    endloop
  endfacet
  facet normal 0.993712 -0.111964 0
    outer loop
      vertex 13.905303 18.934588 16.8
      vertex 13.8 18 22.8
      vertex 13.8 18 16.8
    endloop
  endfacet
  facet normal 0 0 -1
    outer loop
      vertex 18 18 16.8
      vertex 13.8 18 16.8
      vertex 13.905303 18.934588 16.8
    endloop
  endfacet
  facet normal 0 0 1
    outer loop
      vertex 18 18 22.8
      vertex 13.905303 18.934588 22.8
      vertex 13.8 18 22.8
    endloop
  endfacet
  facet normal 0.993712 0.111964 0
    outer loop
      vertex 13.8 18 16.8
      vertex 13.8 18 22.8
      vertex 13.905303 17.065412 22.8
    endloop
  endfacet
  facet normal 0.993712 0.111964 0
    outer loop
      vertex 13.8 18 16.8
      vertex 13.905303 17.065412 22.8
      vertex 13.905303 17.065412 16.8
    endloop
  endfacet
  facet normal 0 0 -1
    outer loop
      vertex 18 18 16.8
      vertex 13.905303 17.065412 16.8
      vertex 13.8 18 16.8
    endloop
  endfacet
  facet normal 0 0 1
    outer loop
      vertex 18 18 22.8
      vertex 13.8 18 22.8
      vertex 13.905303 17.065412 22.8
    endloop
  endfacet
  facet normal 0.943883 0.330279 0
    outer loop
      vertex 13.905303 17.065412 16.8
      vertex 13.905303 17.065412 22.8
      vertex 14.215931 16.177688 22.8
    endloop
  endfacet
  facet normal 0.943883 0.330279 0
    outer loop
      vertex 13.905303 17.065412 16.8
      vertex 14.215931 16.177688 22.8
      vertex 14.215931 16.177688 16.8
    endloop
  endfacet
  facet normal 0 0 -1
    outer loop
      vertex 18 18 16.8
      vertex 14.215931 16.177688 16.8
      vertex 13.905303 17.065412 16.8
    endloop
  endfacet
  facet normal 0 0 1
    outer loop
      vertex 18 18 22.8
      vertex 13.905303 17.065412 22.8
      vertex 14.215931 16.177688 22.8
    endloop
  endfacet
  facet normal 0.846724 0.532032 0
    outer loop
      vertex 14.215931 16.177688 16.8
      vertex 14.215931 16.177688 22.8
      vertex 14.716308 15.381343 22.8
    endloop
  endfacet
  facet normal 0.846724 0.532032 0
    outer loop
      vertex 14.215931 16.177688 16.8
      vertex 14.716308 15.381343 22.8
      vertex 14.716308 15.381343 16.8
    endloop
  endfacet
  facet normal 0 0 -1
    outer loop
      vertex 18 18 16.8
      vertex 14.716308 15.381343 16.8
      vertex 14.215931 16.177688 16.8
    endloop
  endfacet
  facet normal 0 0 1
    outer loop
      vertex 18 18 22.8
      vertex 14.215931 16.177688 22.8
      vertex 14.716308 15.381343 22.8
    endloop
  endfacet
  facet normal 0.707107 0.707107 0
    outer loop
      vertex 14.716308 15.381343 16.8
      vertex 14.716308 15.381343 22.8
      vertex 15.381343 14.716308 22.8
    endloop
  endfacet
  facet normal 0.707107 0.707107 0
    outer loop
      vertex 14.716308 15.381343 16.8
      vertex 15.381343 14.716308 22.8
      vertex 15.381343 14.716308 16.8
    endloop
  endfacet
  facet normal 0 0 -1
    outer loop
      vertex 18 18 16.8
      vertex 15.381343 14.716308 16.8
      vertex 14.716308 15.381343 16.8
    endloop
  endfacet
  facet normal 0 0 1
    outer loop
      vertex 18 18 22.8
      vertex 14.716308 15.381343 22.8
      vertex 15.381343 14.716308 22.8
    endloop
  endfacet
  facet normal 0.532032 0.846724 0
    outer loop
      vertex 15.381343 14.716308 16.8
      vertex 15.381343 14.716308 22.8
      vertex 16.177688 14.215931 22.8
    endloop
  endfacet
  facet normal 0.532032 0.846724 0
    outer loop
      vertex 15.381343 14.716308 16.8
      vertex 16.177688 14.215931 22.8
      vertex 16.177688 14.215931 16.8
    endloop
  endfacet
  facet normal 0 0 -1
    outer loop
      vertex 18 18 16.8
      vertex 16.177688 14.215931 16.8
      vertex 15.381343 14.716308 16.8
    endloop
  endfacet
  facet normal 0 0 1
    outer loop
      vertex 18 18 22.8
      vertex 15.381343 14.716308 22.8
      vertex 16.177688 14.215931 22.8
    endloop
  endfacet
  facet normal 0.330279 0.943883 0
    outer loop
      vertex 16.177688 14.215931 16.8
      vertex 16.177688 14.215931 22.8
      vertex 17.065412 13.905303 22.8
    endloop
  endfacet
  facet normal 0.330279 0.943883 0
    outer loop
      vertex 16.177688 14.215931 16.8
      vertex 17.065412 13.905303 22.8
      vertex 17.065412 13.905303 16.8
    endloop
  endfacet
  facet normal 0 0 -1
    outer loop
      vertex 18 18 16.8
      vertex 17.065412 13.905303 16.8
      vertex 16.177688 14.215931 16.8
    endloop
  endfacet
  facet normal 0 0 1
    outer loop
      vertex 18 18 22.8
      vertex 16.177688 14.215931 22.8
      vertex 17.065412 13.905303 22.8
    endloop
  endfacet
  facet normal 0.111964 0.993712 0
    outer loop
      vertex 17.065412 13.905303 16.8
      vertex 17.065412 13.905303 22.8
      vertex 18 13.8 22.8
    endloop
  endfacet
  facet normal 0.111964 0.993712 0
    outer loop
      vertex 17.065412 13.905303 16.8
      vertex 18 13.8 22.8
      vertex 18 13.8 16.8
    endloop
  endfacet
  facet normal 0 0 -1
    outer loop
      vertex 18 18 16.8
      vertex 18 13.8 16.8
      vertex 17.065412 13.905303 16.8
    endloop
  endfacet
  facet normal 0 0 1
    outer loop
      vertex 18 18 22.8
      vertex 17.065412 13.905303 22.8
      vertex 18 13.8 22.8
    endloop
  endfacet
  facet normal -0.111964 0.993712 0
    outer loop
      vertex 18 13.8 16.8
      vertex 18 13.8 22.8
      vertex 18.934588 13.905303 22.8
    endloop
  endfacet
  facet normal -0.111964 0.993712 0
    outer loop
      vertex 18 13.8 16.8
      vertex 18.934588 13.905303 22.8
      vertex 18.934588 13.905303 16.8
    endloop
  endfacet
  facet normal 0 0 -1
    outer loop
      vertex 18 18 16.8
      vertex 18.934588 13.905303 16.8
      vertex 18 13.8 16.8
    endloop
  endfacet
  facet normal 0 0 1
    outer loop
      vertex 18 18 22.8
      vertex 18 13.8 22.8
      vertex 18.934588 13.905303 22.8
    endloop
  endfacet
  facet normal -0.330279 0.943883 0
    outer loop
      vertex 18.934588 13.905303 16.8
      vertex 18.934588 13.905303 22.8
      vertex 19.822312 14.215931 22.8
    endloop
  endfacet
  facet normal -0.330279 0.943883 0
    outer loop
      vertex 18.934588 13.905303 16.8
      vertex 19.822312 14.215931 22.8
      vertex 19.822312 14.215931 16.8
    endloop
  endfacet
  facet normal 0 0 -1
    outer loop
      vertex 18 18 16.8
      vertex 19.822312 14.215931 16.8
      vertex 18.934588 13.905303 16.8
    endloop
  endfacet
  facet normal 0 0 1
    outer loop
      vertex 18 18 22.8
      vertex 18.934588 13.905303 22.8
      vertex 19.822312 14.215931 22.8
    endloop
  endfacet
  facet normal -0.532032 0.846724 0
    outer loop
      vertex 19.822312 14.215931 16.8
      vertex 19.822312 14.215931 22.8
      vertex 20.618657 14.716308 22.8
    endloop
  endfacet
  facet normal -0.532032 0.846724 0
    outer loop
      vertex 19.822312 14.215931 16.8
      vertex 20.618657 14.716308 22.8
      vertex 20.618657 14.716308 16.8
    endloop
  endfacet
  facet normal 0 0 -1
    outer loop
      vertex 18 18 16.8
      vertex 20.618657 14.716308 16.8
      vertex 19.822312 14.215931 16.8
    endloop
  endfacet
  facet normal 0 0 1
    outer loop
      vertex 18 18 22.8
      vertex 19.822312 14.215931 22.8
      vertex 20.618657 14.716308 22.8
    endloop
  endfacet
  facet normal -0.707107 0.707107 0
    outer loop
      vertex 20.618657 14.716308 16.8
      vertex 20.618657 14.716308 22.8
      vertex 21.283692 15.381343 22.8
    endloop
  endfacet
  facet normal -0.707107 0.707107 0
    outer loop
      vertex 20.618657 14.716308 16.8
      vertex 21.283692 15.381343 22.8
      vertex 21.283692 15.381343 16.8
    endloop
  endfacet
  facet normal 0 0 -1
    outer loop
      vertex 18 18 16.8
      vertex 21.283692 15.381343 16.8
      vertex 20.618657 14.716308 16.8
    endloop
  endfacet
  facet normal 0 0 1
    outer loop
      vertex 18 18 22.8
      vertex 20.618657 14.716308 22.8
      vertex 21.283692 15.381343 22.8
    endloop
  endfacet
  facet normal -0.846724 0.532032 0
    outer loop
      vertex 21.283692 15.381343 16.8
      vertex 21.283692 15.381343 22.8
      vertex 21.784069 16.177688 22.8
    endloop
  endfacet
  facet normal -0.846724 0.532032 0
    outer loop
      vertex 21.283692 15.381343 16.8
      vertex 21.784069 16.177688 22.8
      vertex 21.784069 16.177688 16.8
    endloop
  endfacet
  facet normal 0 0 -1
    outer loop
      vertex 18 18 16.8
      vertex 21.784069 16.177688 16.8
      vertex 21.283692 15.381343 16.8
    endloop
  endfacet
  facet normal 0 0 1
    outer loop
      vertex 18 18 22.8
      vertex 21.283692 15.381343 22.8
      vertex 21.784069 16.177688 22.8
    endloop
  endfacet
  facet normal -0.943883 0.330279 0
    outer loop
      vertex 21.784069 16.177688 16.8
      vertex 21.784069 16.177688 22.8
      vertex 22.094697 17.065412 22.8
    endloop
  endfacet
  facet normal -0.943883 0.330279 0
    outer loop
      vertex 21.784069 16.177688 16.8
      vertex 22.094697 17.065412 22.8
      vertex 22.094697 17.065412 16.8
    endloop
  endfacet
  facet normal 0 0 -1
    outer loop
      vertex 18 18 16.8
      vertex 22.094697 17.065412 16.8
      vertex 21.784069 16.177688 16.8
    endloop
  endfacet
  facet normal 0 0 1
    outer loop
      vertex 18 18 22.8
      vertex 21.784069 16.177688 22.8
      vertex 22.094697 17.065412 22.8
    endloop
  endfacet
  facet normal -0.993712 0.111964 0
    outer loop
      vertex 22.094697 17.065412 16.8
      vertex 22.094697 17.065412 22.8
      vertex 22.2 18 22.8
    endloop
  endfacet
  facet normal -0.993712 0.111964 0
    outer loop
      vertex 22.094697 17.065412 16.8
      vertex 22.2 18 22.8
      vertex 22.2 18 16.8
    endloop
  endfacet
  facet normal 0 0 -1
    outer loop
      vertex 18 18 16.8
      vertex 22.2 18 16.8
      vertex 22.094697 17.065412 16.8
    endloop
  endfacet
  facet normal 0 0 1
    outer loop
      vertex 18 18 22.8
      vertex 22.094697 17.065412 22.8
      vertex 22.2 18 22.8
    endloop
  endfacet
  facet normal -0.993712 -0.111964 0
    outer loop
      vertex -13.8 -18 16.8
      vertex -13.8 -18 22.8
      vertex -13.905303 -17.065412 22.8
    endloop
  endfacet
  facet normal -0.993712 -0.111964 0
    outer loop
      vertex -13.8 -18 16.8
      vertex -13.905303 -17.065412 22.8
      vertex -13.905303 -17.065412 16.8
    endloop
  endfacet
  facet normal 0 0 -1
    outer loop
      vertex -18 -18 16.8
      vertex -13.905303 -17.065412 16.8
      vertex -13.8 -18 16.8
    endloop
  endfacet
  facet normal 0 0 1
    outer loop
      vertex -18 -18 22.8
      vertex -13.8 -18 22.8
      vertex -13.905303 -17.065412 22.8
    endloop
  endfacet
  facet normal -0.943883 -0.330279 0
    outer loop
      vertex -13.905303 -17.065412 16.8
      vertex -13.905303 -17.065412 22.8
      vertex -14.215931 -16.177688 22.8
    endloop
  endfacet
  facet normal -0.943883 -0.330279 0
    outer loop
      vertex -13.905303 -17.065412 16.8
      vertex -14.215931 -16.177688 22.8
      vertex -14.215931 -16.177688 16.8
    endloop
  endfacet
  facet normal 0 0 -1
    outer loop
      vertex -18 -18 16.8
      vertex -14.215931 -16.177688 16.8
      vertex -13.905303 -17.065412 16.8
    endloop
  endfacet
  facet normal 0 0 1
    outer loop
      vertex -18 -18 22.8
      vertex -13.905303 -17.065412 22.8
      vertex -14.215931 -16.177688 22.8
    endloop
  endfacet
  facet normal -0.846724 -0.532032 0
    outer loop
      vertex -14.215931 -16.177688 16.8
      vertex -14.215931 -16.177688 22.8
      vertex -14.716308 -15.381343 22.8
    endloop
  endfacet
  facet normal -0.846724 -0.532032 0
    outer loop
      vertex -14.215931 -16.177688 16.8
      vertex -14.716308 -15.381343 22.8
      vertex -14.716308 -15.381343 16.8
    endloop
  endfacet
  facet normal 0 0 -1
    outer loop
      vertex -18 -18 16.8
      vertex -14.716308 -15.381343 16.8
      vertex -14.215931 -16.177688 16.8
    endloop
  endfacet
  facet normal 0 0 1
    outer loop
      vertex -18 -18 22.8
      vertex -14.215931 -16.177688 22.8
      vertex -14.716308 -15.381343 22.8
    endloop
  endfacet
  facet normal -0.707107 -0.707107 0
    outer loop
      vertex -14.716308 -15.381343 16.8
      vertex -14.716308 -15.381343 22.8
      vertex -15.381343 -14.716308 22.8
    endloop
  endfacet
  facet normal -0.707107 -0.707107 0
    outer loop
      vertex -14.716308 -15.381343 16.8
      vertex -15.381343 -14.716308 22.8
      vertex -15.381343 -14.716308 16.8
    endloop
  endfacet
  facet normal 0 0 -1
    outer loop
      vertex -18 -18 16.8
      vertex -15.381343 -14.716308 16.8
      vertex -14.716308 -15.381343 16.8
    endloop
  endfacet
  facet normal 0 0 1
    outer loop
      vertex -18 -18 22.8
      vertex -14.716308 -15.381343 22.8
      vertex -15.381343 -14.716308 22.8
    endloop
  endfacet
  facet normal -0.532032 -0.846724 0
    outer loop
      vertex -15.381343 -14.716308 16.8
      vertex -15.381343 -14.716308 22.8
      vertex -16.177688 -14.215931 22.8
    endloop
  endfacet
  facet normal -0.532032 -0.846724 0
    outer loop
      vertex -15.381343 -14.716308 16.8
      vertex -16.177688 -14.215931 22.8
      vertex -16.177688 -14.215931 16.8
    endloop
  endfacet
  facet normal 0 0 -1
    outer loop
      vertex -18 -18 16.8
      vertex -16.177688 -14.215931 16.8
      vertex -15.381343 -14.716308 16.8
    endloop
  endfacet
  facet normal 0 0 1
    outer loop
      vertex -18 -18 22.8
      vertex -15.381343 -14.716308 22.8
      vertex -16.177688 -14.215931 22.8
    endloop
  endfacet
  facet normal -0.330279 -0.943883 0
    outer loop
      vertex -16.177688 -14.215931 16.8
      vertex -16.177688 -14.215931 22.8
      vertex -17.065412 -13.905303 22.8
    endloop
  endfacet
  facet normal -0.330279 -0.943883 0
    outer loop
      vertex -16.177688 -14.215931 16.8
      vertex -17.065412 -13.905303 22.8
      vertex -17.065412 -13.905303 16.8
    endloop
  endfacet
  facet normal 0 0 -1
    outer loop
      vertex -18 -18 16.8
      vertex -17.065412 -13.905303 16.8
      vertex -16.177688 -14.215931 16.8
    endloop
  endfacet
  facet normal 0 0 1
    outer loop
      vertex -18 -18 22.8
      vertex -16.177688 -14.215931 22.8
      vertex -17.065412 -13.905303 22.8
    endloop
  endfacet
  facet normal -0.111964 -0.993712 0
    outer loop
      vertex -17.065412 -13.905303 16.8
      vertex -17.065412 -13.905303 22.8
      vertex -18 -13.8 22.8
    endloop
  endfacet
  facet normal -0.111964 -0.993712 0
    outer loop
      vertex -17.065412 -13.905303 16.8
      vertex -18 -13.8 22.8
      vertex -18 -13.8 16.8
    endloop
  endfacet
  facet normal 0 0 -1
    outer loop
      vertex -18 -18 16.8
      vertex -18 -13.8 16.8
      vertex -17.065412 -13.905303 16.8
    endloop
  endfacet
  facet normal 0 0 1
    outer loop
      vertex -18 -18 22.8
      vertex -17.065412 -13.905303 22.8
      vertex -18 -13.8 22.8
    endloop
  endfacet
  facet normal 0.111964 -0.993712 0
    outer loop
      vertex -18 -13.8 16.8
      vertex -18 -13.8 22.8
      vertex -18.934588 -13.905303 22.8
    endloop
  endfacet
  facet normal 0.111964 -0.993712 0
    outer loop
      vertex -18 -13.8 16.8
      vertex -18.934588 -13.905303 22.8
      vertex -18.934588 -13.905303 16.8
    endloop
  endfacet
  facet normal 0 0 -1
    outer loop
      vertex -18 -18 16.8
      vertex -18.934588 -13.905303 16.8
      vertex -18 -13.8 16.8
    endloop
  endfacet
  facet normal 0 0 1
    outer loop
      vertex -18 -18 22.8
      vertex -18 -13.8 22.8
      vertex -18.934588 -13.905303 22.8
    endloop
  endfacet
  facet normal 0.330279 -0.943883 0
    outer loop
      vertex -18.934588 -13.905303 16.8
      vertex -18.934588 -13.905303 22.8
      vertex -19.822312 -14.215931 22.8
    endloop
  endfacet
  facet normal 0.330279 -0.943883 0
    outer loop
      vertex -18.934588 -13.905303 16.8
      vertex -19.822312 -14.215931 22.8
      vertex -19.822312 -14.215931 16.8
    endloop
  endfacet
  facet normal 0 0 -1
    outer loop
      vertex -18 -18 16.8
      vertex -19.822312 -14.215931 16.8
      vertex -18.934588 -13.905303 16.8
    endloop
  endfacet
  facet normal 0 0 1
    outer loop
      vertex -18 -18 22.8
      vertex -18.934588 -13.905303 22.8
      vertex -19.822312 -14.215931 22.8
    endloop
  endfacet
  facet normal 0.532032 -0.846724 0
    outer loop
      vertex -19.822312 -14.215931 16.8
      vertex -19.822312 -14.215931 22.8
      vertex -20.618657 -14.716308 22.8
    endloop
  endfacet
  facet normal 0.532032 -0.846724 0
    outer loop
      vertex -19.822312 -14.215931 16.8
      vertex -20.618657 -14.716308 22.8
      vertex -20.618657 -14.716308 16.8
    endloop
  endfacet
  facet normal 0 0 -1
    outer loop
      vertex -18 -18 16.8
      vertex -20.618657 -14.716308 16.8
      vertex -19.822312 -14.215931 16.8
    endloop
  endfacet
  facet normal 0 0 1
    outer loop
      vertex -18 -18 22.8
      vertex -19.822312 -14.215931 22.8
      vertex -20.618657 -14.716308 22.8
    endloop
  endfacet
  facet normal 0.707107 -0.707107 0
    outer loop
      vertex -20.618657 -14.716308 16.8
      vertex -20.618657 -14.716308 22.8
      vertex -21.283692 -15.381343 22.8
    endloop
  endfacet
  facet normal 0.707107 -0.707107 0
    outer loop
      vertex -20.618657 -14.716308 16.8
      vertex -21.283692 -15.381343 22.8
      vertex -21.283692 -15.381343 16.8
    endloop
  endfacet
  facet normal 0 0 -1
    outer loop
      vertex -18 -18 16.8
      vertex -21.283692 -15.381343 16.8
      vertex -20.618657 -14.716308 16.8
    endloop
  endfacet
  facet normal 0 0 1
    outer loop
      vertex -18 -18 22.8
      vertex -20.618657 -14.716308 22.8
      vertex -21.283692 -15.381343 22.8
    endloop
  endfacet
  facet normal 0.846724 -0.532032 0
    outer loop
      vertex -21.283692 -15.381343 16.8
      vertex -21.283692 -15.381343 22.8
      vertex -21.784069 -16.177688 22.8
    endloop
  endfacet
  facet normal 0.846724 -0.532032 0
    outer loop
      vertex -21.283692 -15.381343 16.8
      vertex -21.784069 -16.177688 22.8
      vertex -21.784069 -16.177688 16.8
    endloop
  endfacet
  facet normal 0 0 -1
    outer loop
      vertex -18 -18 16.8
      vertex -21.784069 -16.177688 16.8
      vertex -21.283692 -15.381343 16.8
    endloop
  endfacet
  facet normal 0 0 1
    outer loop
      vertex -18 -18 22.8
      vertex -21.283692 -15.381343 22.8
      vertex -21.784069 -16.177688 22.8
    endloop
  endfacet
  facet normal 0.943883 -0.330279 0
    outer loop
      vertex -21.784069 -16.177688 16.8
      vertex -21.784069 -16.177688 22.8
      vertex -22.094697 -17.065412 22.8
    endloop
  endfacet
  facet normal 0.943883 -0.330279 0
    outer loop
      vertex -21.784069 -16.177688 16.8
      vertex -22.094697 -17.065412 22.8
      vertex -22.094697 -17.065412 16.8
    endloop
  endfacet
  facet normal 0 0 -1
    outer loop
      vertex -18 -18 16.8
      vertex -22.094697 -17.065412 16.8
      vertex -21.784069 -16.177688 16.8
    endloop
  endfacet
  facet normal 0 0 1
    outer loop
      vertex -18 -18 22.8
      vertex -21.784069 -16.177688 22.8
      vertex -22.094697 -17.065412 22.8
    endloop
  endfacet
  facet normal 0.993712 -0.111964 0
    outer loop
      vertex -22.094697 -17.065412 16.8
      vertex -22.094697 -17.065412 22.8
      vertex -22.2 -18 22.8
    endloop
  endfacet
  facet normal 0.993712 -0.111964 0
    outer loop
      vertex -22.094697 -17.065412 16.8
      vertex -22.2 -18 22.8
      vertex -22.2 -18 16.8
    endloop
  endfacet
  facet normal 0 0 -1
    outer loop
      vertex -18 -18 16.8
      vertex -22.2 -18 16.8
      vertex -22.094697 -17.065412 16.8
    endloop
  endfacet
  facet normal 0 0 1
    outer loop
      vertex -18 -18 22.8
      vertex -22.094697 -17.065412 22.8
      vertex -22.2 -18 22.8
    endloop
  endfacet
  facet normal 0.993712 0.111964 0
    outer loop
      vertex -22.2 -18 16.8
      vertex -22.2 -18 22.8
      vertex -22.094697 -18.934588 22.8
    endloop
  endfacet
  facet normal 0.993712 0.111964 0
    outer loop
      vertex -22.2 -18 16.8
      vertex -22.094697 -18.934588 22.8
      vertex -22.094697 -18.934588 16.8
    endloop
  endfacet
  facet normal 0 0 -1
    outer loop
      vertex -18 -18 16.8
      vertex -22.094697 -18.934588 16.8
      vertex -22.2 -18 16.8
    endloop
  endfacet
  facet normal 0 0 1
    outer loop
      vertex -18 -18 22.8
      vertex -22.2 -18 22.8
      vertex -22.094697 -18.934588 22.8
    endloop
  endfacet
  facet normal 0.943883 0.330279 0
    outer loop
      vertex -22.094697 -18.934588 16.8
      vertex -22.094697 -18.934588 22.8
      vertex -21.784069 -19.822312 22.8
    endloop
  endfacet
  facet normal 0.943883 0.330279 0
    outer loop
      vertex -22.094697 -18.934588 16.8
      vertex -21.784069 -19.822312 22.8
      vertex -21.784069 -19.822312 16.8
    endloop
  endfacet
  facet normal 0 0 -1
    outer loop
      vertex -18 -18 16.8
      vertex -21.784069 -19.822312 16.8
      vertex -22.094697 -18.934588 16.8
    endloop
  endfacet
  facet normal 0 0 1
    outer loop
      vertex -18 -18 22.8
      vertex -22.094697 -18.934588 22.8
      vertex -21.784069 -19.822312 22.8
    endloop
  endfacet
  facet normal 0.846724 0.532032 0
    outer loop
      vertex -21.784069 -19.822312 16.8
      vertex -21.784069 -19.822312 22.8
      vertex -21.283692 -20.618657 22.8
    endloop
  endfacet
  facet normal 0.846724 0.532032 0
    outer loop
      vertex -21.784069 -19.822312 16.8
      vertex -21.283692 -20.618657 22.8
      vertex -21.283692 -20.618657 16.8
    endloop
  endfacet
  facet normal 0 0 -1
    outer loop
      vertex -18 -18 16.8
      vertex -21.283692 -20.618657 16.8
      vertex -21.784069 -19.822312 16.8
    endloop
  endfacet
  facet normal 0 0 1
    outer loop
      vertex -18 -18 22.8
      vertex -21.784069 -19.822312 22.8
      vertex -21.283692 -20.618657 22.8
    endloop
  endfacet
  facet normal 0.707107 0.707107 0
    outer loop
      vertex -21.283692 -20.618657 16.8
      vertex -21.283692 -20.618657 22.8
      vertex -20.618657 -21.283692 22.8
    endloop
  endfacet
  facet normal 0.707107 0.707107 0
    outer loop
      vertex -21.283692 -20.618657 16.8
      vertex -20.618657 -21.283692 22.8
      vertex -20.618657 -21.283692 16.8
    endloop
  endfacet
  facet normal 0 0 -1
    outer loop
      vertex -18 -18 16.8
      vertex -20.618657 -21.283692 16.8
      vertex -21.283692 -20.618657 16.8
    endloop
  endfacet
  facet normal 0 0 1
    outer loop
      vertex -18 -18 22.8
      vertex -21.283692 -20.618657 22.8
      vertex -20.618657 -21.283692 22.8
    endloop
  endfacet
  facet normal 0.532032 0.846724 0
    outer loop
      vertex -20.618657 -21.283692 16.8
      vertex -20.618657 -21.283692 22.8
      vertex -19.822312 -21.784069 22.8
    endloop
  endfacet
  facet normal 0.532032 0.846724 0
    outer loop
      vertex -20.618657 -21.283692 16.8
      vertex -19.822312 -21.784069 22.8
      vertex -19.822312 -21.784069 16.8
    endloop
  endfacet
  facet normal 0 0 -1
    outer loop
      vertex -18 -18 16.8
      vertex -19.822312 -21.784069 16.8
      vertex -20.618657 -21.283692 16.8
    endloop
  endfacet
  facet normal 0 0 1
    outer loop
      vertex -18 -18 22.8
      vertex -20.618657 -21.283692 22.8
      vertex -19.822312 -21.784069 22.8
    endloop
  endfacet
  facet normal 0.330279 0.943883 0
    outer loop
      vertex -19.822312 -21.784069 16.8
      vertex -19.822312 -21.784069 22.8
      vertex -18.934588 -22.094697 22.8
    endloop
  endfacet
  facet normal 0.330279 0.943883 0
    outer loop
      vertex -19.822312 -21.784069 16.8
      vertex -18.934588 -22.094697 22.8
      vertex -18.934588 -22.094697 16.8
    endloop
  endfacet
  facet normal 0 0 -1
    outer loop
      vertex -18 -18 16.8
      vertex -18.934588 -22.094697 16.8
      vertex -19.822312 -21.784069 16.8
    endloop
  endfacet
  facet normal 0 0 1
    outer loop
      vertex -18 -18 22.8
      vertex -19.822312 -21.784069 22.8
      vertex -18.934588 -22.094697 22.8
    endloop
  endfacet
  facet normal 0.111964 0.993712 0
    outer loop
      vertex -18.934588 -22.094697 16.8
      vertex -18.934588 -22.094697 22.8
      vertex -18 -22.2 22.8
    endloop
  endfacet
  facet normal 0.111964 0.993712 0
    outer loop
      vertex -18.934588 -22.094697 16.8
      vertex -18 -22.2 22.8
      vertex -18 -22.2 16.8
    endloop
  endfacet
  facet normal 0 0 -1
    outer loop
      vertex -18 -18 16.8
      vertex -18 -22.2 16.8
      vertex -18.934588 -22.094697 16.8
    endloop
  endfacet
  facet normal 0 0 1
    outer loop
      vertex -18 -18 22.8
      vertex -18.934588 -22.094697 22.8
      vertex -18 -22.2 22.8
    endloop
  endfacet
  facet normal -0.111964 0.993712 0
    outer loop
      vertex -18 -22.2 16.8
      vertex -18 -22.2 22.8
      vertex -17.065412 -22.094697 22.8
    endloop
  endfacet
  facet normal -0.111964 0.993712 0
    outer loop
      vertex -18 -22.2 16.8
      vertex -17.065412 -22.094697 22.8
      vertex -17.065412 -22.094697 16.8
    endloop
  endfacet
  facet normal 0 0 -1
    outer loop
      vertex -18 -18 16.8
      vertex -17.065412 -22.094697 16.8
      vertex -18 -22.2 16.8
    endloop
  endfacet
  facet normal 0 0 1
    outer loop
      vertex -18 -18 22.8
      vertex -18 -22.2 22.8
      vertex -17.065412 -22.094697 22.8
    endloop
  endfacet
  facet normal -0.330279 0.943883 0
    outer loop
      vertex -17.065412 -22.094697 16.8
      vertex -17.065412 -22.094697 22.8
      vertex -16.177688 -21.784069 22.8
    endloop
  endfacet
  facet normal -0.330279 0.943883 0
    outer loop
      vertex -17.065412 -22.094697 16.8
      vertex -16.177688 -21.784069 22.8
      vertex -16.177688 -21.784069 16.8
    endloop
  endfacet
  facet normal 0 0 -1
    outer loop
      vertex -18 -18 16.8
      vertex -16.177688 -21.784069 16.8
      vertex -17.065412 -22.094697 16.8
    endloop
  endfacet
  facet normal 0 0 1
    outer loop
      vertex -18 -18 22.8
      vertex -17.065412 -22.094697 22.8
      vertex -16.177688 -21.784069 22.8
    endloop
  endfacet
  facet normal -0.532032 0.846724 0
    outer loop
      vertex -16.177688 -21.784069 16.8
      vertex -16.177688 -21.784069 22.8
      vertex -15.381343 -21.283692 22.8
    endloop
  endfacet
  facet normal -0.532032 0.846724 0
    outer loop
      vertex -16.177688 -21.784069 16.8
      vertex -15.381343 -21.283692 22.8
      vertex -15.381343 -21.283692 16.8
    endloop
  endfacet
  facet normal 0 0 -1
    outer loop
      vertex -18 -18 16.8
      vertex -15.381343 -21.283692 16.8
      vertex -16.177688 -21.784069 16.8
    endloop
  endfacet
  facet normal 0 0 1
    outer loop
      vertex -18 -18 22.8
      vertex -16.177688 -21.784069 22.8
      vertex -15.381343 -21.283692 22.8
    endloop
  endfacet
  facet normal -0.707107 0.707107 0
    outer loop
      vertex -15.381343 -21.283692 16.8
      vertex -15.381343 -21.283692 22.8
      vertex -14.716308 -20.618657 22.8
    endloop
  endfacet
  facet normal -0.707107 0.707107 0
    outer loop
      vertex -15.381343 -21.283692 16.8
      vertex -14.716308 -20.618657 22.8
      vertex -14.716308 -20.618657 16.8
    endloop
  endfacet
  facet normal 0 0 -1
    outer loop
      vertex -18 -18 16.8
      vertex -14.716308 -20.618657 16.8
      vertex -15.381343 -21.283692 16.8
    endloop
  endfacet
  facet normal 0 0 1
    outer loop
      vertex -18 -18 22.8
      vertex -15.381343 -21.283692 22.8
      vertex -14.716308 -20.618657 22.8
    endloop
  endfacet
  facet normal -0.846724 0.532032 0
    outer loop
      vertex -14.716308 -20.618657 16.8
      vertex -14.716308 -20.618657 22.8
      vertex -14.215931 -19.822312 22.8
    endloop
  endfacet
  facet normal -0.846724 0.532032 0
    outer loop
      vertex -14.716308 -20.618657 16.8
      vertex -14.215931 -19.822312 22.8
      vertex -14.215931 -19.822312 16.8
    endloop
  endfacet
  facet normal 0 0 -1
    outer loop
      vertex -18 -18 16.8
      vertex -14.215931 -19.822312 16.8
      vertex -14.716308 -20.618657 16.8
    endloop
  endfacet
  facet normal 0 0 1
    outer loop
      vertex -18 -18 22.8
      vertex -14.716308 -20.618657 22.8
      vertex -14.215931 -19.822312 22.8
    endloop
  endfacet
  facet normal -0.943883 0.330279 0
    outer loop
      vertex -14.215931 -19.822312 16.8
      vertex -14.215931 -19.822312 22.8
      vertex -13.905303 -18.934588 22.8
    endloop
  endfacet
  facet normal -0.943883 0.330279 0
    outer loop
      vertex -14.215931 -19.822312 16.8
      vertex -13.905303 -18.934588 22.8
      vertex -13.905303 -18.934588 16.8
    endloop
  endfacet
  facet normal 0 0 -1
    outer loop
      vertex -18 -18 16.8
      vertex -13.905303 -18.934588 16.8
      vertex -14.215931 -19.822312 16.8
    endloop
  endfacet
  facet normal 0 0 1
    outer loop
      vertex -18 -18 22.8
      vertex -14.215931 -19.822312 22.8
      vertex -13.905303 -18.934588 22.8
    endloop
  endfacet
  facet normal -0.993712 0.111964 0
    outer loop
      vertex -13.905303 -18.934588 16.8
      vertex -13.905303 -18.934588 22.8
      vertex -13.8 -18 22.8
    endloop
  endfacet
  facet normal -0.993712 0.111964 0
    outer loop
      vertex -13.905303 -18.934588 16.8
      vertex -13.8 -18 22.8
      vertex -13.8 -18 16.8
    endloop
  endfacet
  facet normal 0 0 -1
    outer loop
      vertex -18 -18 16.8
      vertex -13.8 -18 16.8
      vertex -13.905303 -18.934588 16.8
    endloop
  endfacet
  facet normal 0 0 1
    outer loop
      vertex -18 -18 22.8
      vertex -13.905303 -18.934588 22.8
      vertex -13.8 -18 22.8
    endloop
  endfacet
  facet normal -0.993712 -0.111964 0
    outer loop
      vertex 22.2 -18 16.8
      vertex 22.2 -18 22.8
      vertex 22.094697 -17.065412 22.8
    endloop
  endfacet
  facet normal -0.993712 -0.111964 0
    outer loop
      vertex 22.2 -18 16.8
      vertex 22.094697 -17.065412 22.8
      vertex 22.094697 -17.065412 16.8
    endloop
  endfacet
  facet normal 0 0 -1
    outer loop
      vertex 18 -18 16.8
      vertex 22.094697 -17.065412 16.8
      vertex 22.2 -18 16.8
    endloop
  endfacet
  facet normal 0 0 1
    outer loop
      vertex 18 -18 22.8
      vertex 22.2 -18 22.8
      vertex 22.094697 -17.065412 22.8
    endloop
  endfacet
  facet normal -0.943883 -0.330279 0
    outer loop
      vertex 22.094697 -17.065412 16.8
      vertex 22.094697 -17.065412 22.8
      vertex 21.784069 -16.177688 22.8
    endloop
  endfacet
  facet normal -0.943883 -0.330279 0
    outer loop
      vertex 22.094697 -17.065412 16.8
      vertex 21.784069 -16.177688 22.8
      vertex 21.784069 -16.177688 16.8
    endloop
  endfacet
  facet normal 0 0 -1
    outer loop
      vertex 18 -18 16.8
      vertex 21.784069 -16.177688 16.8
      vertex 22.094697 -17.065412 16.8
    endloop
  endfacet
  facet normal 0 0 1
    outer loop
      vertex 18 -18 22.8
      vertex 22.094697 -17.065412 22.8
      vertex 21.784069 -16.177688 22.8
    endloop
  endfacet
  facet normal -0.846724 -0.532032 0
    outer loop
      vertex 21.784069 -16.177688 16.8
      vertex 21.784069 -16.177688 22.8
      vertex 21.283692 -15.381343 22.8
    endloop
  endfacet
  facet normal -0.846724 -0.532032 0
    outer loop
      vertex 21.784069 -16.177688 16.8
      vertex 21.283692 -15.381343 22.8
      vertex 21.283692 -15.381343 16.8
    endloop
  endfacet
  facet normal 0 0 -1
    outer loop
      vertex 18 -18 16.8
      vertex 21.283692 -15.381343 16.8
      vertex 21.784069 -16.177688 16.8
    endloop
  endfacet
  facet normal 0 0 1
    outer loop
      vertex 18 -18 22.8
      vertex 21.784069 -16.177688 22.8
      vertex 21.283692 -15.381343 22.8
    endloop
  endfacet
  facet normal -0.707107 -0.707107 0
    outer loop
      vertex 21.283692 -15.381343 16.8
      vertex 21.283692 -15.381343 22.8
      vertex 20.618657 -14.716308 22.8
    endloop
  endfacet
  facet normal -0.707107 -0.707107 0
    outer loop
      vertex 21.283692 -15.381343 16.8
      vertex 20.618657 -14.716308 22.8
      vertex 20.618657 -14.716308 16.8
    endloop
  endfacet
  facet normal 0 0 -1
    outer loop
      vertex 18 -18 16.8
      vertex 20.618657 -14.716308 16.8
      vertex 21.283692 -15.381343 16.8
    endloop
  endfacet
  facet normal 0 0 1
    outer loop
      vertex 18 -18 22.8
      vertex 21.283692 -15.381343 22.8
      vertex 20.618657 -14.716308 22.8
    endloop
  endfacet
  facet normal -0.532032 -0.846724 0
    outer loop
      vertex 20.618657 -14.716308 16.8
      vertex 20.618657 -14.716308 22.8
      vertex 19.822312 -14.215931 22.8
    endloop
  endfacet
  facet normal -0.532032 -0.846724 0
    outer loop
      vertex 20.618657 -14.716308 16.8
      vertex 19.822312 -14.215931 22.8
      vertex 19.822312 -14.215931 16.8
    endloop
  endfacet
  facet normal 0 0 -1
    outer loop
      vertex 18 -18 16.8
      vertex 19.822312 -14.215931 16.8
      vertex 20.618657 -14.716308 16.8
    endloop
  endfacet
  facet normal 0 0 1
    outer loop
      vertex 18 -18 22.8
      vertex 20.618657 -14.716308 22.8
      vertex 19.822312 -14.215931 22.8
    endloop
  endfacet
  facet normal -0.330279 -0.943883 0
    outer loop
      vertex 19.822312 -14.215931 16.8
      vertex 19.822312 -14.215931 22.8
      vertex 18.934588 -13.905303 22.8
    endloop
  endfacet
  facet normal -0.330279 -0.943883 0
    outer loop
      vertex 19.822312 -14.215931 16.8
      vertex 18.934588 -13.905303 22.8
      vertex 18.934588 -13.905303 16.8
    endloop
  endfacet
  facet normal 0 0 -1
    outer loop
      vertex 18 -18 16.8
      vertex 18.934588 -13.905303 16.8
      vertex 19.822312 -14.215931 16.8
    endloop
  endfacet
  facet normal 0 0 1
    outer loop
      vertex 18 -18 22.8
      vertex 19.822312 -14.215931 22.8
      vertex 18.934588 -13.905303 22.8
    endloop
  endfacet
  facet normal -0.111964 -0.993712 0
    outer loop
      vertex 18.934588 -13.905303 16.8
      vertex 18.934588 -13.905303 22.8
      vertex 18 -13.8 22.8
    endloop
  endfacet
  facet normal -0.111964 -0.993712 0
    outer loop
      vertex 18.934588 -13.905303 16.8
      vertex 18 -13.8 22.8
      vertex 18 -13.8 16.8
    endloop
  endfacet
  facet normal 0 0 -1
    outer loop
      vertex 18 -18 16.8
      vertex 18 -13.8 16.8
      vertex 18.934588 -13.905303 16.8
    endloop
  endfacet
  facet normal 0 0 1
    outer loop
      vertex 18 -18 22.8
      vertex 18.934588 -13.905303 22.8
      vertex 18 -13.8 22.8
    endloop
  endfacet
  facet normal 0.111964 -0.993712 0
    outer loop
      vertex 18 -13.8 16.8
      vertex 18 -13.8 22.8
      vertex 17.065412 -13.905303 22.8
    endloop
  endfacet
  facet normal 0.111964 -0.993712 0
    outer loop
      vertex 18 -13.8 16.8
      vertex 17.065412 -13.905303 22.8
      vertex 17.065412 -13.905303 16.8
    endloop
  endfacet
  facet normal 0 0 -1
    outer loop
      vertex 18 -18 16.8
      vertex 17.065412 -13.905303 16.8
      vertex 18 -13.8 16.8
    endloop
  endfacet
  facet normal 0 0 1
    outer loop
      vertex 18 -18 22.8
      vertex 18 -13.8 22.8
      vertex 17.065412 -13.905303 22.8
    endloop
  endfacet
  facet normal 0.330279 -0.943883 0
    outer loop
      vertex 17.065412 -13.905303 16.8
      vertex 17.065412 -13.905303 22.8
      vertex 16.177688 -14.215931 22.8
    endloop
  endfacet
  facet normal 0.330279 -0.943883 0
    outer loop
      vertex 17.065412 -13.905303 16.8
      vertex 16.177688 -14.215931 22.8
      vertex 16.177688 -14.215931 16.8
    endloop
  endfacet
  facet normal 0 0 -1
    outer loop
      vertex 18 -18 16.8
      vertex 16.177688 -14.215931 16.8
      vertex 17.065412 -13.905303 16.8
    endloop
  endfacet
  facet normal 0 0 1
    outer loop
      vertex 18 -18 22.8
      vertex 17.065412 -13.905303 22.8
      vertex 16.177688 -14.215931 22.8
    endloop
  endfacet
  facet normal 0.532032 -0.846724 0
    outer loop
      vertex 16.177688 -14.215931 16.8
      vertex 16.177688 -14.215931 22.8
      vertex 15.381343 -14.716308 22.8
    endloop
  endfacet
  facet normal 0.532032 -0.846724 0
    outer loop
      vertex 16.177688 -14.215931 16.8
      vertex 15.381343 -14.716308 22.8
      vertex 15.381343 -14.716308 16.8
    endloop
  endfacet
  facet normal 0 0 -1
    outer loop
      vertex 18 -18 16.8
      vertex 15.381343 -14.716308 16.8
      vertex 16.177688 -14.215931 16.8
    endloop
  endfacet
  facet normal 0 0 1
    outer loop
      vertex 18 -18 22.8
      vertex 16.177688 -14.215931 22.8
      vertex 15.381343 -14.716308 22.8
    endloop
  endfacet
  facet normal 0.707107 -0.707107 0
    outer loop
      vertex 15.381343 -14.716308 16.8
      vertex 15.381343 -14.716308 22.8
      vertex 14.716308 -15.381343 22.8
    endloop
  endfacet
  facet normal 0.707107 -0.707107 0
    outer loop
      vertex 15.381343 -14.716308 16.8
      vertex 14.716308 -15.381343 22.8
      vertex 14.716308 -15.381343 16.8
    endloop
  endfacet
  facet normal 0 0 -1
    outer loop
      vertex 18 -18 16.8
      vertex 14.716308 -15.381343 16.8
      vertex 15.381343 -14.716308 16.8
    endloop
  endfacet
  facet normal 0 0 1
    outer loop
      vertex 18 -18 22.8
      vertex 15.381343 -14.716308 22.8
      vertex 14.716308 -15.381343 22.8
    endloop
  endfacet
  facet normal 0.846724 -0.532032 0
    outer loop
      vertex 14.716308 -15.381343 16.8
      vertex 14.716308 -15.381343 22.8
      vertex 14.215931 -16.177688 22.8
    endloop
  endfacet
  facet normal 0.846724 -0.532032 0
    outer loop
      vertex 14.716308 -15.381343 16.8
      vertex 14.215931 -16.177688 22.8
      vertex 14.215931 -16.177688 16.8
    endloop
  endfacet
  facet normal 0 0 -1
    outer loop
      vertex 18 -18 16.8
      vertex 14.215931 -16.177688 16.8
      vertex 14.716308 -15.381343 16.8
    endloop
  endfacet
  facet normal 0 0 1
    outer loop
      vertex 18 -18 22.8
      vertex 14.716308 -15.381343 22.8
      vertex 14.215931 -16.177688 22.8
    endloop
  endfacet
  facet normal 0.943883 -0.330279 0
    outer loop
      vertex 14.215931 -16.177688 16.8
      vertex 14.215931 -16.177688 22.8
      vertex 13.905303 -17.065412 22.8
    endloop
  endfacet
  facet normal 0.943883 -0.330279 0
    outer loop
      vertex 14.215931 -16.177688 16.8
      vertex 13.905303 -17.065412 22.8
      vertex 13.905303 -17.065412 16.8
    endloop
  endfacet
  facet normal 0 0 -1
    outer loop
      vertex 18 -18 16.8
      vertex 13.905303 -17.065412 16.8
      vertex 14.215931 -16.177688 16.8
    endloop
  endfacet
  facet normal 0 0 1
    outer loop
      vertex 18 -18 22.8
      vertex 14.215931 -16.177688 22.8
      vertex 13.905303 -17.065412 22.8
    endloop
  endfacet
  facet normal 0.993712 -0.111964 0
    outer loop
      vertex 13.905303 -17.065412 16.8
      vertex 13.905303 -17.065412 22.8
      vertex 13.8 -18 22.8
    endloop
  endfacet
  facet normal 0.993712 -0.111964 0
    outer loop
      vertex 13.905303 -17.065412 16.8
      vertex 13.8 -18 22.8
      vertex 13.8 -18 16.8
    endloop
  endfacet
  facet normal 0 0 -1
    outer loop
      vertex 18 -18 16.8
      vertex 13.8 -18 16.8
      vertex 13.905303 -17.065412 16.8
    endloop
  endfacet
  facet normal 0 0 1
    outer loop
      vertex 18 -18 22.8
      vertex 13.905303 -17.065412 22.8
      vertex 13.8 -18 22.8
    endloop
  endfacet
  facet normal 0.993712 0.111964 0
    outer loop
      vertex 13.8 -18 16.8
      vertex 13.8 -18 22.8
      vertex 13.905303 -18.934588 22.8
    endloop
  endfacet
  facet normal 0.993712 0.111964 0
    outer loop
      vertex 13.8 -18 16.8
      vertex 13.905303 -18.934588 22.8
      vertex 13.905303 -18.934588 16.8
    endloop
  endfacet
  facet normal 0 0 -1
    outer loop
      vertex 18 -18 16.8
      vertex 13.905303 -18.934588 16.8
      vertex 13.8 -18 16.8
    endloop
  endfacet
  facet normal 0 0 1
    outer loop
      vertex 18 -18 22.8
      vertex 13.8 -18 22.8
      vertex 13.905303 -18.934588 22.8
    endloop
  endfacet
  facet normal 0.943883 0.330279 0
    outer loop
      vertex 13.905303 -18.934588 16.8
      vertex 13.905303 -18.934588 22.8
      vertex 14.215931 -19.822312 22.8
    endloop
  endfacet
  facet normal 0.943883 0.330279 0
    outer loop
      vertex 13.905303 -18.934588 16.8
      vertex 14.215931 -19.822312 22.8
      vertex 14.215931 -19.822312 16.8
    endloop
  endfacet
  facet normal 0 0 -1
    outer loop
      vertex 18 -18 16.8
      vertex 14.215931 -19.822312 16.8
      vertex 13.905303 -18.934588 16.8
    endloop
  endfacet
  facet normal 0 0 1
    outer loop
      vertex 18 -18 22.8
      vertex 13.905303 -18.934588 22.8
      vertex 14.215931 -19.822312 22.8
    endloop
  endfacet
  facet normal 0.846724 0.532032 0
    outer loop
      vertex 14.215931 -19.822312 16.8
      vertex 14.215931 -19.822312 22.8
      vertex 14.716308 -20.618657 22.8
    endloop
  endfacet
  facet normal 0.846724 0.532032 0
    outer loop
      vertex 14.215931 -19.822312 16.8
      vertex 14.716308 -20.618657 22.8
      vertex 14.716308 -20.618657 16.8
    endloop
  endfacet
  facet normal 0 0 -1
    outer loop
      vertex 18 -18 16.8
      vertex 14.716308 -20.618657 16.8
      vertex 14.215931 -19.822312 16.8
    endloop
  endfacet
  facet normal 0 0 1
    outer loop
      vertex 18 -18 22.8
      vertex 14.215931 -19.822312 22.8
      vertex 14.716308 -20.618657 22.8
    endloop
  endfacet
  facet normal 0.707107 0.707107 0
    outer loop
      vertex 14.716308 -20.618657 16.8
      vertex 14.716308 -20.618657 22.8
      vertex 15.381343 -21.283692 22.8
    endloop
  endfacet
  facet normal 0.707107 0.707107 0
    outer loop
      vertex 14.716308 -20.618657 16.8
      vertex 15.381343 -21.283692 22.8
      vertex 15.381343 -21.283692 16.8
    endloop
  endfacet
  facet normal 0 0 -1
    outer loop
      vertex 18 -18 16.8
      vertex 15.381343 -21.283692 16.8
      vertex 14.716308 -20.618657 16.8
    endloop
  endfacet
  facet normal 0 0 1
    outer loop
      vertex 18 -18 22.8
      vertex 14.716308 -20.618657 22.8
      vertex 15.381343 -21.283692 22.8
    endloop
  endfacet
  facet normal 0.532032 0.846724 0
    outer loop
      vertex 15.381343 -21.283692 16.8
      vertex 15.381343 -21.283692 22.8
      vertex 16.177688 -21.784069 22.8
    endloop
  endfacet
  facet normal 0.532032 0.846724 0
    outer loop
      vertex 15.381343 -21.283692 16.8
      vertex 16.177688 -21.784069 22.8
      vertex 16.177688 -21.784069 16.8
    endloop
  endfacet
  facet normal 0 0 -1
    outer loop
      vertex 18 -18 16.8
      vertex 16.177688 -21.784069 16.8
      vertex 15.381343 -21.283692 16.8
    endloop
  endfacet
  facet normal 0 0 1
    outer loop
      vertex 18 -18 22.8
      vertex 15.381343 -21.283692 22.8
      vertex 16.177688 -21.784069 22.8
    endloop
  endfacet
  facet normal 0.330279 0.943883 0
    outer loop
      vertex 16.177688 -21.784069 16.8
      vertex 16.177688 -21.784069 22.8
      vertex 17.065412 -22.094697 22.8
    endloop
  endfacet
  facet normal 0.330279 0.943883 0
    outer loop
      vertex 16.177688 -21.784069 16.8
      vertex 17.065412 -22.094697 22.8
      vertex 17.065412 -22.094697 16.8
    endloop
  endfacet
  facet normal 0 0 -1
    outer loop
      vertex 18 -18 16.8
      vertex 17.065412 -22.094697 16.8
      vertex 16.177688 -21.784069 16.8
    endloop
  endfacet
  facet normal 0 0 1
    outer loop
      vertex 18 -18 22.8
      vertex 16.177688 -21.784069 22.8
      vertex 17.065412 -22.094697 22.8
    endloop
  endfacet
  facet normal 0.111964 0.993712 0
    outer loop
      vertex 17.065412 -22.094697 16.8
      vertex 17.065412 -22.094697 22.8
      vertex 18 -22.2 22.8
    endloop
  endfacet
  facet normal 0.111964 0.993712 0
    outer loop
      vertex 17.065412 -22.094697 16.8
      vertex 18 -22.2 22.8
      vertex 18 -22.2 16.8
    endloop
  endfacet
  facet normal 0 0 -1
    outer loop
      vertex 18 -18 16.8
      vertex 18 -22.2 16.8
      vertex 17.065412 -22.094697 16.8
    endloop
  endfacet
  facet normal 0 0 1
    outer loop
      vertex 18 -18 22.8
      vertex 17.065412 -22.094697 22.8
      vertex 18 -22.2 22.8
    endloop
  endfacet
  facet normal -0.111964 0.993712 0
    outer loop
      vertex 18 -22.2 16.8
      vertex 18 -22.2 22.8
      vertex 18.934588 -22.094697 22.8
    endloop
  endfacet
  facet normal -0.111964 0.993712 0
    outer loop
      vertex 18 -22.2 16.8
      vertex 18.934588 -22.094697 22.8
      vertex 18.934588 -22.094697 16.8
    endloop
  endfacet
  facet normal 0 0 -1
    outer loop
      vertex 18 -18 16.8
      vertex 18.934588 -22.094697 16.8
      vertex 18 -22.2 16.8
    endloop
  endfacet
  facet normal 0 0 1
    outer loop
      vertex 18 -18 22.8
      vertex 18 -22.2 22.8
      vertex 18.934588 -22.094697 22.8
    endloop
  endfacet
  facet normal -0.330279 0.943883 0
    outer loop
      vertex 18.934588 -22.094697 16.8
      vertex 18.934588 -22.094697 22.8
      vertex 19.822312 -21.784069 22.8
    endloop
  endfacet
  facet normal -0.330279 0.943883 0
    outer loop
      vertex 18.934588 -22.094697 16.8
      vertex 19.822312 -21.784069 22.8
      vertex 19.822312 -21.784069 16.8
    endloop
  endfacet
  facet normal 0 0 -1
    outer loop
      vertex 18 -18 16.8
      vertex 19.822312 -21.784069 16.8
      vertex 18.934588 -22.094697 16.8
    endloop
  endfacet
  facet normal 0 0 1
    outer loop
      vertex 18 -18 22.8
      vertex 18.934588 -22.094697 22.8
      vertex 19.822312 -21.784069 22.8
    endloop
  endfacet
  facet normal -0.532032 0.846724 0
    outer loop
      vertex 19.822312 -21.784069 16.8
      vertex 19.822312 -21.784069 22.8
      vertex 20.618657 -21.283692 22.8
    endloop
  endfacet
  facet normal -0.532032 0.846724 0
    outer loop
      vertex 19.822312 -21.784069 16.8
      vertex 20.618657 -21.283692 22.8
      vertex 20.618657 -21.283692 16.8
    endloop
  endfacet
  facet normal 0 0 -1
    outer loop
      vertex 18 -18 16.8
      vertex 20.618657 -21.283692 16.8
      vertex 19.822312 -21.784069 16.8
    endloop
  endfacet
  facet normal 0 0 1
    outer loop
      vertex 18 -18 22.8
      vertex 19.822312 -21.784069 22.8
      vertex 20.618657 -21.283692 22.8
    endloop
  endfacet
  facet normal -0.707107 0.707107 0
    outer loop
      vertex 20.618657 -21.283692 16.8
      vertex 20.618657 -21.283692 22.8
      vertex 21.283692 -20.618657 22.8
    endloop
  endfacet
  facet normal -0.707107 0.707107 0
    outer loop
      vertex 20.618657 -21.283692 16.8
      vertex 21.283692 -20.618657 22.8
      vertex 21.283692 -20.618657 16.8
    endloop
  endfacet
  facet normal 0 0 -1
    outer loop
      vertex 18 -18 16.8
      vertex 21.283692 -20.618657 16.8
      vertex 20.618657 -21.283692 16.8
    endloop
  endfacet
  facet normal 0 0 1
    outer loop
      vertex 18 -18 22.8
      vertex 20.618657 -21.283692 22.8
      vertex 21.283692 -20.618657 22.8
    endloop
  endfacet
  facet normal -0.846724 0.532032 0
    outer loop
      vertex 21.283692 -20.618657 16.8
      vertex 21.283692 -20.618657 22.8
      vertex 21.784069 -19.822312 22.8
    endloop
  endfacet
  facet normal -0.846724 0.532032 0
    outer loop
      vertex 21.283692 -20.618657 16.8
      vertex 21.784069 -19.822312 22.8
      vertex 21.784069 -19.822312 16.8
    endloop
  endfacet
  facet normal 0 0 -1
    outer loop
      vertex 18 -18 16.8
      vertex 21.784069 -19.822312 16.8
      vertex 21.283692 -20.618657 16.8
    endloop
  endfacet
  facet normal 0 0 1
    outer loop
      vertex 18 -18 22.8
      vertex 21.283692 -20.618657 22.8
      vertex 21.784069 -19.822312 22.8
    endloop
  endfacet
  facet normal -0.943883 0.330279 0
    outer loop
      vertex 21.784069 -19.822312 16.8
      vertex 21.784069 -19.822312 22.8
      vertex 22.094697 -18.934588 22.8
    endloop
  endfacet
  facet normal -0.943883 0.330279 0
    outer loop
      vertex 21.784069 -19.822312 16.8
      vertex 22.094697 -18.934588 22.8
      vertex 22.094697 -18.934588 16.8
    endloop
  endfacet
  facet normal 0 0 -1
    outer loop
      vertex 18 -18 16.8
      vertex 22.094697 -18.934588 16.8
      vertex 21.784069 -19.822312 16.8
    endloop
  endfacet
  facet normal 0 0 1
    outer loop
      vertex 18 -18 22.8
      vertex 21.784069 -19.822312 22.8
      vertex 22.094697 -18.934588 22.8
    endloop
  endfacet
  facet normal -0.993712 0.111964 0
    outer loop
      vertex 22.094697 -18.934588 16.8
      vertex 22.094697 -18.934588 22.8
      vertex 22.2 -18 22.8
    endloop
  endfacet
  facet normal -0.993712 0.111964 0
    outer loop
      vertex 22.094697 -18.934588 16.8
      vertex 22.2 -18 22.8
      vertex 22.2 -18 16.8
    endloop
  endfacet
  facet normal 0 0 -1
    outer loop
      vertex 18 -18 16.8
      vertex 22.2 -18 16.8
      vertex 22.094697 -18.934588 16.8
    endloop
  endfacet
  facet normal 0 0 1
    outer loop
      vertex 18 -18 22.8
      vertex 22.094697 -18.934588 22.8
      vertex 22.2 -18 22.8
    endloop
  endfacet
endsolid concept_puck_v3_mic_capsules.stl
