solid concept_puck_v3_sensor_board.stl
  facet normal 0 0 1
    outer loop
      vertex -23 -16 15.2
      vertex 23 -16 15.2
      vertex 23 16 15.2
    endloop
  endfacet
  facet normal 0 0 1
    outer loop
      vertex -23 -16 15.2
      vertex 23 16 15.2
      vertex -23 16 15.2
    endloop
  endfacet
  facet normal 0 0 -1
    outer loop
      vertex -23 -16 16.8
      vertex 23 16 16.8
      vertex 23 -16 16.8
    endloop
  endfacet
  facet normal 0 0 -1
    outer loop
      vertex -23 -16 16.8
      vertex -23 16 16.8
      vertex 23 16 16.8
    endloop
  endfacet
  facet normal 0 1 0
    outer loop
      vertex -23 -16 15.2
      vertex -23 -16 16.8
      vertex 23 -16 16.8
    endloop
  endfacet
  facet normal 0 1 0
    outer loop
      vertex -23 -16 15.2
      vertex 23 -16 16.8
      vertex 23 -16 15.2
    endloop
  endfacet
  facet normal -1 0 0
    outer loop
      vertex 23 -16 15.2
      vertex 23 -16 16.8
      vertex 23 16 16.8
    endloop
  endfacet
  facet normal -1 0 0
    outer loop
      vertex 23 -16 15.2
      vertex 23 16 16.8
      vertex 23 16 15.2
    endloop
  endfacet
  facet normal 0 -1 0
    outer loop
      vertex 23 16 15.2
      vertex 23 16 16.8
      vertex -23 16 16.8
    endloop
  endfacet
  facet normal 0 -1 0
    outer loop
      vertex 23 16 15.2
      vertex -23 16 16.8
      vertex -23 16 15.2
    endloop
  endfacet
  facet normal 1 0 0
    outer loop
      vertex -23 16 15.2
      vertex -23 16 16.8
      vertex -23 -16 16.8
    endloop
  endfacet
  facet normal 1 0 0
    outer loop
      vertex -23 16 15.2
      vertex -23 -16 16.8
      vertex -23 -16 15.2
    endloop
  endfacet
endsolid concept_puck_v3_sensor_board.stl
