solid concept_puck_v3_main_board.stl
  facet normal 0 0 1
    outer loop
      vertex -26 -18 7.4
      vertex 26 -18 7.4
      vertex 26 18 7.4
    endloop
  endfacet
  facet normal 0 0 1
    outer loop
      vertex -26 -18 7.4
      vertex 26 18 7.4
      vertex -26 18 7.4
    endloop
  endfacet
  facet normal 0 0 -1
    outer loop
      vertex -26 -18 9
      vertex 26 18 9
      vertex 26 -18 9
    endloop
  endfacet
  facet normal 0 0 -1
    outer loop
      vertex -26 -18 9
      vertex -26 18 9
      vertex 26 18 9
    endloop
  endfacet
  facet normal 0 1 0
    outer loop
      vertex -26 -18 7.4
      vertex -26 -18 9
      vertex 26 -18 9
    endloop
  endfacet
  facet normal 0 1 0
    outer loop
      vertex -26 -18 7.4
      vertex 26 -18 9
      vertex 26 -18 7.4
    endloop
  endfacet
  facet normal -1 0 0
    outer loop
      vertex 26 -18 7.4
      vertex 26 -18 9
      vertex 26 18 9
    endloop
  endfacet
  facet normal -1 0 0
    outer loop
      vertex 26 -18 7.4
      vertex 26 18 9
      vertex 26 18 7.4
    endloop
  endfacet
  facet normal 0 -1 0
    outer loop
      vertex 26 18 7.4
      vertex 26 18 9
      vertex -26 18 9
    endloop
  endfacet
  facet normal 0 -1 0
    outer loop
      vertex 26 18 7.4
      vertex -26 18 9
      vertex -26 18 7.4
    endloop
  endfacet
  facet normal 1 0 0
    outer loop
      vertex -26 18 7.4
      vertex -26 18 9
      vertex -26 -18 9
    endloop
  endfacet
  facet normal 1 0 0
    outer loop
      vertex -26 18 7.4
      vertex -26 -18 9
      vertex -26 -18 7.4
    endloop
  endfacet
endsolid concept_puck_v3_main_board.stl
