solid concept_puck_v3_top.stl
  facet normal -0.998427 -0.05607 0
    outer loop
      vertex 34 0 23
      vertex 34 0 28.5
      vertex 33.786215 3.806792 28.5
    endloop
  endfacet
  facet normal -0.998427 -0.05607 0
    outer loop
      vertex 34 0 23
      vertex 33.786215 3.806792 28.5
      vertex 33.786215 3.806792 23
    endloop
  endfacet
  facet normal 0 0 -1
    outer loop
      vertex 0 0 23
      vertex 33.786215 3.806792 23
      vertex 34 0 23
    endloop
  endfacet
  facet normal 0 0 1
    outer loop
      vertex 0 0 28.5
      vertex 34 0 28.5
      vertex 33.786215 3.806792 28.5
    endloop
  endfacet
  facet normal -0.985871 -0.167506 0
    outer loop
      vertex 33.786215 3.806792 23
      vertex 33.786215 3.806792 28.5
      vertex 33.147549 7.565712 28.5
    endloop
  endfacet
  facet normal -0.985871 -0.167506 0
    outer loop
      vertex 33.786215 3.806792 23
      vertex 33.147549 7.565712 28.5
      vertex 33.147549 7.565712 23
    endloop
  endfacet
  facet normal 0 0 -1
    outer loop
      vertex 0 0 23
      vertex 33.147549 7.565712 23
      vertex 33.786215 3.806792 23
    endloop
  endfacet
  facet normal 0 0 1
    outer loop
      vertex 0 0 28.5
      vertex 33.786215 3.806792 28.5
      vertex 33.147549 7.565712 28.5
    endloop
  endfacet
  facet normal -0.960917 -0.276836 0
    outer loop
      vertex 33.147549 7.565712 23
      vertex 33.147549 7.565712 28.5
      vertex 32.092033 11.229488 28.5
    endloop
  endfacet
  facet normal -0.960917 -0.276836 0
    outer loop
      vertex 33.147549 7.565712 23
      vertex 32.092033 11.229488 28.5
      vertex 32.092033 11.229488 23
    endloop
  endfacet
  facet normal 0 0 -1
    outer loop
      vertex 0 0 23
      vertex 32.092033 11.229488 23
      vertex 33.147549 7.565712 23
    endloop
  endfacet
  facet normal 0 0 1
    outer loop
      vertex 0 0 28.5
      vertex 33.147549 7.565712 28.5
      vertex 32.092033 11.229488 28.5
    endloop
  endfacet
  facet normal -0.92388 -0.382683 0
    outer loop
      vertex 32.092033 11.229488 23
      vertex 32.092033 11.229488 28.5
      vertex 30.632942 14.752047 28.5
    endloop
  endfacet
  facet normal -0.92388 -0.382683 0
    outer loop
      vertex 32.092033 11.229488 23
      vertex 30.632942 14.752047 28.5
      vertex 30.632942 14.752047 23
    endloop
  endfacet
  facet normal 0 0 -1
    outer loop
      vertex 0 0 23
      vertex 30.632942 14.752047 23
      vertex 32.092033 11.229488 23
    endloop
  endfacet
  facet normal 0 0 1
    outer loop
      vertex 0 0 28.5
      vertex 32.092033 11.229488 28.5
      vertex 30.632942 14.752047 28.5
    endloop
  endfacet
  facet normal -0.875223 -0.483719 0
    outer loop
      vertex 30.632942 14.752047 23
      vertex 30.632942 14.752047 28.5
      vertex 28.788623 18.089091 28.5
    endloop
  endfacet
  facet normal -0.875223 -0.483719 0
    outer loop
      vertex 30.632942 14.752047 23
      vertex 28.788623 18.089091 28.5
      vertex 28.788623 18.089091 23
    endloop
  endfacet
  facet normal 0 0 -1
    outer loop
      vertex 0 0 23
      vertex 28.788623 18.089091 23
      vertex 30.632942 14.752047 23
    endloop
  endfacet
  facet normal 0 0 1
    outer loop
      vertex 0 0 28.5
      vertex 30.632942 14.752047 28.5
      vertex 28.788623 18.089091 28.5
    endloop
  endfacet
  facet normal -0.815561 -0.578671 0
    outer loop
      vertex 28.788623 18.089091 23
      vertex 28.788623 18.089091 28.5
      vertex 26.58227 21.198653 28.5
    endloop
  endfacet
  facet normal -0.815561 -0.578671 0
    outer loop
      vertex 28.788623 18.089091 23
      vertex 26.58227 21.198653 28.5
      vertex 26.58227 21.198653 23
    endloop
  endfacet
  facet normal 0 0 -1
    outer loop
      vertex 0 0 23
      vertex 26.58227 21.198653 23
      vertex 28.788623 18.089091 23
    endloop
  endfacet
  facet normal 0 0 1
    outer loop
      vertex 0 0 28.5
      vertex 28.788623 18.089091 28.5
      vertex 26.58227 21.198653 28.5
    endloop
  endfacet
  facet normal -0.745642 -0.666347 0
    outer loop
      vertex 26.58227 21.198653 23
      vertex 26.58227 21.198653 28.5
      vertex 24.041631 24.041631 28.5
    endloop
  endfacet
  facet normal -0.745642 -0.666347 0
    outer loop
      vertex 26.58227 21.198653 23
      vertex 24.041631 24.041631 28.5
      vertex 24.041631 24.041631 23
    endloop
  endfacet
  facet normal 0 0 -1
    outer loop
      vertex 0 0 23
      vertex 24.041631 24.041631 23
      vertex 26.58227 21.198653 23
    endloop
  endfacet
  facet normal 0 0 1
    outer loop
      vertex 0 0 28.5
      vertex 26.58227 21.198653 28.5
      vertex 24.041631 24.041631 28.5
    endloop
  endfacet
  facet normal -0.666347 -0.745642 0
    outer loop
      vertex 24.041631 24.041631 23
      vertex 24.041631 24.041631 28.5
      vertex 21.198653 26.58227 28.5
    endloop
  endfacet
  facet normal -0.666347 -0.745642 0
    outer loop
      vertex 24.041631 24.041631 23
      vertex 21.198653 26.58227 28.5
      vertex 21.198653 26.58227 23
    endloop
  endfacet
  facet normal 0 0 -1
    outer loop
      vertex 0 0 23
      vertex 21.198653 26.58227 23
      vertex 24.041631 24.041631 23
    endloop
  endfacet
  facet normal 0 0 1
    outer loop
      vertex 0 0 28.5
      vertex 24.041631 24.041631 28.5
      vertex 21.198653 26.58227 28.5
    endloop
  endfacet
  facet normal -0.578671 -0.815561 0
    outer loop
      vertex 21.198653 26.58227 23
      vertex 21.198653 26.58227 28.5
      vertex 18.089091 28.788623 28.5
    endloop
  endfacet
  facet normal -0.578671 -0.815561 0
    outer loop
      vertex 21.198653 26.58227 23
      vertex 18.089091 28.788623 28.5
      vertex 18.089091 28.788623 23
    endloop
  endfacet
  facet normal 0 0 -1
    outer loop
      vertex 0 0 23
      vertex 18.089091 28.788623 23
      vertex 21.198653 26.58227 23
    endloop
  endfacet
  facet normal 0 0 1
    outer loop
      vertex 0 0 28.5
      vertex 21.198653 26.58227 28.5
      vertex 18.089091 28.788623 28.5
    endloop
  endfacet
  facet normal -0.483719 -0.875223 0
    outer loop
      vertex 18.089091 28.788623 23
      vertex 18.089091 28.788623 28.5
      vertex 14.752047 30.632942 28.5
    endloop
  endfacet
  facet normal -0.483719 -0.875223 0
    outer loop
      vertex 18.089091 28.788623 23
      vertex 14.752047 30.632942 28.5
      vertex 14.752047 30.632942 23
    endloop
  endfacet
  facet normal 0 0 -1
    outer loop
      vertex 0 0 23
      vertex 14.752047 30.632942 23
      vertex 18.089091 28.788623 23
    endloop
  endfacet
  facet normal 0 0 1
    outer loop
      vertex 0 0 28.5
      vertex 18.089091 28.788623 28.5
      vertex 14.752047 30.632942 28.5
    endloop
  endfacet
  facet normal -0.382683 -0.92388 0
    outer loop
      vertex 14.752047 30.632942 23
      vertex 14.752047 30.632942 28.5
      vertex 11.229488 32.092033 28.5
    endloop
  endfacet
  facet normal -0.382683 -0.92388 0
    outer loop
      vertex 14.752047 30.632942 23
      vertex 11.229488 32.092033 28.5
      vertex 11.229488 32.092033 23
    endloop
  endfacet
  facet normal 0 0 -1
    outer loop
      vertex 0 0 23
      vertex 11.229488 32.092033 23
      vertex 14.752047 30.632942 23
    endloop
  endfacet
  facet normal 0 0 1
    outer loop
      vertex 0 0 28.5
      vertex 14.752047 30.632942 28.5
      vertex 11.229488 32.092033 28.5
    endloop
  endfacet
  facet normal -0.276836 -0.960917 0
    outer loop
      vertex 11.229488 32.092033 23
      vertex 11.229488 32.092033 28.5
      vertex 7.565712 33.147549 28.5
    endloop
  endfacet
  facet normal -0.276836 -0.960917 0
    outer loop
      vertex 11.229488 32.092033 23
      vertex 7.565712 33.147549 28.5
      vertex 7.565712 33.147549 23
    endloop
  endfacet
  facet normal 0 0 -1
    outer loop
      vertex 0 0 23
      vertex 7.565712 33.147549 23
      vertex 11.229488 32.092033 23
    endloop
  endfacet
  facet normal 0 0 1
    outer loop
      vertex 0 0 28.5
      vertex 11.229488 32.092033 28.5
      vertex 7.565712 33.147549 28.5
    endloop
  endfacet
  facet normal -0.167506 -0.985871 0
    outer loop
      vertex 7.565712 33.147549 23
      vertex 7.565712 33.147549 28.5
      vertex 3.806792 33.786215 28.5
    endloop
  endfacet
  facet normal -0.167506 -0.985871 0
    outer loop
      vertex 7.565712 33.147549 23
      vertex 3.806792 33.786215 28.5
      vertex 3.806792 33.786215 23
    endloop
  endfacet
  facet normal 0 0 -1
    outer loop
      vertex 0 0 23
      vertex 3.806792 33.786215 23
      vertex 7.565712 33.147549 23
    endloop
  endfacet
  facet normal 0 0 1
    outer loop
      vertex 0 0 28.5
      vertex 7.565712 33.147549 28.5
      vertex 3.806792 33.786215 28.5
    endloop
  endfacet
  facet normal -0.05607 -0.998427 0
    outer loop
      vertex 3.806792 33.786215 23
      vertex 3.806792 33.786215 28.5
      vertex 0 34 28.5
    endloop
  endfacet
  facet normal -0.05607 -0.998427 0
    outer loop
      vertex 3.806792 33.786215 23
      vertex 0 34 28.5
      vertex 0 34 23
    endloop
  endfacet
  facet normal 0 0 -1
    outer loop
      vertex 0 0 23
      vertex 0 34 23
      vertex 3.806792 33.786215 23
    endloop
  endfacet
  facet normal 0 0 1
    outer loop
      vertex 0 0 28.5
      vertex 3.806792 33.786215 28.5
      vertex 0 34 28.5
    endloop
  endfacet
  facet normal 0.05607 -0.998427 0
    outer loop
      vertex 0 34 23
      vertex 0 34 28.5
      vertex -3.806792 33.786215 28.5
    endloop
  endfacet
  facet normal 0.05607 -0.998427 0
    outer loop
      vertex 0 34 23
      vertex -3.806792 33.786215 28.5
      vertex -3.806792 33.786215 23
    endloop
  endfacet
  facet normal 0 0 -1
    outer loop
      vertex 0 0 23
      vertex -3.806792 33.786215 23
      vertex 0 34 23
    endloop
  endfacet
  facet normal 0 0 1
    outer loop
      vertex 0 0 28.5
      vertex 0 34 28.5
      vertex -3.806792 33.786215 28.5
    endloop
  endfacet
  facet normal 0.167506 -0.985871 0
    outer loop
      vertex -3.806792 33.786215 23
      vertex -3.806792 33.786215 28.5
      vertex -7.565712 33.147549 28.5
    endloop
  endfacet
  facet normal 0.167506 -0.985871 0
    outer loop
      vertex -3.806792 33.786215 23
      vertex -7.565712 33.147549 28.5
      vertex -7.565712 33.147549 23
    endloop
  endfacet
  facet normal 0 0 -1
    outer loop
      vertex 0 0 23
      vertex -7.565712 33.147549 23
      vertex -3.806792 33.786215 23
    endloop
  endfacet
  facet normal 0 0 1
    outer loop
      vertex 0 0 28.5
      vertex -3.806792 33.786215 28.5
      vertex -7.565712 33.147549 28.5
    endloop
  endfacet
  facet normal 0.276836 -0.960917 0
    outer loop
      vertex -7.565712 33.147549 23
      vertex -7.565712 33.147549 28.5
      vertex -11.229488 32.092033 28.5
    endloop
  endfacet
  facet normal 0.276836 -0.960917 0
    outer loop
      vertex -7.565712 33.147549 23
      vertex -11.229488 32.092033 28.5
      vertex -11.229488 32.092033 23
    endloop
  endfacet
  facet normal 0 0 -1
    outer loop
      vertex 0 0 23
      vertex -11.229488 32.092033 23
      vertex -7.565712 33.147549 23
    endloop
  endfacet
  facet normal 0 0 1
    outer loop
      vertex 0 0 28.5
      vertex -7.565712 33.147549 28.5
      vertex -11.229488 32.092033 28.5
    endloop
  endfacet
  facet normal 0.382683 -0.92388 0
    outer loop
      vertex -11.229488 32.092033 23
      vertex -11.229488 32.092033 28.5
      vertex -14.752047 30.632942 28.5
    endloop
  endfacet
  facet normal 0.382683 -0.92388 0
    outer loop
      vertex -11.229488 32.092033 23
      vertex -14.752047 30.632942 28.5
      vertex -14.752047 30.632942 23
    endloop
  endfacet
  facet normal 0 0 -1
    outer loop
      vertex 0 0 23
      vertex -14.752047 30.632942 23
      vertex -11.229488 32.092033 23
    endloop
  endfacet
  facet normal 0 0 1
    outer loop
      vertex 0 0 28.5
      vertex -11.229488 32.092033 28.5
      vertex -14.752047 30.632942 28.5
    endloop
  endfacet
  facet normal 0.483719 -0.875223 0
    outer loop
      vertex -14.752047 30.632942 23
      vertex -14.752047 30.632942 28.5
      vertex -18.089091 28.788623 28.5
    endloop
  endfacet
  facet normal 0.483719 -0.875223 0
    outer loop
      vertex -14.752047 30.632942 23
      vertex -18.089091 28.788623 28.5
      vertex -18.089091 28.788623 23
    endloop
  endfacet
  facet normal 0 0 -1
    outer loop
      vertex 0 0 23
      vertex -18.089091 28.788623 23
      vertex -14.752047 30.632942 23
    endloop
  endfacet
  facet normal 0 0 1
    outer loop
      vertex 0 0 28.5
      vertex -14.752047 30.632942 28.5
      vertex -18.089091 28.788623 28.5
    endloop
  endfacet
  facet normal 0.578671 -0.815561 0
    outer loop
      vertex -18.089091 28.788623 23
      vertex -18.089091 28.788623 28.5
      vertex -21.198653 26.58227 28.5
    endloop
  endfacet
  facet normal 0.578671 -0.815561 0
    outer loop
      vertex -18.089091 28.788623 23
      vertex -21.198653 26.58227 28.5
      vertex -21.198653 26.58227 23
    endloop
  endfacet
  facet normal 0 0 -1
    outer loop
      vertex 0 0 23
      vertex -21.198653 26.58227 23
      vertex -18.089091 28.788623 23
    endloop
  endfacet
  facet normal 0 0 1
    outer loop
      vertex 0 0 28.5
      vertex -18.089091 28.788623 28.5
      vertex -21.198653 26.58227 28.5
    endloop
  endfacet
  facet normal 0.666347 -0.745642 0
    outer loop
      vertex -21.198653 26.58227 23
      vertex -21.198653 26.58227 28.5
      vertex -24.041631 24.041631 28.5
    endloop
  endfacet
  facet normal 0.666347 -0.745642 0
    outer loop
      vertex -21.198653 26.58227 23
      vertex -24.041631 24.041631 28.5
      vertex -24.041631 24.041631 23
    endloop
  endfacet
  facet normal 0 0 -1
    outer loop
      vertex 0 0 23
      vertex -24.041631 24.041631 23
      vertex -21.198653 26.58227 23
    endloop
  endfacet
  facet normal 0 0 1
    outer loop
      vertex 0 0 28.5
      vertex -21.198653 26.58227 28.5
      vertex -24.041631 24.041631 28.5
    endloop
  endfacet
  facet normal 0.745642 -0.666347 0
    outer loop
      vertex -24.041631 24.041631 23
      vertex -24.041631 24.041631 28.5
      vertex -26.58227 21.198653 28.5
    endloop
  endfacet
  facet normal 0.745642 -0.666347 0
    outer loop
      vertex -24.041631 24.041631 23
      vertex -26.58227 21.198653 28.5
      vertex -26.58227 21.198653 23
    endloop
  endfacet
  facet normal 0 0 -1
    outer loop
      vertex 0 0 23
      vertex -26.58227 21.198653 23
      vertex -24.041631 24.041631 23
    endloop
  endfacet
  facet normal 0 0 1
    outer loop
      vertex 0 0 28.5
      vertex -24.041631 24.041631 28.5
      vertex -26.58227 21.198653 28.5
    endloop
  endfacet
  facet normal 0.815561 -0.578671 0
    outer loop
      vertex -26.58227 21.198653 23
      vertex -26.58227 21.198653 28.5
      vertex -28.788623 18.089091 28.5
    endloop
  endfacet
  facet normal 0.815561 -0.578671 0
    outer loop
      vertex -26.58227 21.198653 23
      vertex -28.788623 18.089091 28.5
      vertex -28.788623 18.089091 23
    endloop
  endfacet
  facet normal 0 0 -1
    outer loop
      vertex 0 0 23
      vertex -28.788623 18.089091 23
      vertex -26.58227 21.198653 23
    endloop
  endfacet
  facet normal 0 0 1
    outer loop
      vertex 0 0 28.5
      vertex -26.58227 21.198653 28.5
      vertex -28.788623 18.089091 28.5
    endloop
  endfacet
  facet normal 0.875223 -0.483719 0
    outer loop
      vertex -28.788623 18.089091 23
      vertex -28.788623 18.089091 28.5
      vertex -30.632942 14.752047 28.5
    endloop
  endfacet
  facet normal 0.875223 -0.483719 0
    outer loop
      vertex -28.788623 18.089091 23
      vertex -30.632942 14.752047 28.5
      vertex -30.632942 14.752047 23
    endloop
  endfacet
  facet normal 0 0 -1
    outer loop
      vertex 0 0 23
      vertex -30.632942 14.752047 23
      vertex -28.788623 18.089091 23
    endloop
  endfacet
  facet normal 0 0 1
    outer loop
      vertex 0 0 28.5
      vertex -28.788623 18.089091 28.5
      vertex -30.632942 14.752047 28.5
    endloop
  endfacet
  facet normal 0.92388 -0.382683 0
    outer loop
      vertex -30.632942 14.752047 23
      vertex -30.632942 14.752047 28.5
      vertex -32.092033 11.229488 28.5
    endloop
  endfacet
  facet normal 0.92388 -0.382683 0
    outer loop
      vertex -30.632942 14.752047 23
      vertex -32.092033 11.229488 28.5
      vertex -32.092033 11.229488 23
    endloop
  endfacet
  facet normal 0 0 -1
    outer loop
      vertex 0 0 23
      vertex -32.092033 11.229488 23
      vertex -30.632942 14.752047 23
    endloop
  endfacet
  facet normal 0 0 1
    outer loop
      vertex 0 0 28.5
      vertex -30.632942 14.752047 28.5
      vertex -32.092033 11.229488 28.5
    endloop
  endfacet
  facet normal 0.960917 -0.276836 0
    outer loop
      vertex -32.092033 11.229488 23
      vertex -32.092033 11.229488 28.5
      vertex -33.147549 7.565712 28.5
    endloop
  endfacet
  facet normal 0.960917 -0.276836 0
    outer loop
      vertex -32.092033 11.229488 23
      vertex -33.147549 7.565712 28.5
      vertex -33.147549 7.565712 23
    endloop
  endfacet
  facet normal 0 0 -1
    outer loop
      vertex 0 0 23
      vertex -33.147549 7.565712 23
      vertex -32.092033 11.229488 23
    endloop
  endfacet
  facet normal 0 0 1
    outer loop
      vertex 0 0 28.5
      vertex -32.092033 11.229488 28.5
      vertex -33.147549 7.565712 28.5
    endloop
  endfacet
  facet normal 0.985871 -0.167506 0
    outer loop
      vertex -33.147549 7.565712 23
      vertex -33.147549 7.565712 28.5
      vertex -33.786215 3.806792 28.5
    endloop
  endfacet
  facet normal 0.985871 -0.167506 0
    outer loop
      vertex -33.147549 7.565712 23
      vertex -33.786215 3.806792 28.5
      vertex -33.786215 3.806792 23
    endloop
  endfacet
  facet normal 0 0 -1
    outer loop
      vertex 0 0 23
      vertex -33.786215 3.806792 23
      vertex -33.147549 7.565712 23
    endloop
  endfacet
  facet normal 0 0 1
    outer loop
      vertex 0 0 28.5
      vertex -33.147549 7.565712 28.5
      vertex -33.786215 3.806792 28.5
    endloop
  endfacet
  facet normal 0.998427 -0.05607 0
    outer loop
      vertex -33.786215 3.806792 23
      vertex -33.786215 3.806792 28.5
      vertex -34 0 28.5
    endloop
  endfacet
  facet normal 0.998427 -0.05607 0
    outer loop
      vertex -33.786215 3.806792 23
      vertex -34 0 28.5
      vertex -34 0 23
    endloop
  endfacet
  facet normal 0 0 -1
    outer loop
      vertex 0 0 23
      vertex -34 0 23
      vertex -33.786215 3.806792 23
    endloop
  endfacet
  facet normal 0 0 1
    outer loop
      vertex 0 0 28.5
      vertex -33.786215 3.806792 28.5
      vertex -34 0 28.5
    endloop
  endfacet
  facet normal 0.998427 0.05607 0
    outer loop
      vertex -34 0 23
      vertex -34 0 28.5
      vertex -33.786215 -3.806792 28.5
    endloop
  endfacet
  facet normal 0.998427 0.05607 0
    outer loop
      vertex -34 0 23
      vertex -33.786215 -3.806792 28.5
      vertex -33.786215 -3.806792 23
    endloop
  endfacet
  facet normal 0 0 -1
    outer loop
      vertex 0 0 23
      vertex -33.786215 -3.806792 23
      vertex -34 0 23
    endloop
  endfacet
  facet normal 0 0 1
    outer loop
      vertex 0 0 28.5
      vertex -34 0 28.5
      vertex -33.786215 -3.806792 28.5
    endloop
  endfacet
  facet normal 0.985871 0.167506 0
    outer loop
      vertex -33.786215 -3.806792 23
      vertex -33.786215 -3.806792 28.5
      vertex -33.147549 -7.565712 28.5
    endloop
  endfacet
  facet normal 0.985871 0.167506 0
    outer loop
      vertex -33.786215 -3.806792 23
      vertex -33.147549 -7.565712 28.5
      vertex -33.147549 -7.565712 23
    endloop
  endfacet
  facet normal 0 0 -1
    outer loop
      vertex 0 0 23
      vertex -33.147549 -7.565712 23
      vertex -33.786215 -3.806792 23
    endloop
  endfacet
  facet normal 0 0 1
    outer loop
      vertex 0 0 28.5
      vertex -33.786215 -3.806792 28.5
      vertex -33.147549 -7.565712 28.5
    endloop
  endfacet
  facet normal 0.960917 0.276836 0
    outer loop
      vertex -33.147549 -7.565712 23
      vertex -33.147549 -7.565712 28.5
      vertex -32.092033 -11.229488 28.5
    endloop
  endfacet
  facet normal 0.960917 0.276836 0
    outer loop
      vertex -33.147549 -7.565712 23
      vertex -32.092033 -11.229488 28.5
      vertex -32.092033 -11.229488 23
    endloop
  endfacet
  facet normal 0 0 -1
    outer loop
      vertex 0 0 23
      vertex -32.092033 -11.229488 23
      vertex -33.147549 -7.565712 23
    endloop
  endfacet
  facet normal 0 0 1
    outer loop
      vertex 0 0 28.5
      vertex -33.147549 -7.565712 28.5
      vertex -32.092033 -11.229488 28.5
    endloop
  endfacet
  facet normal 0.92388 0.382683 0
    outer loop
      vertex -32.092033 -11.229488 23
      vertex -32.092033 -11.229488 28.5
      vertex -30.632942 -14.752047 28.5
    endloop
  endfacet
  facet normal 0.92388 0.382683 0
    outer loop
      vertex -32.092033 -11.229488 23
      vertex -30.632942 -14.752047 28.5
      vertex -30.632942 -14.752047 23
    endloop
  endfacet
  facet normal 0 0 -1
    outer loop
      vertex 0 0 23
      vertex -30.632942 -14.752047 23
      vertex -32.092033 -11.229488 23
    endloop
  endfacet
  facet normal 0 0 1
    outer loop
      vertex 0 0 28.5
      vertex -32.092033 -11.229488 28.5
      vertex -30.632942 -14.752047 28.5
    endloop
  endfacet
  facet normal 0.875223 0.483719 0
    outer loop
      vertex -30.632942 -14.752047 23
      vertex -30.632942 -14.752047 28.5
      vertex -28.788623 -18.089091 28.5
    endloop
  endfacet
  facet normal 0.875223 0.483719 0
    outer loop
      vertex -30.632942 -14.752047 23
      vertex -28.788623 -18.089091 28.5
      vertex -28.788623 -18.089091 23
    endloop
  endfacet
  facet normal 0 0 -1
    outer loop
      vertex 0 0 23
      vertex -28.788623 -18.089091 23
      vertex -30.632942 -14.752047 23
    endloop
  endfacet
  facet normal 0 0 1
    outer loop
      vertex 0 0 28.5
      vertex -30.632942 -14.752047 28.5
      vertex -28.788623 -18.089091 28.5
    endloop
  endfacet
  facet normal 0.815561 0.578671 0
    outer loop
      vertex -28.788623 -18.089091 23
      vertex -28.788623 -18.089091 28.5
      vertex -26.58227 -21.198653 28.5
    endloop
  endfacet
  facet normal 0.815561 0.578671 0
    outer loop
      vertex -28.788623 -18.089091 23
      vertex -26.58227 -21.198653 28.5
      vertex -26.58227 -21.198653 23
    endloop
  endfacet
  facet normal 0 0 -1
    outer loop
      vertex 0 0 23
      vertex -26.58227 -21.198653 23
      vertex -28.788623 -18.089091 23
    endloop
  endfacet
  facet normal 0 0 1
    outer loop
      vertex 0 0 28.5
      vertex -28.788623 -18.089091 28.5
      vertex -26.58227 -21.198653 28.5
    endloop
  endfacet
  facet normal 0.745642 0.666347 0
    outer loop
      vertex -26.58227 -21.198653 23
      vertex -26.58227 -21.198653 28.5
      vertex -24.041631 -24.041631 28.5
    endloop
  endfacet
  facet normal 0.745642 0.666347 0
    outer loop
      vertex -26.58227 -21.198653 23
      vertex -24.041631 -24.041631 28.5
      vertex -24.041631 -24.041631 23
    endloop
  endfacet
  facet normal 0 0 -1
    outer loop
      vertex 0 0 23
      vertex -24.041631 -24.041631 23
      vertex -26.58227 -21.198653 23
    endloop
  endfacet
  facet normal 0 0 1
    outer loop
      vertex 0 0 28.5
      vertex -26.58227 -21.198653 28.5
      vertex -24.041631 -24.041631 28.5
    endloop
  endfacet
  facet normal 0.666347 0.745642 0
    outer loop
      vertex -24.041631 -24.041631 23
      vertex -24.041631 -24.041631 28.5
      vertex -21.198653 -26.58227 28.5
    endloop
  endfacet
  facet normal 0.666347 0.745642 0
    outer loop
      vertex -24.041631 -24.041631 23
      vertex -21.198653 -26.58227 28.5
      vertex -21.198653 -26.58227 23
    endloop
  endfacet
  facet normal 0 0 -1
    outer loop
      vertex 0 0 23
      vertex -21.198653 -26.58227 23
      vertex -24.041631 -24.041631 23
    endloop
  endfacet
  facet normal 0 0 1
    outer loop
      vertex 0 0 28.5
      vertex -24.041631 -24.041631 28.5
      vertex -21.198653 -26.58227 28.5
    endloop
  endfacet
  facet normal 0.578671 0.815561 0
    outer loop
      vertex -21.198653 -26.58227 23
      vertex -21.198653 -26.58227 28.5
      vertex -18.089091 -28.788623 28.5
    endloop
  endfacet
  facet normal 0.578671 0.815561 0
    outer loop
      vertex -21.198653 -26.58227 23
      vertex -18.089091 -28.788623 28.5
      vertex -18.089091 -28.788623 23
    endloop
  endfacet
  facet normal 0 0 -1
    outer loop
      vertex 0 0 23
      vertex -18.089091 -28.788623 23
      vertex -21.198653 -26.58227 23
    endloop
  endfacet
  facet normal 0 0 1
    outer loop
      vertex 0 0 28.5
      vertex -21.198653 -26.58227 28.5
      vertex -18.089091 -28.788623 28.5
    endloop
  endfacet
  facet normal 0.483719 0.875223 0
    outer loop
      vertex -18.089091 -28.788623 23
      vertex -18.089091 -28.788623 28.5
      vertex -14.752047 -30.632942 28.5
    endloop
  endfacet
  facet normal 0.483719 0.875223 0
    outer loop
      vertex -18.089091 -28.788623 23
      vertex -14.752047 -30.632942 28.5
      vertex -14.752047 -30.632942 23
    endloop
  endfacet
  facet normal 0 0 -1
    outer loop
      vertex 0 0 23
      vertex -14.752047 -30.632942 23
      vertex -18.089091 -28.788623 23
    endloop
  endfacet
  facet normal 0 0 1
    outer loop
      vertex 0 0 28.5
      vertex -18.089091 -28.788623 28.5
      vertex -14.752047 -30.632942 28.5
    endloop
  endfacet
  facet normal 0.382683 0.92388 0
    outer loop
      vertex -14.752047 -30.632942 23
      vertex -14.752047 -30.632942 28.5
      vertex -11.229488 -32.092033 28.5
    endloop
  endfacet
  facet normal 0.382683 0.92388 0
    outer loop
      vertex -14.752047 -30.632942 23
      vertex -11.229488 -32.092033 28.5
      vertex -11.229488 -32.092033 23
    endloop
  endfacet
  facet normal 0 0 -1
    outer loop
      vertex 0 0 23
      vertex -11.229488 -32.092033 23
      vertex -14.752047 -30.632942 23
    endloop
  endfacet
  facet normal 0 0 1
    outer loop
      vertex 0 0 28.5
      vertex -14.752047 -30.632942 28.5
      vertex -11.229488 -32.092033 28.5
    endloop
  endfacet
  facet normal 0.276836 0.960917 0
    outer loop
      vertex -11.229488 -32.092033 23
      vertex -11.229488 -32.092033 28.5
      vertex -7.565712 -33.147549 28.5
    endloop
  endfacet
  facet normal 0.276836 0.960917 0
    outer loop
      vertex -11.229488 -32.092033 23
      vertex -7.565712 -33.147549 28.5
      vertex -7.565712 -33.147549 23
    endloop
  endfacet
  facet normal 0 0 -1
    outer loop
      vertex 0 0 23
      vertex -7.565712 -33.147549 23
      vertex -11.229488 -32.092033 23
    endloop
  endfacet
  facet normal 0 0 1
    outer loop
      vertex 0 0 28.5
      vertex -11.229488 -32.092033 28.5
      vertex -7.565712 -33.147549 28.5
    endloop
  endfacet
  facet normal 0.167506 0.985871 0
    outer loop
      vertex -7.565712 -33.147549 23
      vertex -7.565712 -33.147549 28.5
      vertex -3.806792 -33.786215 28.5
    endloop
  endfacet
  facet normal 0.167506 0.985871 0
    outer loop
      vertex -7.565712 -33.147549 23
      vertex -3.806792 -33.786215 28.5
      vertex -3.806792 -33.786215 23
    endloop
  endfacet
  facet normal 0 0 -1
    outer loop
      vertex 0 0 23
      vertex -3.806792 -33.786215 23
      vertex -7.565712 -33.147549 23
    endloop
  endfacet
  facet normal 0 0 1
    outer loop
      vertex 0 0 28.5
      vertex -7.565712 -33.147549 28.5
      vertex -3.806792 -33.786215 28.5
    endloop
  endfacet
  facet normal 0.05607 0.998427 0
    outer loop
      vertex -3.806792 -33.786215 23
      vertex -3.806792 -33.786215 28.5
      vertex 0 -34 28.5
    endloop
  endfacet
  facet normal 0.05607 0.998427 0
    outer loop
      vertex -3.806792 -33.786215 23
      vertex 0 -34 28.5
      vertex 0 -34 23
    endloop
  endfacet
  facet normal 0 0 -1
    outer loop
      vertex 0 0 23
      vertex 0 -34 23
      vertex -3.806792 -33.786215 23
    endloop
  endfacet
  facet normal 0 0 1
    outer loop
      vertex 0 0 28.5
      vertex -3.806792 -33.786215 28.5
      vertex 0 -34 28.5
    endloop
  endfacet
  facet normal -0.05607 0.998427 0
    outer loop
      vertex 0 -34 23
      vertex 0 -34 28.5
      vertex 3.806792 -33.786215 28.5
    endloop
  endfacet
  facet normal -0.05607 0.998427 0
    outer loop
      vertex 0 -34 23
      vertex 3.806792 -33.786215 28.5
      vertex 3.806792 -33.786215 23
    endloop
  endfacet
  facet normal 0 0 -1
    outer loop
      vertex 0 0 23
      vertex 3.806792 -33.786215 23
      vertex 0 -34 23
    endloop
  endfacet
  facet normal 0 0 1
    outer loop
      vertex 0 0 28.5
      vertex 0 -34 28.5
      vertex 3.806792 -33.786215 28.5
    endloop
  endfacet
  facet normal -0.167506 0.985871 0
    outer loop
      vertex 3.806792 -33.786215 23
      vertex 3.806792 -33.786215 28.5
      vertex 7.565712 -33.147549 28.5
    endloop
  endfacet
  facet normal -0.167506 0.985871 0
    outer loop
      vertex 3.806792 -33.786215 23
      vertex 7.565712 -33.147549 28.5
      vertex 7.565712 -33.147549 23
    endloop
  endfacet
  facet normal 0 0 -1
    outer loop
      vertex 0 0 23
      vertex 7.565712 -33.147549 23
      vertex 3.806792 -33.786215 23
    endloop
  endfacet
  facet normal 0 0 1
    outer loop
      vertex 0 0 28.5
      vertex 3.806792 -33.786215 28.5
      vertex 7.565712 -33.147549 28.5
    endloop
  endfacet
  facet normal -0.276836 0.960917 0
    outer loop
      vertex 7.565712 -33.147549 23
      vertex 7.565712 -33.147549 28.5
      vertex 11.229488 -32.092033 28.5
    endloop
  endfacet
  facet normal -0.276836 0.960917 0
    outer loop
      vertex 7.565712 -33.147549 23
      vertex 11.229488 -32.092033 28.5
      vertex 11.229488 -32.092033 23
    endloop
  endfacet
  facet normal 0 0 -1
    outer loop
      vertex 0 0 23
      vertex 11.229488 -32.092033 23
      vertex 7.565712 -33.147549 23
    endloop
  endfacet
  facet normal 0 0 1
    outer loop
      vertex 0 0 28.5
      vertex 7.565712 -33.147549 28.5
      vertex 11.229488 -32.092033 28.5
    endloop
  endfacet
  facet normal -0.382683 0.92388 0
    outer loop
      vertex 11.229488 -32.092033 23
      vertex 11.229488 -32.092033 28.5
      vertex 14.752047 -30.632942 28.5
    endloop
  endfacet
  facet normal -0.382683 0.92388 0
    outer loop
      vertex 11.229488 -32.092033 23
      vertex 14.752047 -30.632942 28.5
      vertex 14.752047 -30.632942 23
    endloop
  endfacet
  facet normal 0 0 -1
    outer loop
      vertex 0 0 23
      vertex 14.752047 -30.632942 23
      vertex 11.229488 -32.092033 23
    endloop
  endfacet
  facet normal 0 0 1
    outer loop
      vertex 0 0 28.5
      vertex 11.229488 -32.092033 28.5
      vertex 14.752047 -30.632942 28.5
    endloop
  endfacet
  facet normal -0.483719 0.875223 0
    outer loop
      vertex 14.752047 -30.632942 23
      vertex 14.752047 -30.632942 28.5
      vertex 18.089091 -28.788623 28.5
    endloop
  endfacet
  facet normal -0.483719 0.875223 0
    outer loop
      vertex 14.752047 -30.632942 23
      vertex 18.089091 -28.788623 28.5
      vertex 18.089091 -28.788623 23
    endloop
  endfacet
  facet normal 0 0 -1
    outer loop
      vertex 0 0 23
      vertex 18.089091 -28.788623 23
      vertex 14.752047 -30.632942 23
    endloop
  endfacet
  facet normal 0 0 1
    outer loop
      vertex 0 0 28.5
      vertex 14.752047 -30.632942 28.5
      vertex 18.089091 -28.788623 28.5
    endloop
  endfacet
  facet normal -0.578671 0.815561 0
    outer loop
      vertex 18.089091 -28.788623 23
      vertex 18.089091 -28.788623 28.5
      vertex 21.198653 -26.58227 28.5
    endloop
  endfacet
  facet normal -0.578671 0.815561 0
    outer loop
      vertex 18.089091 -28.788623 23
      vertex 21.198653 -26.58227 28.5
      vertex 21.198653 -26.58227 23
    endloop
  endfacet
  facet normal 0 0 -1
    outer loop
      vertex 0 0 23
      vertex 21.198653 -26.58227 23
      vertex 18.089091 -28.788623 23
    endloop
  endfacet
  facet normal 0 0 1
    outer loop
      vertex 0 0 28.5
      vertex 18.089091 -28.788623 28.5
      vertex 21.198653 -26.58227 28.5
    endloop
  endfacet
  facet normal -0.666347 0.745642 0
    outer loop
      vertex 21.198653 -26.58227 23
      vertex 21.198653 -26.58227 28.5
      vertex 24.041631 -24.041631 28.5
    endloop
  endfacet
  facet normal -0.666347 0.745642 0
    outer loop
      vertex 21.198653 -26.58227 23
      vertex 24.041631 -24.041631 28.5
      vertex 24.041631 -24.041631 23
    endloop
  endfacet
  facet normal 0 0 -1
    outer loop
      vertex 0 0 23
      vertex 24.041631 -24.041631 23
      vertex 21.198653 -26.58227 23
    endloop
  endfacet
  facet normal 0 0 1
    outer loop
      vertex 0 0 28.5
      vertex 21.198653 -26.58227 28.5
      vertex 24.041631 -24.041631 28.5
    endloop
  endfacet
  facet normal -0.745642 0.666347 0
    outer loop
      vertex 24.041631 -24.041631 23
      vertex 24.041631 -24.041631 28.5
      vertex 26.58227 -21.198653 28.5
    endloop
  endfacet
  facet normal -0.745642 0.666347 0
    outer loop
      vertex 24.041631 -24.041631 23
      vertex 26.58227 -21.198653 28.5
      vertex 26.58227 -21.198653 23
    endloop
  endfacet
  facet normal 0 0 -1
    outer loop
      vertex 0 0 23
      vertex 26.58227 -21.198653 23
      vertex 24.041631 -24.041631 23
    endloop
  endfacet
  facet normal 0 0 1
    outer loop
      vertex 0 0 28.5
      vertex 24.041631 -24.041631 28.5
      vertex 26.58227 -21.198653 28.5
    endloop
  endfacet
  facet normal -0.815561 0.578671 0
    outer loop
      vertex 26.58227 -21.198653 23
      vertex 26.58227 -21.198653 28.5
      vertex 28.788623 -18.089091 28.5
    endloop
  endfacet
  facet normal -0.815561 0.578671 0
    outer loop
      vertex 26.58227 -21.198653 23
      vertex 28.788623 -18.089091 28.5
      vertex 28.788623 -18.089091 23
    endloop
  endfacet
  facet normal 0 0 -1
    outer loop
      vertex 0 0 23
      vertex 28.788623 -18.089091 23
      vertex 26.58227 -21.198653 23
    endloop
  endfacet
  facet normal 0 0 1
    outer loop
      vertex 0 0 28.5
      vertex 26.58227 -21.198653 28.5
      vertex 28.788623 -18.089091 28.5
    endloop
  endfacet
  facet normal -0.875223 0.483719 0
    outer loop
      vertex 28.788623 -18.089091 23
      vertex 28.788623 -18.089091 28.5
      vertex 30.632942 -14.752047 28.5
    endloop
  endfacet
  facet normal -0.875223 0.483719 0
    outer loop
      vertex 28.788623 -18.089091 23
      vertex 30.632942 -14.752047 28.5
      vertex 30.632942 -14.752047 23
    endloop
  endfacet
  facet normal 0 0 -1
    outer loop
      vertex 0 0 23
      vertex 30.632942 -14.752047 23
      vertex 28.788623 -18.089091 23
    endloop
  endfacet
  facet normal 0 0 1
    outer loop
      vertex 0 0 28.5
      vertex 28.788623 -18.089091 28.5
      vertex 30.632942 -14.752047 28.5
    endloop
  endfacet
  facet normal -0.92388 0.382683 0
    outer loop
      vertex 30.632942 -14.752047 23
      vertex 30.632942 -14.752047 28.5
      vertex 32.092033 -11.229488 28.5
    endloop
  endfacet
  facet normal -0.92388 0.382683 0
    outer loop
      vertex 30.632942 -14.752047 23
      vertex 32.092033 -11.229488 28.5
      vertex 32.092033 -11.229488 23
    endloop
  endfacet
  facet normal 0 0 -1
    outer loop
      vertex 0 0 23
      vertex 32.092033 -11.229488 23
      vertex 30.632942 -14.752047 23
    endloop
  endfacet
  facet normal 0 0 1
    outer loop
      vertex 0 0 28.5
      vertex 30.632942 -14.752047 28.5
      vertex 32.092033 -11.229488 28.5
    endloop
  endfacet
  facet normal -0.960917 0.276836 0
    outer loop
      vertex 32.092033 -11.229488 23
      vertex 32.092033 -11.229488 28.5
      vertex 33.147549 -7.565712 28.5
    endloop
  endfacet
  facet normal -0.960917 0.276836 0
    outer loop
      vertex 32.092033 -11.229488 23
      vertex 33.147549 -7.565712 28.5
      vertex 33.147549 -7.565712 23
    endloop
  endfacet
  facet normal 0 0 -1
    outer loop
      vertex 0 0 23
      vertex 33.147549 -7.565712 23
      vertex 32.092033 -11.229488 23
    endloop
  endfacet
  facet normal 0 0 1
    outer loop
      vertex 0 0 28.5
      vertex 32.092033 -11.229488 28.5
      vertex 33.147549 -7.565712 28.5
    endloop
  endfacet
  facet normal -0.985871 0.167506 0
    outer loop
      vertex 33.147549 -7.565712 23
      vertex 33.147549 -7.565712 28.5
      vertex 33.786215 -3.806792 28.5
    endloop
  endfacet
  facet normal -0.985871 0.167506 0
    outer loop
      vertex 33.147549 -7.565712 23
      vertex 33.786215 -3.806792 28.5
      vertex 33.786215 -3.806792 23
    endloop
  endfacet
  facet normal 0 0 -1
    outer loop
      vertex 0 0 23
      vertex 33.786215 -3.806792 23
      vertex 33.147549 -7.565712 23
    endloop
  endfacet
  facet normal 0 0 1
    outer loop
      vertex 0 0 28.5
      vertex 33.147549 -7.565712 28.5
      vertex 33.786215 -3.806792 28.5
    endloop
  endfacet
  facet normal -0.998427 0.05607 0
    outer loop
      vertex 33.786215 -3.806792 23
      vertex 33.786215 -3.806792 28.5
      vertex 34 0 28.5
    endloop
  endfacet
  facet normal -0.998427 0.05607 0
    outer loop
      vertex 33.786215 -3.806792 23
      vertex 34 0 28.5
      vertex 34 0 23
    endloop
  endfacet
  facet normal 0 0 -1
    outer loop
      vertex 0 0 23
      vertex 34 0 23
      vertex 33.786215 -3.806792 23
    endloop
  endfacet
  facet normal 0 0 1
    outer loop
      vertex 0 0 28.5
      vertex 33.786215 -3.806792 28.5
      vertex 34 0 28.5
    endloop
  endfacet
  facet normal -0.996917 -0.078459 0
    outer loop
      vertex 11.5 0 28.5
      vertex 11.5 0 30.9
      vertex 11.358416 1.798996 30.9
    endloop
  endfacet
  facet normal -0.996917 -0.078459 0
    outer loop
      vertex 11.5 0 28.5
      vertex 11.358416 1.798996 30.9
      vertex 11.358416 1.798996 28.5
    endloop
  endfacet
  facet normal 0 0 -1
    outer loop
      vertex 0 0 28.5
      vertex 11.358416 1.798996 28.5
      vertex 11.5 0 28.5
    endloop
  endfacet
  facet normal 0 0 1
    outer loop
      vertex 0 0 30.9
      vertex 11.5 0 30.9
      vertex 11.358416 1.798996 30.9
    endloop
  endfacet
  facet normal -0.97237 -0.233445 0
    outer loop
      vertex 11.358416 1.798996 28.5
      vertex 11.358416 1.798996 30.9
      vertex 10.93715 3.553695 30.9
    endloop
  endfacet
  facet normal -0.97237 -0.233445 0
    outer loop
      vertex 11.358416 1.798996 28.5
      vertex 10.93715 3.553695 30.9
      vertex 10.93715 3.553695 28.5
    endloop
  endfacet
  facet normal 0 0 -1
    outer loop
      vertex 0 0 28.5
      vertex 10.93715 3.553695 28.5
      vertex 11.358416 1.798996 28.5
    endloop
  endfacet
  facet normal 0 0 1
    outer loop
      vertex 0 0 30.9
      vertex 11.358416 1.798996 30.9
      vertex 10.93715 3.553695 30.9
    endloop
  endfacet
  facet normal -0.92388 -0.382683 0
    outer loop
      vertex 10.93715 3.553695 28.5
      vertex 10.93715 3.553695 30.9
      vertex 10.246575 5.220891 30.9
    endloop
  endfacet
  facet normal -0.92388 -0.382683 0
    outer loop
      vertex 10.93715 3.553695 28.5
      vertex 10.246575 5.220891 30.9
      vertex 10.246575 5.220891 28.5
    endloop
  endfacet
  facet normal 0 0 -1
    outer loop
      vertex 0 0 28.5
      vertex 10.246575 5.220891 28.5
      vertex 10.93715 3.553695 28.5
    endloop
  endfacet
  facet normal 0 0 1
    outer loop
      vertex 0 0 30.9
      vertex 10.93715 3.553695 30.9
      vertex 10.246575 5.220891 30.9
    endloop
  endfacet
  facet normal -0.85264 -0.522499 0
    outer loop
      vertex 10.246575 5.220891 28.5
      vertex 10.246575 5.220891 30.9
      vertex 9.303695 6.75953 30.9
    endloop
  endfacet
  facet normal -0.85264 -0.522499 0
    outer loop
      vertex 10.246575 5.220891 28.5
      vertex 9.303695 6.75953 30.9
      vertex 9.303695 6.75953 28.5
    endloop
  endfacet
  facet normal 0 0 -1
    outer loop
      vertex 0 0 28.5
      vertex 9.303695 6.75953 28.5
      vertex 10.246575 5.220891 28.5
    endloop
  endfacet
  facet normal 0 0 1
    outer loop
      vertex 0 0 30.9
      vertex 10.246575 5.220891 30.9
      vertex 9.303695 6.75953 30.9
    endloop
  endfacet
  facet normal -0.760406 -0.649448 0
    outer loop
      vertex 9.303695 6.75953 28.5
      vertex 9.303695 6.75953 30.9
      vertex 8.131728 8.131728 30.9
    endloop
  endfacet
  facet normal -0.760406 -0.649448 0
    outer loop
      vertex 9.303695 6.75953 28.5
      vertex 8.131728 8.131728 30.9
      vertex 8.131728 8.131728 28.5
    endloop
  endfacet
  facet normal 0 0 -1
    outer loop
      vertex 0 0 28.5
      vertex 8.131728 8.131728 28.5
      vertex 9.303695 6.75953 28.5
    endloop
  endfacet
  facet normal 0 0 1
    outer loop
      vertex 0 0 30.9
      vertex 9.303695 6.75953 30.9
      vertex 8.131728 8.131728 30.9
    endloop
  endfacet
  facet normal -0.649448 -0.760406 0
    outer loop
      vertex 8.131728 8.131728 28.5
      vertex 8.131728 8.131728 30.9
      vertex 6.75953 9.303695 30.9
    endloop
  endfacet
  facet normal -0.649448 -0.760406 0
    outer loop
      vertex 8.131728 8.131728 28.5
      vertex 6.75953 9.303695 30.9
      vertex 6.75953 9.303695 28.5
    endloop
  endfacet
  facet normal 0 0 -1
    outer loop
      vertex 0 0 28.5
      vertex 6.75953 9.303695 28.5
      vertex 8.131728 8.131728 28.5
    endloop
  endfacet
  facet normal 0 0 1
    outer loop
      vertex 0 0 30.9
      vertex 8.131728 8.131728 30.9
      vertex 6.75953 9.303695 30.9
    endloop
  endfacet
  facet normal -0.522499 -0.85264 0
    outer loop
      vertex 6.75953 9.303695 28.5
      vertex 6.75953 9.303695 30.9
      vertex 5.220891 10.246575 30.9
    endloop
  endfacet
  facet normal -0.522499 -0.85264 0
    outer loop
      vertex 6.75953 9.303695 28.5
      vertex 5.220891 10.246575 30.9
      vertex 5.220891 10.246575 28.5
    endloop
  endfacet
  facet normal 0 0 -1
    outer loop
      vertex 0 0 28.5
      vertex 5.220891 10.246575 28.5
      vertex 6.75953 9.303695 28.5
    endloop
  endfacet
  facet normal 0 0 1
    outer loop
      vertex 0 0 30.9
      vertex 6.75953 9.303695 30.9
      vertex 5.220891 10.246575 30.9
    endloop
  endfacet
  facet normal -0.382683 -0.92388 0
    outer loop
      vertex 5.220891 10.246575 28.5
      vertex 5.220891 10.246575 30.9
      vertex 3.553695 10.93715 30.9
    endloop
  endfacet
  facet normal -0.382683 -0.92388 0
    outer loop
      vertex 5.220891 10.246575 28.5
      vertex 3.553695 10.93715 30.9
      vertex 3.553695 10.93715 28.5
    endloop
  endfacet
  facet normal 0 0 -1
    outer loop
      vertex 0 0 28.5
      vertex 3.553695 10.93715 28.5
      vertex 5.220891 10.246575 28.5
    endloop
  endfacet
  facet normal 0 0 1
    outer loop
      vertex 0 0 30.9
      vertex 5.220891 10.246575 30.9
      vertex 3.553695 10.93715 30.9
    endloop
  endfacet
  facet normal -0.233445 -0.97237 0
    outer loop
      vertex 3.553695 10.93715 28.5
      vertex 3.553695 10.93715 30.9
      vertex 1.798996 11.358416 30.9
    endloop
  endfacet
  facet normal -0.233445 -0.97237 0
    outer loop
      vertex 3.553695 10.93715 28.5
      vertex 1.798996 11.358416 30.9
      vertex 1.798996 11.358416 28.5
    endloop
  endfacet
  facet normal 0 0 -1
    outer loop
      vertex 0 0 28.5
      vertex 1.798996 11.358416 28.5
      vertex 3.553695 10.93715 28.5
    endloop
  endfacet
  facet normal 0 0 1
    outer loop
      vertex 0 0 30.9
      vertex 3.553695 10.93715 30.9
      vertex 1.798996 11.358416 30.9
    endloop
  endfacet
  facet normal -0.078459 -0.996917 0
    outer loop
      vertex 1.798996 11.358416 28.5
      vertex 1.798996 11.358416 30.9
      vertex 0 11.5 30.9
    endloop
  endfacet
  facet normal -0.078459 -0.996917 0
    outer loop
      vertex 1.798996 11.358416 28.5
      vertex 0 11.5 30.9
      vertex 0 11.5 28.5
    endloop
  endfacet
  facet normal 0 0 -1
    outer loop
      vertex 0 0 28.5
      vertex 0 11.5 28.5
      vertex 1.798996 11.358416 28.5
    endloop
  endfacet
  facet normal 0 0 1
    outer loop
      vertex 0 0 30.9
      vertex 1.798996 11.358416 30.9
      vertex 0 11.5 30.9
    endloop
  endfacet
  facet normal 0.078459 -0.996917 0
    outer loop
      vertex 0 11.5 28.5
      vertex 0 11.5 30.9
      vertex -1.798996 11.358416 30.9
    endloop
  endfacet
  facet normal 0.078459 -0.996917 0
    outer loop
      vertex 0 11.5 28.5
      vertex -1.798996 11.358416 30.9
      vertex -1.798996 11.358416 28.5
    endloop
  endfacet
  facet normal 0 0 -1
    outer loop
      vertex 0 0 28.5
      vertex -1.798996 11.358416 28.5
      vertex 0 11.5 28.5
    endloop
  endfacet
  facet normal 0 0 1
    outer loop
      vertex 0 0 30.9
      vertex 0 11.5 30.9
      vertex -1.798996 11.358416 30.9
    endloop
  endfacet
  facet normal 0.233445 -0.97237 0
    outer loop
      vertex -1.798996 11.358416 28.5
      vertex -1.798996 11.358416 30.9
      vertex -3.553695 10.93715 30.9
    endloop
  endfacet
  facet normal 0.233445 -0.97237 0
    outer loop
      vertex -1.798996 11.358416 28.5
      vertex -3.553695 10.93715 30.9
      vertex -3.553695 10.93715 28.5
    endloop
  endfacet
  facet normal 0 0 -1
    outer loop
      vertex 0 0 28.5
      vertex -3.553695 10.93715 28.5
      vertex -1.798996 11.358416 28.5
    endloop
  endfacet
  facet normal 0 0 1
    outer loop
      vertex 0 0 30.9
      vertex -1.798996 11.358416 30.9
      vertex -3.553695 10.93715 30.9
    endloop
  endfacet
  facet normal 0.382683 -0.92388 0
    outer loop
      vertex -3.553695 10.93715 28.5
      vertex -3.553695 10.93715 30.9
      vertex -5.220891 10.246575 30.9
    endloop
  endfacet
  facet normal 0.382683 -0.92388 0
    outer loop
      vertex -3.553695 10.93715 28.5
      vertex -5.220891 10.246575 30.9
      vertex -5.220891 10.246575 28.5
    endloop
  endfacet
  facet normal 0 0 -1
    outer loop
      vertex 0 0 28.5
      vertex -5.220891 10.246575 28.5
      vertex -3.553695 10.93715 28.5
    endloop
  endfacet
  facet normal 0 0 1
    outer loop
      vertex 0 0 30.9
      vertex -3.553695 10.93715 30.9
      vertex -5.220891 10.246575 30.9
    endloop
  endfacet
  facet normal 0.522499 -0.85264 0
    outer loop
      vertex -5.220891 10.246575 28.5
      vertex -5.220891 10.246575 30.9
      vertex -6.75953 9.303695 30.9
    endloop
  endfacet
  facet normal 0.522499 -0.85264 0
    outer loop
      vertex -5.220891 10.246575 28.5
      vertex -6.75953 9.303695 30.9
      vertex -6.75953 9.303695 28.5
    endloop
  endfacet
  facet normal 0 0 -1
    outer loop
      vertex 0 0 28.5
      vertex -6.75953 9.303695 28.5
      vertex -5.220891 10.246575 28.5
    endloop
  endfacet
  facet normal 0 0 1
    outer loop
      vertex 0 0 30.9
      vertex -5.220891 10.246575 30.9
      vertex -6.75953 9.303695 30.9
    endloop
  endfacet
  facet normal 0.649448 -0.760406 0
    outer loop
      vertex -6.75953 9.303695 28.5
      vertex -6.75953 9.303695 30.9
      vertex -8.131728 8.131728 30.9
    endloop
  endfacet
  facet normal 0.649448 -0.760406 0
    outer loop
      vertex -6.75953 9.303695 28.5
      vertex -8.131728 8.131728 30.9
      vertex -8.131728 8.131728 28.5
    endloop
  endfacet
  facet normal 0 0 -1
    outer loop
      vertex 0 0 28.5
      vertex -8.131728 8.131728 28.5
      vertex -6.75953 9.303695 28.5
    endloop
  endfacet
  facet normal 0 0 1
    outer loop
      vertex 0 0 30.9
      vertex -6.75953 9.303695 30.9
      vertex -8.131728 8.131728 30.9
    endloop
  endfacet
  facet normal 0.760406 -0.649448 0
    outer loop
      vertex -8.131728 8.131728 28.5
      vertex -8.131728 8.131728 30.9
      vertex -9.303695 6.75953 30.9
    endloop
  endfacet
  facet normal 0.760406 -0.649448 0
    outer loop
      vertex -8.131728 8.131728 28.5
      vertex -9.303695 6.75953 30.9
      vertex -9.303695 6.75953 28.5
    endloop
  endfacet
  facet normal 0 0 -1
    outer loop
      vertex 0 0 28.5
      vertex -9.303695 6.75953 28.5
      vertex -8.131728 8.131728 28.5
    endloop
  endfacet
  facet normal 0 0 1
    outer loop
      vertex 0 0 30.9
      vertex -8.131728 8.131728 30.9
      vertex -9.303695 6.75953 30.9
    endloop
  endfacet
  facet normal 0.85264 -0.522499 0
    outer loop
      vertex -9.303695 6.75953 28.5
      vertex -9.303695 6.75953 30.9
      vertex -10.246575 5.220891 30.9
    endloop
  endfacet
  facet normal 0.85264 -0.522499 0
    outer loop
      vertex -9.303695 6.75953 28.5
      vertex -10.246575 5.220891 30.9
      vertex -10.246575 5.220891 28.5
    endloop
  endfacet
  facet normal 0 0 -1
    outer loop
      vertex 0 0 28.5
      vertex -10.246575 5.220891 28.5
      vertex -9.303695 6.75953 28.5
    endloop
  endfacet
  facet normal 0 0 1
    outer loop
      vertex 0 0 30.9
      vertex -9.303695 6.75953 30.9
      vertex -10.246575 5.220891 30.9
    endloop
  endfacet
  facet normal 0.92388 -0.382683 0
    outer loop
      vertex -10.246575 5.220891 28.5
      vertex -10.246575 5.220891 30.9
      vertex -10.93715 3.553695 30.9
    endloop
  endfacet
  facet normal 0.92388 -0.382683 0
    outer loop
      vertex -10.246575 5.220891 28.5
      vertex -10.93715 3.553695 30.9
      vertex -10.93715 3.553695 28.5
    endloop
  endfacet
  facet normal 0 0 -1
    outer loop
      vertex 0 0 28.5
      vertex -10.93715 3.553695 28.5
      vertex -10.246575 5.220891 28.5
    endloop
  endfacet
  facet normal 0 0 1
    outer loop
      vertex 0 0 30.9
      vertex -10.246575 5.220891 30.9
      vertex -10.93715 3.553695 30.9
    endloop
  endfacet
  facet normal 0.97237 -0.233445 0
    outer loop
      vertex -10.93715 3.553695 28.5
      vertex -10.93715 3.553695 30.9
      vertex -11.358416 1.798996 30.9
    endloop
  endfacet
  facet normal 0.97237 -0.233445 0
    outer loop
      vertex -10.93715 3.553695 28.5
      vertex -11.358416 1.798996 30.9
      vertex -11.358416 1.798996 28.5
    endloop
  endfacet
  facet normal 0 0 -1
    outer loop
      vertex 0 0 28.5
      vertex -11.358416 1.798996 28.5
      vertex -10.93715 3.553695 28.5
    endloop
  endfacet
  facet normal 0 0 1
    outer loop
      vertex 0 0 30.9
      vertex -10.93715 3.553695 30.9
      vertex -11.358416 1.798996 30.9
    endloop
  endfacet
  facet normal 0.996917 -0.078459 0
    outer loop
      vertex -11.358416 1.798996 28.5
      vertex -11.358416 1.798996 30.9
      vertex -11.5 0 30.9
    endloop
  endfacet
  facet normal 0.996917 -0.078459 0
    outer loop
      vertex -11.358416 1.798996 28.5
      vertex -11.5 0 30.9
      vertex -11.5 0 28.5
    endloop
  endfacet
  facet normal 0 0 -1
    outer loop
      vertex 0 0 28.5
      vertex -11.5 0 28.5
      vertex -11.358416 1.798996 28.5
    endloop
  endfacet
  facet normal 0 0 1
    outer loop
      vertex 0 0 30.9
      vertex -11.358416 1.798996 30.9
      vertex -11.5 0 30.9
    endloop
  endfacet
  facet normal 0.996917 0.078459 0
    outer loop
      vertex -11.5 0 28.5
      vertex -11.5 0 30.9
      vertex -11.358416 -1.798996 30.9
    endloop
  endfacet
  facet normal 0.996917 0.078459 0
    outer loop
      vertex -11.5 0 28.5
      vertex -11.358416 -1.798996 30.9
      vertex -11.358416 -1.798996 28.5
    endloop
  endfacet
  facet normal 0 0 -1
    outer loop
      vertex 0 0 28.5
      vertex -11.358416 -1.798996 28.5
      vertex -11.5 0 28.5
    endloop
  endfacet
  facet normal 0 0 1
    outer loop
      vertex 0 0 30.9
      vertex -11.5 0 30.9
      vertex -11.358416 -1.798996 30.9
    endloop
  endfacet
  facet normal 0.97237 0.233445 0
    outer loop
      vertex -11.358416 -1.798996 28.5
      vertex -11.358416 -1.798996 30.9
      vertex -10.93715 -3.553695 30.9
    endloop
  endfacet
  facet normal 0.97237 0.233445 0
    outer loop
      vertex -11.358416 -1.798996 28.5
      vertex -10.93715 -3.553695 30.9
      vertex -10.93715 -3.553695 28.5
    endloop
  endfacet
  facet normal 0 0 -1
    outer loop
      vertex 0 0 28.5
      vertex -10.93715 -3.553695 28.5
      vertex -11.358416 -1.798996 28.5
    endloop
  endfacet
  facet normal 0 0 1
    outer loop
      vertex 0 0 30.9
      vertex -11.358416 -1.798996 30.9
      vertex -10.93715 -3.553695 30.9
    endloop
  endfacet
  facet normal 0.92388 0.382683 0
    outer loop
      vertex -10.93715 -3.553695 28.5
      vertex -10.93715 -3.553695 30.9
      vertex -10.246575 -5.220891 30.9
    endloop
  endfacet
  facet normal 0.92388 0.382683 0
    outer loop
      vertex -10.93715 -3.553695 28.5
      vertex -10.246575 -5.220891 30.9
      vertex -10.246575 -5.220891 28.5
    endloop
  endfacet
  facet normal 0 0 -1
    outer loop
      vertex 0 0 28.5
      vertex -10.246575 -5.220891 28.5
      vertex -10.93715 -3.553695 28.5
    endloop
  endfacet
  facet normal 0 0 1
    outer loop
      vertex 0 0 30.9
      vertex -10.93715 -3.553695 30.9
      vertex -10.246575 -5.220891 30.9
    endloop
  endfacet
  facet normal 0.85264 0.522499 0
    outer loop
      vertex -10.246575 -5.220891 28.5
      vertex -10.246575 -5.220891 30.9
      vertex -9.303695 -6.75953 30.9
    endloop
  endfacet
  facet normal 0.85264 0.522499 0
    outer loop
      vertex -10.246575 -5.220891 28.5
      vertex -9.303695 -6.75953 30.9
      vertex -9.303695 -6.75953 28.5
    endloop
  endfacet
  facet normal 0 0 -1
    outer loop
      vertex 0 0 28.5
      vertex -9.303695 -6.75953 28.5
      vertex -10.246575 -5.220891 28.5
    endloop
  endfacet
  facet normal 0 0 1
    outer loop
      vertex 0 0 30.9
      vertex -10.246575 -5.220891 30.9
      vertex -9.303695 -6.75953 30.9
    endloop
  endfacet
  facet normal 0.760406 0.649448 0
    outer loop
      vertex -9.303695 -6.75953 28.5
      vertex -9.303695 -6.75953 30.9
      vertex -8.131728 -8.131728 30.9
    endloop
  endfacet
  facet normal 0.760406 0.649448 0
    outer loop
      vertex -9.303695 -6.75953 28.5
      vertex -8.131728 -8.131728 30.9
      vertex -8.131728 -8.131728 28.5
    endloop
  endfacet
  facet normal 0 0 -1
    outer loop
      vertex 0 0 28.5
      vertex -8.131728 -8.131728 28.5
      vertex -9.303695 -6.75953 28.5
    endloop
  endfacet
  facet normal 0 0 1
    outer loop
      vertex 0 0 30.9
      vertex -9.303695 -6.75953 30.9
      vertex -8.131728 -8.131728 30.9
    endloop
  endfacet
  facet normal 0.649448 0.760406 0
    outer loop
      vertex -8.131728 -8.131728 28.5
      vertex -8.131728 -8.131728 30.9
      vertex -6.75953 -9.303695 30.9
    endloop
  endfacet
  facet normal 0.649448 0.760406 0
    outer loop
      vertex -8.131728 -8.131728 28.5
      vertex -6.75953 -9.303695 30.9
      vertex -6.75953 -9.303695 28.5
    endloop
  endfacet
  facet normal 0 0 -1
    outer loop
      vertex 0 0 28.5
      vertex -6.75953 -9.303695 28.5
      vertex -8.131728 -8.131728 28.5
    endloop
  endfacet
  facet normal 0 0 1
    outer loop
      vertex 0 0 30.9
      vertex -8.131728 -8.131728 30.9
      vertex -6.75953 -9.303695 30.9
    endloop
  endfacet
  facet normal 0.522499 0.85264 0
    outer loop
      vertex -6.75953 -9.303695 28.5
      vertex -6.75953 -9.303695 30.9
      vertex -5.220891 -10.246575 30.9
    endloop
  endfacet
  facet normal 0.522499 0.85264 0
    outer loop
      vertex -6.75953 -9.303695 28.5
      vertex -5.220891 -10.246575 30.9
      vertex -5.220891 -10.246575 28.5
    endloop
  endfacet
  facet normal 0 0 -1
    outer loop
      vertex 0 0 28.5
      vertex -5.220891 -10.246575 28.5
      vertex -6.75953 -9.303695 28.5
    endloop
  endfacet
  facet normal 0 0 1
    outer loop
      vertex 0 0 30.9
      vertex -6.75953 -9.303695 30.9
      vertex -5.220891 -10.246575 30.9
    endloop
  endfacet
  facet normal 0.382683 0.92388 0
    outer loop
      vertex -5.220891 -10.246575 28.5
      vertex -5.220891 -10.246575 30.9
      vertex -3.553695 -10.93715 30.9
    endloop
  endfacet
  facet normal 0.382683 0.92388 0
    outer loop
      vertex -5.220891 -10.246575 28.5
      vertex -3.553695 -10.93715 30.9
      vertex -3.553695 -10.93715 28.5
    endloop
  endfacet
  facet normal 0 0 -1
    outer loop
      vertex 0 0 28.5
      vertex -3.553695 -10.93715 28.5
      vertex -5.220891 -10.246575 28.5
    endloop
  endfacet
  facet normal 0 0 1
    outer loop
      vertex 0 0 30.9
      vertex -5.220891 -10.246575 30.9
      vertex -3.553695 -10.93715 30.9
    endloop
  endfacet
  facet normal 0.233445 0.97237 0
    outer loop
      vertex -3.553695 -10.93715 28.5
      vertex -3.553695 -10.93715 30.9
      vertex -1.798996 -11.358416 30.9
    endloop
  endfacet
  facet normal 0.233445 0.97237 0
    outer loop
      vertex -3.553695 -10.93715 28.5
      vertex -1.798996 -11.358416 30.9
      vertex -1.798996 -11.358416 28.5
    endloop
  endfacet
  facet normal 0 0 -1
    outer loop
      vertex 0 0 28.5
      vertex -1.798996 -11.358416 28.5
      vertex -3.553695 -10.93715 28.5
    endloop
  endfacet
  facet normal 0 0 1
    outer loop
      vertex 0 0 30.9
      vertex -3.553695 -10.93715 30.9
      vertex -1.798996 -11.358416 30.9
    endloop
  endfacet
  facet normal 0.078459 0.996917 0
    outer loop
      vertex -1.798996 -11.358416 28.5
      vertex -1.798996 -11.358416 30.9
      vertex 0 -11.5 30.9
    endloop
  endfacet
  facet normal 0.078459 0.996917 0
    outer loop
      vertex -1.798996 -11.358416 28.5
      vertex 0 -11.5 30.9
      vertex 0 -11.5 28.5
    endloop
  endfacet
  facet normal 0 0 -1
    outer loop
      vertex 0 0 28.5
      vertex 0 -11.5 28.5
      vertex -1.798996 -11.358416 28.5
    endloop
  endfacet
  facet normal 0 0 1
    outer loop
      vertex 0 0 30.9
      vertex -1.798996 -11.358416 30.9
      vertex 0 -11.5 30.9
    endloop
  endfacet
  facet normal -0.078459 0.996917 0
    outer loop
      vertex 0 -11.5 28.5
      vertex 0 -11.5 30.9
      vertex 1.798996 -11.358416 30.9
    endloop
  endfacet
  facet normal -0.078459 0.996917 0
    outer loop
      vertex 0 -11.5 28.5
      vertex 1.798996 -11.358416 30.9
      vertex 1.798996 -11.358416 28.5
    endloop
  endfacet
  facet normal 0 0 -1
    outer loop
      vertex 0 0 28.5
      vertex 1.798996 -11.358416 28.5
      vertex 0 -11.5 28.5
    endloop
  endfacet
  facet normal 0 0 1
    outer loop
      vertex 0 0 30.9
      vertex 0 -11.5 30.9
      vertex 1.798996 -11.358416 30.9
    endloop
  endfacet
  facet normal -0.233445 0.97237 0
    outer loop
      vertex 1.798996 -11.358416 28.5
      vertex 1.798996 -11.358416 30.9
      vertex 3.553695 -10.93715 30.9
    endloop
  endfacet
  facet normal -0.233445 0.97237 0
    outer loop
      vertex 1.798996 -11.358416 28.5
      vertex 3.553695 -10.93715 30.9
      vertex 3.553695 -10.93715 28.5
    endloop
  endfacet
  facet normal 0 0 -1
    outer loop
      vertex 0 0 28.5
      vertex 3.553695 -10.93715 28.5
      vertex 1.798996 -11.358416 28.5
    endloop
  endfacet
  facet normal 0 0 1
    outer loop
      vertex 0 0 30.9
      vertex 1.798996 -11.358416 30.9
      vertex 3.553695 -10.93715 30.9
    endloop
  endfacet
  facet normal -0.382683 0.92388 0
    outer loop
      vertex 3.553695 -10.93715 28.5
      vertex 3.553695 -10.93715 30.9
      vertex 5.220891 -10.246575 30.9
    endloop
  endfacet
  facet normal -0.382683 0.92388 0
    outer loop
      vertex 3.553695 -10.93715 28.5
      vertex 5.220891 -10.246575 30.9
      vertex 5.220891 -10.246575 28.5
    endloop
  endfacet
  facet normal 0 0 -1
    outer loop
      vertex 0 0 28.5
      vertex 5.220891 -10.246575 28.5
      vertex 3.553695 -10.93715 28.5
    endloop
  endfacet
  facet normal 0 0 1
    outer loop
      vertex 0 0 30.9
      vertex 3.553695 -10.93715 30.9
      vertex 5.220891 -10.246575 30.9
    endloop
  endfacet
  facet normal -0.522499 0.85264 0
    outer loop
      vertex 5.220891 -10.246575 28.5
      vertex 5.220891 -10.246575 30.9
      vertex 6.75953 -9.303695 30.9
    endloop
  endfacet
  facet normal -0.522499 0.85264 0
    outer loop
      vertex 5.220891 -10.246575 28.5
      vertex 6.75953 -9.303695 30.9
      vertex 6.75953 -9.303695 28.5
    endloop
  endfacet
  facet normal 0 0 -1
    outer loop
      vertex 0 0 28.5
      vertex 6.75953 -9.303695 28.5
      vertex 5.220891 -10.246575 28.5
    endloop
  endfacet
  facet normal 0 0 1
    outer loop
      vertex 0 0 30.9
      vertex 5.220891 -10.246575 30.9
      vertex 6.75953 -9.303695 30.9
    endloop
  endfacet
  facet normal -0.649448 0.760406 0
    outer loop
      vertex 6.75953 -9.303695 28.5
      vertex 6.75953 -9.303695 30.9
      vertex 8.131728 -8.131728 30.9
    endloop
  endfacet
  facet normal -0.649448 0.760406 0
    outer loop
      vertex 6.75953 -9.303695 28.5
      vertex 8.131728 -8.131728 30.9
      vertex 8.131728 -8.131728 28.5
    endloop
  endfacet
  facet normal 0 0 -1
    outer loop
      vertex 0 0 28.5
      vertex 8.131728 -8.131728 28.5
      vertex 6.75953 -9.303695 28.5
    endloop
  endfacet
  facet normal 0 0 1
    outer loop
      vertex 0 0 30.9
      vertex 6.75953 -9.303695 30.9
      vertex 8.131728 -8.131728 30.9
    endloop
  endfacet
  facet normal -0.760406 0.649448 0
    outer loop
      vertex 8.131728 -8.131728 28.5
      vertex 8.131728 -8.131728 30.9
      vertex 9.303695 -6.75953 30.9
    endloop
  endfacet
  facet normal -0.760406 0.649448 0
    outer loop
      vertex 8.131728 -8.131728 28.5
      vertex 9.303695 -6.75953 30.9
      vertex 9.303695 -6.75953 28.5
    endloop
  endfacet
  facet normal 0 0 -1
    outer loop
      vertex 0 0 28.5
      vertex 9.303695 -6.75953 28.5
      vertex 8.131728 -8.131728 28.5
    endloop
  endfacet
  facet normal 0 0 1
    outer loop
      vertex 0 0 30.9
      vertex 8.131728 -8.131728 30.9
      vertex 9.303695 -6.75953 30.9
    endloop
  endfacet
  facet normal -0.85264 0.522499 0
    outer loop
      vertex 9.303695 -6.75953 28.5
      vertex 9.303695 -6.75953 30.9
      vertex 10.246575 -5.220891 30.9
    endloop
  endfacet
  facet normal -0.85264 0.522499 0
    outer loop
      vertex 9.303695 -6.75953 28.5
      vertex 10.246575 -5.220891 30.9
      vertex 10.246575 -5.220891 28.5
    endloop
  endfacet
  facet normal 0 0 -1
    outer loop
      vertex 0 0 28.5
      vertex 10.246575 -5.220891 28.5
      vertex 9.303695 -6.75953 28.5
    endloop
  endfacet
  facet normal 0 0 1
    outer loop
      vertex 0 0 30.9
      vertex 9.303695 -6.75953 30.9
      vertex 10.246575 -5.220891 30.9
    endloop
  endfacet
  facet normal -0.92388 0.382683 0
    outer loop
      vertex 10.246575 -5.220891 28.5
      vertex 10.246575 -5.220891 30.9
      vertex 10.93715 -3.553695 30.9
    endloop
  endfacet
  facet normal -0.92388 0.382683 0
    outer loop
      vertex 10.246575 -5.220891 28.5
      vertex 10.93715 -3.553695 30.9
      vertex 10.93715 -3.553695 28.5
    endloop
  endfacet
  facet normal 0 0 -1
    outer loop
      vertex 0 0 28.5
      vertex 10.93715 -3.553695 28.5
      vertex 10.246575 -5.220891 28.5
    endloop
  endfacet
  facet normal 0 0 1
    outer loop
      vertex 0 0 30.9
      vertex 10.246575 -5.220891 30.9
      vertex 10.93715 -3.553695 30.9
    endloop
  endfacet
  facet normal -0.97237 0.233445 0
    outer loop
      vertex 10.93715 -3.553695 28.5
      vertex 10.93715 -3.553695 30.9
      vertex 11.358416 -1.798996 30.9
    endloop
  endfacet
  facet normal -0.97237 0.233445 0
    outer loop
      vertex 10.93715 -3.553695 28.5
      vertex 11.358416 -1.798996 30.9
      vertex 11.358416 -1.798996 28.5
    endloop
  endfacet
  facet normal 0 0 -1
    outer loop
      vertex 0 0 28.5
      vertex 11.358416 -1.798996 28.5
      vertex 10.93715 -3.553695 28.5
    endloop
  endfacet
  facet normal 0 0 1
    outer loop
      vertex 0 0 30.9
      vertex 10.93715 -3.553695 30.9
      vertex 11.358416 -1.798996 30.9
    endloop
  endfacet
  facet normal -0.996917 0.078459 0
    outer loop
      vertex 11.358416 -1.798996 28.5
      vertex 11.358416 -1.798996 30.9
      vertex 11.5 0 30.9
    endloop
  endfacet
  facet normal -0.996917 0.078459 0
    outer loop
      vertex 11.358416 -1.798996 28.5
      vertex 11.5 0 30.9
      vertex 11.5 0 28.5
    endloop
  endfacet
  facet normal 0 0 -1
    outer loop
      vertex 0 0 28.5
      vertex 11.5 0 28.5
      vertex 11.358416 -1.798996 28.5
    endloop
  endfacet
  facet normal 0 0 1
    outer loop
      vertex 0 0 30.9
      vertex 11.358416 -1.798996 30.9
      vertex 11.5 0 30.9
    endloop
  endfacet
endsolid concept_puck_v3_top.stl
