solid concept_puck_v3_base.stl
  facet normal -0.998427 -0.05607 0
    outer loop
      vertex 34 0 0
      vertex 34 0 6
      vertex 33.786215 3.806792 6
    endloop
  endfacet
  facet normal -0.998427 -0.05607 0
    outer loop
      vertex 34 0 0
      vertex 33.786215 3.806792 6
      vertex 33.786215 3.806792 0
    endloop
  endfacet
  facet normal 0 0 -1
    outer loop
      vertex 0 0 0
      vertex 33.786215 3.806792 0
      vertex 34 0 0
    endloop
  endfacet
  facet normal 0 0 1
    outer loop
      vertex 0 0 6
      vertex 34 0 6
      vertex 33.786215 3.806792 6
    endloop
  endfacet
  facet normal -0.985871 -0.167506 0
    outer loop
      vertex 33.786215 3.806792 0
      vertex 33.786215 3.806792 6
      vertex 33.147549 7.565712 6
    endloop
  endfacet
  facet normal -0.985871 -0.167506 0
    outer loop
      vertex 33.786215 3.806792 0
      vertex 33.147549 7.565712 6
      vertex 33.147549 7.565712 0
    endloop
  endfacet
  facet normal 0 0 -1
    outer loop
      vertex 0 0 0
      vertex 33.147549 7.565712 0
      vertex 33.786215 3.806792 0
    endloop
  endfacet
  facet normal 0 0 1
    outer loop
      vertex 0 0 6
      vertex 33.786215 3.806792 6
      vertex 33.147549 7.565712 6
    endloop
  endfacet
  facet normal -0.960917 -0.276836 0
    outer loop
      vertex 33.147549 7.565712 0
      vertex 33.147549 7.565712 6
      vertex 32.092033 11.229488 6
    endloop
  endfacet
  facet normal -0.960917 -0.276836 0
    outer loop
      vertex 33.147549 7.565712 0
      vertex 32.092033 11.229488 6
      vertex 32.092033 11.229488 0
    endloop
  endfacet
  facet normal 0 0 -1
    outer loop
      vertex 0 0 0
      vertex 32.092033 11.229488 0
      vertex 33.147549 7.565712 0
    endloop
  endfacet
  facet normal 0 0 1
    outer loop
      vertex 0 0 6
      vertex 33.147549 7.565712 6
      vertex 32.092033 11.229488 6
    endloop
  endfacet
  facet normal -0.92388 -0.382683 0
    outer loop
      vertex 32.092033 11.229488 0
      vertex 32.092033 11.229488 6
      vertex 30.632942 14.752047 6
    endloop
  endfacet
  facet normal -0.92388 -0.382683 0
    outer loop
      vertex 32.092033 11.229488 0
      vertex 30.632942 14.752047 6
      vertex 30.632942 14.752047 0
    endloop
  endfacet
  facet normal 0 0 -1
    outer loop
      vertex 0 0 0
      vertex 30.632942 14.752047 0
      vertex 32.092033 11.229488 0
    endloop
  endfacet
  facet normal 0 0 1
    outer loop
      vertex 0 0 6
      vertex 32.092033 11.229488 6
      vertex 30.632942 14.752047 6
    endloop
  endfacet
  facet normal -0.875223 -0.483719 0
    outer loop
      vertex 30.632942 14.752047 0
      vertex 30.632942 14.752047 6
      vertex 28.788623 18.089091 6
    endloop
  endfacet
  facet normal -0.875223 -0.483719 0
    outer loop
      vertex 30.632942 14.752047 0
      vertex 28.788623 18.089091 6
      vertex 28.788623 18.089091 0
    endloop
  endfacet
  facet normal 0 0 -1
    outer loop
      vertex 0 0 0
      vertex 28.788623 18.089091 0
      vertex 30.632942 14.752047 0
    endloop
  endfacet
  facet normal 0 0 1
    outer loop
      vertex 0 0 6
      vertex 30.632942 14.752047 6
      vertex 28.788623 18.089091 6
    endloop
  endfacet
  facet normal -0.815561 -0.578671 0
    outer loop
      vertex 28.788623 18.089091 0
      vertex 28.788623 18.089091 6
      vertex 26.58227 21.198653 6
    endloop
  endfacet
  facet normal -0.815561 -0.578671 0
    outer loop
      vertex 28.788623 18.089091 0
      vertex 26.58227 21.198653 6
      vertex 26.58227 21.198653 0
    endloop
  endfacet
  facet normal 0 0 -1
    outer loop
      vertex 0 0 0
      vertex 26.58227 21.198653 0
      vertex 28.788623 18.089091 0
    endloop
  endfacet
  facet normal 0 0 1
    outer loop
      vertex 0 0 6
      vertex 28.788623 18.089091 6
      vertex 26.58227 21.198653 6
    endloop
  endfacet
  facet normal -0.745642 -0.666347 0
    outer loop
      vertex 26.58227 21.198653 0
      vertex 26.58227 21.198653 6
      vertex 24.041631 24.041631 6
    endloop
  endfacet
  facet normal -0.745642 -0.666347 0
    outer loop
      vertex 26.58227 21.198653 0
      vertex 24.041631 24.041631 6
      vertex 24.041631 24.041631 0
    endloop
  endfacet
  facet normal 0 0 -1
    outer loop
      vertex 0 0 0
      vertex 24.041631 24.041631 0
      vertex 26.58227 21.198653 0
    endloop
  endfacet
  facet normal 0 0 1
    outer loop
      vertex 0 0 6
      vertex 26.58227 21.198653 6
      vertex 24.041631 24.041631 6
    endloop
  endfacet
  facet normal -0.666347 -0.745642 0
    outer loop
      vertex 24.041631 24.041631 0
      vertex 24.041631 24.041631 6
      vertex 21.198653 26.58227 6
    endloop
  endfacet
  facet normal -0.666347 -0.745642 0
    outer loop
      vertex 24.041631 24.041631 0
      vertex 21.198653 26.58227 6
      vertex 21.198653 26.58227 0
    endloop
  endfacet
  facet normal 0 0 -1
    outer loop
      vertex 0 0 0
      vertex 21.198653 26.58227 0
      vertex 24.041631 24.041631 0
    endloop
  endfacet
  facet normal 0 0 1
    outer loop
      vertex 0 0 6
      vertex 24.041631 24.041631 6
      vertex 21.198653 26.58227 6
    endloop
  endfacet
  facet normal -0.578671 -0.815561 0
    outer loop
      vertex 21.198653 26.58227 0
      vertex 21.198653 26.58227 6
      vertex 18.089091 28.788623 6
    endloop
  endfacet
  facet normal -0.578671 -0.815561 0
    outer loop
      vertex 21.198653 26.58227 0
      vertex 18.089091 28.788623 6
      vertex 18.089091 28.788623 0
    endloop
  endfacet
  facet normal 0 0 -1
    outer loop
      vertex 0 0 0
      vertex 18.089091 28.788623 0
      vertex 21.198653 26.58227 0
    endloop
  endfacet
  facet normal 0 0 1
    outer loop
      vertex 0 0 6
      vertex 21.198653 26.58227 6
      vertex 18.089091 28.788623 6
    endloop
  endfacet
  facet normal -0.483719 -0.875223 0
    outer loop
      vertex 18.089091 28.788623 0
      vertex 18.089091 28.788623 6
      vertex 14.752047 30.632942 6
    endloop
  endfacet
  facet normal -0.483719 -0.875223 0
    outer loop
      vertex 18.089091 28.788623 0
      vertex 14.752047 30.632942 6
      vertex 14.752047 30.632942 0
    endloop
  endfacet
  facet normal 0 0 -1
    outer loop
      vertex 0 0 0
      vertex 14.752047 30.632942 0
      vertex 18.089091 28.788623 0
    endloop
  endfacet
  facet normal 0 0 1
    outer loop
      vertex 0 0 6
      vertex 18.089091 28.788623 6
      vertex 14.752047 30.632942 6
    endloop
  endfacet
  facet normal -0.382683 -0.92388 0
    outer loop
      vertex 14.752047 30.632942 0
      vertex 14.752047 30.632942 6
      vertex 11.229488 32.092033 6
    endloop
  endfacet
  facet normal -0.382683 -0.92388 0
    outer loop
      vertex 14.752047 30.632942 0
      vertex 11.229488 32.092033 6
      vertex 11.229488 32.092033 0
    endloop
  endfacet
  facet normal 0 0 -1
    outer loop
      vertex 0 0 0
      vertex 11.229488 32.092033 0
      vertex 14.752047 30.632942 0
    endloop
  endfacet
  facet normal 0 0 1
    outer loop
      vertex 0 0 6
      vertex 14.752047 30.632942 6
      vertex 11.229488 32.092033 6
    endloop
  endfacet
  facet normal -0.276836 -0.960917 0
    outer loop
      vertex 11.229488 32.092033 0
      vertex 11.229488 32.092033 6
      vertex 7.565712 33.147549 6
    endloop
  endfacet
  facet normal -0.276836 -0.960917 0
    outer loop
      vertex 11.229488 32.092033 0
      vertex 7.565712 33.147549 6
      vertex 7.565712 33.147549 0
    endloop
  endfacet
  facet normal 0 0 -1
    outer loop
      vertex 0 0 0
      vertex 7.565712 33.147549 0
      vertex 11.229488 32.092033 0
    endloop
  endfacet
  facet normal 0 0 1
    outer loop
      vertex 0 0 6
      vertex 11.229488 32.092033 6
      vertex 7.565712 33.147549 6
    endloop
  endfacet
  facet normal -0.167506 -0.985871 0
    outer loop
      vertex 7.565712 33.147549 0
      vertex 7.565712 33.147549 6
      vertex 3.806792 33.786215 6
    endloop
  endfacet
  facet normal -0.167506 -0.985871 0
    outer loop
      vertex 7.565712 33.147549 0
      vertex 3.806792 33.786215 6
      vertex 3.806792 33.786215 0
    endloop
  endfacet
  facet normal 0 0 -1
    outer loop
      vertex 0 0 0
      vertex 3.806792 33.786215 0
      vertex 7.565712 33.147549 0
    endloop
  endfacet
  facet normal 0 0 1
    outer loop
      vertex 0 0 6
      vertex 7.565712 33.147549 6
      vertex 3.806792 33.786215 6
    endloop
  endfacet
  facet normal -0.05607 -0.998427 0
    outer loop
      vertex 3.806792 33.786215 0
      vertex 3.806792 33.786215 6
      vertex 0 34 6
    endloop
  endfacet
  facet normal -0.05607 -0.998427 0
    outer loop
      vertex 3.806792 33.786215 0
      vertex 0 34 6
      vertex 0 34 0
    endloop
  endfacet
  facet normal 0 0 -1
    outer loop
      vertex 0 0 0
      vertex 0 34 0
      vertex 3.806792 33.786215 0
    endloop
  endfacet
  facet normal 0 0 1
    outer loop
      vertex 0 0 6
      vertex 3.806792 33.786215 6
      vertex 0 34 6
    endloop
  endfacet
  facet normal 0.05607 -0.998427 0
    outer loop
      vertex 0 34 0
      vertex 0 34 6
      vertex -3.806792 33.786215 6
    endloop
  endfacet
  facet normal 0.05607 -0.998427 0
    outer loop
      vertex 0 34 0
      vertex -3.806792 33.786215 6
      vertex -3.806792 33.786215 0
    endloop
  endfacet
  facet normal 0 0 -1
    outer loop
      vertex 0 0 0
      vertex -3.806792 33.786215 0
      vertex 0 34 0
    endloop
  endfacet
  facet normal 0 0 1
    outer loop
      vertex 0 0 6
      vertex 0 34 6
      vertex -3.806792 33.786215 6
    endloop
  endfacet
  facet normal 0.167506 -0.985871 0
    outer loop
      vertex -3.806792 33.786215 0
      vertex -3.806792 33.786215 6
      vertex -7.565712 33.147549 6
    endloop
  endfacet
  facet normal 0.167506 -0.985871 0
    outer loop
      vertex -3.806792 33.786215 0
      vertex -7.565712 33.147549 6
      vertex -7.565712 33.147549 0
    endloop
  endfacet
  facet normal 0 0 -1
    outer loop
      vertex 0 0 0
      vertex -7.565712 33.147549 0
      vertex -3.806792 33.786215 0
    endloop
  endfacet
  facet normal 0 0 1
    outer loop
      vertex 0 0 6
      vertex -3.806792 33.786215 6
      vertex -7.565712 33.147549 6
    endloop
  endfacet
  facet normal 0.276836 -0.960917 0
    outer loop
      vertex -7.565712 33.147549 0
      vertex -7.565712 33.147549 6
      vertex -11.229488 32.092033 6
    endloop
  endfacet
  facet normal 0.276836 -0.960917 0
    outer loop
      vertex -7.565712 33.147549 0
      vertex -11.229488 32.092033 6
      vertex -11.229488 32.092033 0
    endloop
  endfacet
  facet normal 0 0 -1
    outer loop
      vertex 0 0 0
      vertex -11.229488 32.092033 0
      vertex -7.565712 33.147549 0
    endloop
  endfacet
  facet normal 0 0 1
    outer loop
      vertex 0 0 6
      vertex -7.565712 33.147549 6
      vertex -11.229488 32.092033 6
    endloop
  endfacet
  facet normal 0.382683 -0.92388 0
    outer loop
      vertex -11.229488 32.092033 0
      vertex -11.229488 32.092033 6
      vertex -14.752047 30.632942 6
    endloop
  endfacet
  facet normal 0.382683 -0.92388 0
    outer loop
      vertex -11.229488 32.092033 0
      vertex -14.752047 30.632942 6
      vertex -14.752047 30.632942 0
    endloop
  endfacet
  facet normal 0 0 -1
    outer loop
      vertex 0 0 0
      vertex -14.752047 30.632942 0
      vertex -11.229488 32.092033 0
    endloop
  endfacet
  facet normal 0 0 1
    outer loop
      vertex 0 0 6
      vertex -11.229488 32.092033 6
      vertex -14.752047 30.632942 6
    endloop
  endfacet
  facet normal 0.483719 -0.875223 0
    outer loop
      vertex -14.752047 30.632942 0
      vertex -14.752047 30.632942 6
      vertex -18.089091 28.788623 6
    endloop
  endfacet
  facet normal 0.483719 -0.875223 0
    outer loop
      vertex -14.752047 30.632942 0
      vertex -18.089091 28.788623 6
      vertex -18.089091 28.788623 0
    endloop
  endfacet
  facet normal 0 0 -1
    outer loop
      vertex 0 0 0
      vertex -18.089091 28.788623 0
      vertex -14.752047 30.632942 0
    endloop
  endfacet
  facet normal 0 0 1
    outer loop
      vertex 0 0 6
      vertex -14.752047 30.632942 6
      vertex -18.089091 28.788623 6
    endloop
  endfacet
  facet normal 0.578671 -0.815561 0
    outer loop
      vertex -18.089091 28.788623 0
      vertex -18.089091 28.788623 6
      vertex -21.198653 26.58227 6
    endloop
  endfacet
  facet normal 0.578671 -0.815561 0
    outer loop
      vertex -18.089091 28.788623 0
      vertex -21.198653 26.58227 6
      vertex -21.198653 26.58227 0
    endloop
  endfacet
  facet normal 0 0 -1
    outer loop
      vertex 0 0 0
      vertex -21.198653 26.58227 0
      vertex -18.089091 28.788623 0
    endloop
  endfacet
  facet normal 0 0 1
    outer loop
      vertex 0 0 6
      vertex -18.089091 28.788623 6
      vertex -21.198653 26.58227 6
    endloop
  endfacet
  facet normal 0.666347 -0.745642 0
    outer loop
      vertex -21.198653 26.58227 0
      vertex -21.198653 26.58227 6
      vertex -24.041631 24.041631 6
    endloop
  endfacet
  facet normal 0.666347 -0.745642 0
    outer loop
      vertex -21.198653 26.58227 0
      vertex -24.041631 24.041631 6
      vertex -24.041631 24.041631 0
    endloop
  endfacet
  facet normal 0 0 -1
    outer loop
      vertex 0 0 0
      vertex -24.041631 24.041631 0
      vertex -21.198653 26.58227 0
    endloop
  endfacet
  facet normal 0 0 1
    outer loop
      vertex 0 0 6
      vertex -21.198653 26.58227 6
      vertex -24.041631 24.041631 6
    endloop
  endfacet
  facet normal 0.745642 -0.666347 0
    outer loop
      vertex -24.041631 24.041631 0
      vertex -24.041631 24.041631 6
      vertex -26.58227 21.198653 6
    endloop
  endfacet
  facet normal 0.745642 -0.666347 0
    outer loop
      vertex -24.041631 24.041631 0
      vertex -26.58227 21.198653 6
      vertex -26.58227 21.198653 0
    endloop
  endfacet
  facet normal 0 0 -1
    outer loop
      vertex 0 0 0
      vertex -26.58227 21.198653 0
      vertex -24.041631 24.041631 0
    endloop
  endfacet
  facet normal 0 0 1
    outer loop
      vertex 0 0 6
      vertex -24.041631 24.041631 6
      vertex -26.58227 21.198653 6
    endloop
  endfacet
  facet normal 0.815561 -0.578671 0
    outer loop
      vertex -26.58227 21.198653 0
      vertex -26.58227 21.198653 6
      vertex -28.788623 18.089091 6
    endloop
  endfacet
  facet normal 0.815561 -0.578671 0
    outer loop
      vertex -26.58227 21.198653 0
      vertex -28.788623 18.089091 6
      vertex -28.788623 18.089091 0
    endloop
  endfacet
  facet normal 0 0 -1
    outer loop
      vertex 0 0 0
      vertex -28.788623 18.089091 0
      vertex -26.58227 21.198653 0
    endloop
  endfacet
  facet normal 0 0 1
    outer loop
      vertex 0 0 6
      vertex -26.58227 21.198653 6
      vertex -28.788623 18.089091 6
    endloop
  endfacet
  facet normal 0.875223 -0.483719 0
    outer loop
      vertex -28.788623 18.089091 0
      vertex -28.788623 18.089091 6
      vertex -30.632942 14.752047 6
    endloop
  endfacet
  facet normal 0.875223 -0.483719 0
    outer loop
      vertex -28.788623 18.089091 0
      vertex -30.632942 14.752047 6
      vertex -30.632942 14.752047 0
    endloop
  endfacet
  facet normal 0 0 -1
    outer loop
      vertex 0 0 0
      vertex -30.632942 14.752047 0
      vertex -28.788623 18.089091 0
    endloop
  endfacet
  facet normal 0 0 1
    outer loop
      vertex 0 0 6
      vertex -28.788623 18.089091 6
      vertex -30.632942 14.752047 6
    endloop
  endfacet
  facet normal 0.92388 -0.382683 0
    outer loop
      vertex -30.632942 14.752047 0
      vertex -30.632942 14.752047 6
      vertex -32.092033 11.229488 6
    endloop
  endfacet
  facet normal 0.92388 -0.382683 0
    outer loop
      vertex -30.632942 14.752047 0
      vertex -32.092033 11.229488 6
      vertex -32.092033 11.229488 0
    endloop
  endfacet
  facet normal 0 0 -1
    outer loop
      vertex 0 0 0
      vertex -32.092033 11.229488 0
      vertex -30.632942 14.752047 0
    endloop
  endfacet
  facet normal 0 0 1
    outer loop
      vertex 0 0 6
      vertex -30.632942 14.752047 6
      vertex -32.092033 11.229488 6
    endloop
  endfacet
  facet normal 0.960917 -0.276836 0
    outer loop
      vertex -32.092033 11.229488 0
      vertex -32.092033 11.229488 6
      vertex -33.147549 7.565712 6
    endloop
  endfacet
  facet normal 0.960917 -0.276836 0
    outer loop
      vertex -32.092033 11.229488 0
      vertex -33.147549 7.565712 6
      vertex -33.147549 7.565712 0
    endloop
  endfacet
  facet normal 0 0 -1
    outer loop
      vertex 0 0 0
      vertex -33.147549 7.565712 0
      vertex -32.092033 11.229488 0
    endloop
  endfacet
  facet normal 0 0 1
    outer loop
      vertex 0 0 6
      vertex -32.092033 11.229488 6
      vertex -33.147549 7.565712 6
    endloop
  endfacet
  facet normal 0.985871 -0.167506 0
    outer loop
      vertex -33.147549 7.565712 0
      vertex -33.147549 7.565712 6
      vertex -33.786215 3.806792 6
    endloop
  endfacet
  facet normal 0.985871 -0.167506 0
    outer loop
      vertex -33.147549 7.565712 0
      vertex -33.786215 3.806792 6
      vertex -33.786215 3.806792 0
    endloop
  endfacet
  facet normal 0 0 -1
    outer loop
      vertex 0 0 0
      vertex -33.786215 3.806792 0
      vertex -33.147549 7.565712 0
    endloop
  endfacet
  facet normal 0 0 1
    outer loop
      vertex 0 0 6
      vertex -33.147549 7.565712 6
      vertex -33.786215 3.806792 6
    endloop
  endfacet
  facet normal 0.998427 -0.05607 0
    outer loop
      vertex -33.786215 3.806792 0
      vertex -33.786215 3.806792 6
      vertex -34 0 6
    endloop
  endfacet
  facet normal 0.998427 -0.05607 0
    outer loop
      vertex -33.786215 3.806792 0
      vertex -34 0 6
      vertex -34 0 0
    endloop
  endfacet
  facet normal 0 0 -1
    outer loop
      vertex 0 0 0
      vertex -34 0 0
      vertex -33.786215 3.806792 0
    endloop
  endfacet
  facet normal 0 0 1
    outer loop
      vertex 0 0 6
      vertex -33.786215 3.806792 6
      vertex -34 0 6
    endloop
  endfacet
  facet normal 0.998427 0.05607 0
    outer loop
      vertex -34 0 0
      vertex -34 0 6
      vertex -33.786215 -3.806792 6
    endloop
  endfacet
  facet normal 0.998427 0.05607 0
    outer loop
      vertex -34 0 0
      vertex -33.786215 -3.806792 6
      vertex -33.786215 -3.806792 0
    endloop
  endfacet
  facet normal 0 0 -1
    outer loop
      vertex 0 0 0
      vertex -33.786215 -3.806792 0
      vertex -34 0 0
    endloop
  endfacet
  facet normal 0 0 1
    outer loop
      vertex 0 0 6
      vertex -34 0 6
      vertex -33.786215 -3.806792 6
    endloop
  endfacet
  facet normal 0.985871 0.167506 0
    outer loop
      vertex -33.786215 -3.806792 0
      vertex -33.786215 -3.806792 6
      vertex -33.147549 -7.565712 6
    endloop
  endfacet
  facet normal 0.985871 0.167506 0
    outer loop
      vertex -33.786215 -3.806792 0
      vertex -33.147549 -7.565712 6
      vertex -33.147549 -7.565712 0
    endloop
  endfacet
  facet normal 0 0 -1
    outer loop
      vertex 0 0 0
      vertex -33.147549 -7.565712 0
      vertex -33.786215 -3.806792 0
    endloop
  endfacet
  facet normal 0 0 1
    outer loop
      vertex 0 0 6
      vertex -33.786215 -3.806792 6
      vertex -33.147549 -7.565712 6
    endloop
  endfacet
  facet normal 0.960917 0.276836 0
    outer loop
      vertex -33.147549 -7.565712 0
      vertex -33.147549 -7.565712 6
      vertex -32.092033 -11.229488 6
    endloop
  endfacet
  facet normal 0.960917 0.276836 0
    outer loop
      vertex -33.147549 -7.565712 0
      vertex -32.092033 -11.229488 6
      vertex -32.092033 -11.229488 0
    endloop
  endfacet
  facet normal 0 0 -1
    outer loop
      vertex 0 0 0
      vertex -32.092033 -11.229488 0
      vertex -33.147549 -7.565712 0
    endloop
  endfacet
  facet normal 0 0 1
    outer loop
      vertex 0 0 6
      vertex -33.147549 -7.565712 6
      vertex -32.092033 -11.229488 6
    endloop
  endfacet
  facet normal 0.92388 0.382683 0
    outer loop
      vertex -32.092033 -11.229488 0
      vertex -32.092033 -11.229488 6
      vertex -30.632942 -14.752047 6
    endloop
  endfacet
  facet normal 0.92388 0.382683 0
    outer loop
      vertex -32.092033 -11.229488 0
      vertex -30.632942 -14.752047 6
      vertex -30.632942 -14.752047 0
    endloop
  endfacet
  facet normal 0 0 -1
    outer loop
      vertex 0 0 0
      vertex -30.632942 -14.752047 0
      vertex -32.092033 -11.229488 0
    endloop
  endfacet
  facet normal 0 0 1
    outer loop
      vertex 0 0 6
      vertex -32.092033 -11.229488 6
      vertex -30.632942 -14.752047 6
    endloop
  endfacet
  facet normal 0.875223 0.483719 0
    outer loop
      vertex -30.632942 -14.752047 0
      vertex -30.632942 -14.752047 6
      vertex -28.788623 -18.089091 6
    endloop
  endfacet
  facet normal 0.875223 0.483719 0
    outer loop
      vertex -30.632942 -14.752047 0
      vertex -28.788623 -18.089091 6
      vertex -28.788623 -18.089091 0
    endloop
  endfacet
  facet normal 0 0 -1
    outer loop
      vertex 0 0 0
      vertex -28.788623 -18.089091 0
      vertex -30.632942 -14.752047 0
    endloop
  endfacet
  facet normal 0 0 1
    outer loop
      vertex 0 0 6
      vertex -30.632942 -14.752047 6
      vertex -28.788623 -18.089091 6
    endloop
  endfacet
  facet normal 0.815561 0.578671 0
    outer loop
      vertex -28.788623 -18.089091 0
      vertex -28.788623 -18.089091 6
      vertex -26.58227 -21.198653 6
    endloop
  endfacet
  facet normal 0.815561 0.578671 0
    outer loop
      vertex -28.788623 -18.089091 0
      vertex -26.58227 -21.198653 6
      vertex -26.58227 -21.198653 0
    endloop
  endfacet
  facet normal 0 0 -1
    outer loop
      vertex 0 0 0
      vertex -26.58227 -21.198653 0
      vertex -28.788623 -18.089091 0
    endloop
  endfacet
  facet normal 0 0 1
    outer loop
      vertex 0 0 6
      vertex -28.788623 -18.089091 6
      vertex -26.58227 -21.198653 6
    endloop
  endfacet
  facet normal 0.745642 0.666347 0
    outer loop
      vertex -26.58227 -21.198653 0
      vertex -26.58227 -21.198653 6
      vertex -24.041631 -24.041631 6
    endloop
  endfacet
  facet normal 0.745642 0.666347 0
    outer loop
      vertex -26.58227 -21.198653 0
      vertex -24.041631 -24.041631 6
      vertex -24.041631 -24.041631 0
    endloop
  endfacet
  facet normal 0 0 -1
    outer loop
      vertex 0 0 0
      vertex -24.041631 -24.041631 0
      vertex -26.58227 -21.198653 0
    endloop
  endfacet
  facet normal 0 0 1
    outer loop
      vertex 0 0 6
      vertex -26.58227 -21.198653 6
      vertex -24.041631 -24.041631 6
    endloop
  endfacet
  facet normal 0.666347 0.745642 0
    outer loop
      vertex -24.041631 -24.041631 0
      vertex -24.041631 -24.041631 6
      vertex -21.198653 -26.58227 6
    endloop
  endfacet
  facet normal 0.666347 0.745642 0
    outer loop
      vertex -24.041631 -24.041631 0
      vertex -21.198653 -26.58227 6
      vertex -21.198653 -26.58227 0
    endloop
  endfacet
  facet normal 0 0 -1
    outer loop
      vertex 0 0 0
      vertex -21.198653 -26.58227 0
      vertex -24.041631 -24.041631 0
    endloop
  endfacet
  facet normal 0 0 1
    outer loop
      vertex 0 0 6
      vertex -24.041631 -24.041631 6
      vertex -21.198653 -26.58227 6
    endloop
  endfacet
  facet normal 0.578671 0.815561 0
    outer loop
      vertex -21.198653 -26.58227 0
      vertex -21.198653 -26.58227 6
      vertex -18.089091 -28.788623 6
    endloop
  endfacet
  facet normal 0.578671 0.815561 0
    outer loop
      vertex -21.198653 -26.58227 0
      vertex -18.089091 -28.788623 6
      vertex -18.089091 -28.788623 0
    endloop
  endfacet
  facet normal 0 0 -1
    outer loop
      vertex 0 0 0
      vertex -18.089091 -28.788623 0
      vertex -21.198653 -26.58227 0
    endloop
  endfacet
  facet normal 0 0 1
    outer loop
      vertex 0 0 6
      vertex -21.198653 -26.58227 6
      vertex -18.089091 -28.788623 6
    endloop
  endfacet
  facet normal 0.483719 0.875223 0
    outer loop
      vertex -18.089091 -28.788623 0
      vertex -18.089091 -28.788623 6
      vertex -14.752047 -30.632942 6
    endloop
  endfacet
  facet normal 0.483719 0.875223 0
    outer loop
      vertex -18.089091 -28.788623 0
      vertex -14.752047 -30.632942 6
      vertex -14.752047 -30.632942 0
    endloop
  endfacet
  facet normal 0 0 -1
    outer loop
      vertex 0 0 0
      vertex -14.752047 -30.632942 0
      vertex -18.089091 -28.788623 0
    endloop
  endfacet
  facet normal 0 0 1
    outer loop
      vertex 0 0 6
      vertex -18.089091 -28.788623 6
      vertex -14.752047 -30.632942 6
    endloop
  endfacet
  facet normal 0.382683 0.92388 0
    outer loop
      vertex -14.752047 -30.632942 0
      vertex -14.752047 -30.632942 6
      vertex -11.229488 -32.092033 6
    endloop
  endfacet
  facet normal 0.382683 0.92388 0
    outer loop
      vertex -14.752047 -30.632942 0
      vertex -11.229488 -32.092033 6
      vertex -11.229488 -32.092033 0
    endloop
  endfacet
  facet normal 0 0 -1
    outer loop
      vertex 0 0 0
      vertex -11.229488 -32.092033 0
      vertex -14.752047 -30.632942 0
    endloop
  endfacet
  facet normal 0 0 1
    outer loop
      vertex 0 0 6
      vertex -14.752047 -30.632942 6
      vertex -11.229488 -32.092033 6
    endloop
  endfacet
  facet normal 0.276836 0.960917 0
    outer loop
      vertex -11.229488 -32.092033 0
      vertex -11.229488 -32.092033 6
      vertex -7.565712 -33.147549 6
    endloop
  endfacet
  facet normal 0.276836 0.960917 0
    outer loop
      vertex -11.229488 -32.092033 0
      vertex -7.565712 -33.147549 6
      vertex -7.565712 -33.147549 0
    endloop
  endfacet
  facet normal 0 0 -1
    outer loop
      vertex 0 0 0
      vertex -7.565712 -33.147549 0
      vertex -11.229488 -32.092033 0
    endloop
  endfacet
  facet normal 0 0 1
    outer loop
      vertex 0 0 6
      vertex -11.229488 -32.092033 6
      vertex -7.565712 -33.147549 6
    endloop
  endfacet
  facet normal 0.167506 0.985871 0
    outer loop
      vertex -7.565712 -33.147549 0
      vertex -7.565712 -33.147549 6
      vertex -3.806792 -33.786215 6
    endloop
  endfacet
  facet normal 0.167506 0.985871 0
    outer loop
      vertex -7.565712 -33.147549 0
      vertex -3.806792 -33.786215 6
      vertex -3.806792 -33.786215 0
    endloop
  endfacet
  facet normal 0 0 -1
    outer loop
      vertex 0 0 0
      vertex -3.806792 -33.786215 0
      vertex -7.565712 -33.147549 0
    endloop
  endfacet
  facet normal 0 0 1
    outer loop
      vertex 0 0 6
      vertex -7.565712 -33.147549 6
      vertex -3.806792 -33.786215 6
    endloop
  endfacet
  facet normal 0.05607 0.998427 0
    outer loop
      vertex -3.806792 -33.786215 0
      vertex -3.806792 -33.786215 6
      vertex 0 -34 6
    endloop
  endfacet
  facet normal 0.05607 0.998427 0
    outer loop
      vertex -3.806792 -33.786215 0
      vertex 0 -34 6
      vertex 0 -34 0
    endloop
  endfacet
  facet normal 0 0 -1
    outer loop
      vertex 0 0 0
      vertex 0 -34 0
      vertex -3.806792 -33.786215 0
    endloop
  endfacet
  facet normal 0 0 1
    outer loop
      vertex 0 0 6
      vertex -3.806792 -33.786215 6
      vertex 0 -34 6
    endloop
  endfacet
  facet normal -0.05607 0.998427 0
    outer loop
      vertex 0 -34 0
      vertex 0 -34 6
      vertex 3.806792 -33.786215 6
    endloop
  endfacet
  facet normal -0.05607 0.998427 0
    outer loop
      vertex 0 -34 0
      vertex 3.806792 -33.786215 6
      vertex 3.806792 -33.786215 0
    endloop
  endfacet
  facet normal 0 0 -1
    outer loop
      vertex 0 0 0
      vertex 3.806792 -33.786215 0
      vertex 0 -34 0
    endloop
  endfacet
  facet normal 0 0 1
    outer loop
      vertex 0 0 6
      vertex 0 -34 6
      vertex 3.806792 -33.786215 6
    endloop
  endfacet
  facet normal -0.167506 0.985871 0
    outer loop
      vertex 3.806792 -33.786215 0
      vertex 3.806792 -33.786215 6
      vertex 7.565712 -33.147549 6
    endloop
  endfacet
  facet normal -0.167506 0.985871 0
    outer loop
      vertex 3.806792 -33.786215 0
      vertex 7.565712 -33.147549 6
      vertex 7.565712 -33.147549 0
    endloop
  endfacet
  facet normal 0 0 -1
    outer loop
      vertex 0 0 0
      vertex 7.565712 -33.147549 0
      vertex 3.806792 -33.786215 0
    endloop
  endfacet
  facet normal 0 0 1
    outer loop
      vertex 0 0 6
      vertex 3.806792 -33.786215 6
      vertex 7.565712 -33.147549 6
    endloop
  endfacet
  facet normal -0.276836 0.960917 0
    outer loop
      vertex 7.565712 -33.147549 0
      vertex 7.565712 -33.147549 6
      vertex 11.229488 -32.092033 6
    endloop
  endfacet
  facet normal -0.276836 0.960917 0
    outer loop
      vertex 7.565712 -33.147549 0
      vertex 11.229488 -32.092033 6
      vertex 11.229488 -32.092033 0
    endloop
  endfacet
  facet normal 0 0 -1
    outer loop
      vertex 0 0 0
      vertex 11.229488 -32.092033 0
      vertex 7.565712 -33.147549 0
    endloop
  endfacet
  facet normal 0 0 1
    outer loop
      vertex 0 0 6
      vertex 7.565712 -33.147549 6
      vertex 11.229488 -32.092033 6
    endloop
  endfacet
  facet normal -0.382683 0.92388 0
    outer loop
      vertex 11.229488 -32.092033 0
      vertex 11.229488 -32.092033 6
      vertex 14.752047 -30.632942 6
    endloop
  endfacet
  facet normal -0.382683 0.92388 0
    outer loop
      vertex 11.229488 -32.092033 0
      vertex 14.752047 -30.632942 6
      vertex 14.752047 -30.632942 0
    endloop
  endfacet
  facet normal 0 0 -1
    outer loop
      vertex 0 0 0
      vertex 14.752047 -30.632942 0
      vertex 11.229488 -32.092033 0
    endloop
  endfacet
  facet normal 0 0 1
    outer loop
      vertex 0 0 6
      vertex 11.229488 -32.092033 6
      vertex 14.752047 -30.632942 6
    endloop
  endfacet
  facet normal -0.483719 0.875223 0
    outer loop
      vertex 14.752047 -30.632942 0
      vertex 14.752047 -30.632942 6
      vertex 18.089091 -28.788623 6
    endloop
  endfacet
  facet normal -0.483719 0.875223 0
    outer loop
      vertex 14.752047 -30.632942 0
      vertex 18.089091 -28.788623 6
      vertex 18.089091 -28.788623 0
    endloop
  endfacet
  facet normal 0 0 -1
    outer loop
      vertex 0 0 0
      vertex 18.089091 -28.788623 0
      vertex 14.752047 -30.632942 0
    endloop
  endfacet
  facet normal 0 0 1
    outer loop
      vertex 0 0 6
      vertex 14.752047 -30.632942 6
      vertex 18.089091 -28.788623 6
    endloop
  endfacet
  facet normal -0.578671 0.815561 0
    outer loop
      vertex 18.089091 -28.788623 0
      vertex 18.089091 -28.788623 6
      vertex 21.198653 -26.58227 6
    endloop
  endfacet
  facet normal -0.578671 0.815561 0
    outer loop
      vertex 18.089091 -28.788623 0
      vertex 21.198653 -26.58227 6
      vertex 21.198653 -26.58227 0
    endloop
  endfacet
  facet normal 0 0 -1
    outer loop
      vertex 0 0 0
      vertex 21.198653 -26.58227 0
      vertex 18.089091 -28.788623 0
    endloop
  endfacet
  facet normal 0 0 1
    outer loop
      vertex 0 0 6
      vertex 18.089091 -28.788623 6
      vertex 21.198653 -26.58227 6
    endloop
  endfacet
  facet normal -0.666347 0.745642 0
    outer loop
      vertex 21.198653 -26.58227 0
      vertex 21.198653 -26.58227 6
      vertex 24.041631 -24.041631 6
    endloop
  endfacet
  facet normal -0.666347 0.745642 0
    outer loop
      vertex 21.198653 -26.58227 0
      vertex 24.041631 -24.041631 6
      vertex 24.041631 -24.041631 0
    endloop
  endfacet
  facet normal 0 0 -1
    outer loop
      vertex 0 0 0
      vertex 24.041631 -24.041631 0
      vertex 21.198653 -26.58227 0
    endloop
  endfacet
  facet normal 0 0 1
    outer loop
      vertex 0 0 6
      vertex 21.198653 -26.58227 6
      vertex 24.041631 -24.041631 6
    endloop
  endfacet
  facet normal -0.745642 0.666347 0
    outer loop
      vertex 24.041631 -24.041631 0
      vertex 24.041631 -24.041631 6
      vertex 26.58227 -21.198653 6
    endloop
  endfacet
  facet normal -0.745642 0.666347 0
    outer loop
      vertex 24.041631 -24.041631 0
      vertex 26.58227 -21.198653 6
      vertex 26.58227 -21.198653 0
    endloop
  endfacet
  facet normal 0 0 -1
    outer loop
      vertex 0 0 0
      vertex 26.58227 -21.198653 0
      vertex 24.041631 -24.041631 0
    endloop
  endfacet
  facet normal 0 0 1
    outer loop
      vertex 0 0 6
      vertex 24.041631 -24.041631 6
      vertex 26.58227 -21.198653 6
    endloop
  endfacet
  facet normal -0.815561 0.578671 0
    outer loop
      vertex 26.58227 -21.198653 0
      vertex 26.58227 -21.198653 6
      vertex 28.788623 -18.089091 6
    endloop
  endfacet
  facet normal -0.815561 0.578671 0
    outer loop
      vertex 26.58227 -21.198653 0
      vertex 28.788623 -18.089091 6
      vertex 28.788623 -18.089091 0
    endloop
  endfacet
  facet normal 0 0 -1
    outer loop
      vertex 0 0 0
      vertex 28.788623 -18.089091 0
      vertex 26.58227 -21.198653 0
    endloop
  endfacet
  facet normal 0 0 1
    outer loop
      vertex 0 0 6
      vertex 26.58227 -21.198653 6
      vertex 28.788623 -18.089091 6
    endloop
  endfacet
  facet normal -0.875223 0.483719 0
    outer loop
      vertex 28.788623 -18.089091 0
      vertex 28.788623 -18.089091 6
      vertex 30.632942 -14.752047 6
    endloop
  endfacet
  facet normal -0.875223 0.483719 0
    outer loop
      vertex 28.788623 -18.089091 0
      vertex 30.632942 -14.752047 6
      vertex 30.632942 -14.752047 0
    endloop
  endfacet
  facet normal 0 0 -1
    outer loop
      vertex 0 0 0
      vertex 30.632942 -14.752047 0
      vertex 28.788623 -18.089091 0
    endloop
  endfacet
  facet normal 0 0 1
    outer loop
      vertex 0 0 6
      vertex 28.788623 -18.089091 6
      vertex 30.632942 -14.752047 6
    endloop
  endfacet
  facet normal -0.92388 0.382683 0
    outer loop
      vertex 30.632942 -14.752047 0
      vertex 30.632942 -14.752047 6
      vertex 32.092033 -11.229488 6
    endloop
  endfacet
  facet normal -0.92388 0.382683 0
    outer loop
      vertex 30.632942 -14.752047 0
      vertex 32.092033 -11.229488 6
      vertex 32.092033 -11.229488 0
    endloop
  endfacet
  facet normal 0 0 -1
    outer loop
      vertex 0 0 0
      vertex 32.092033 -11.229488 0
      vertex 30.632942 -14.752047 0
    endloop
  endfacet
  facet normal 0 0 1
    outer loop
      vertex 0 0 6
      vertex 30.632942 -14.752047 6
      vertex 32.092033 -11.229488 6
    endloop
  endfacet
  facet normal -0.960917 0.276836 0
    outer loop
      vertex 32.092033 -11.229488 0
      vertex 32.092033 -11.229488 6
      vertex 33.147549 -7.565712 6
    endloop
  endfacet
  facet normal -0.960917 0.276836 0
    outer loop
      vertex 32.092033 -11.229488 0
      vertex 33.147549 -7.565712 6
      vertex 33.147549 -7.565712 0
    endloop
  endfacet
  facet normal 0 0 -1
    outer loop
      vertex 0 0 0
      vertex 33.147549 -7.565712 0
      vertex 32.092033 -11.229488 0
    endloop
  endfacet
  facet normal 0 0 1
    outer loop
      vertex 0 0 6
      vertex 32.092033 -11.229488 6
      vertex 33.147549 -7.565712 6
    endloop
  endfacet
  facet normal -0.985871 0.167506 0
    outer loop
      vertex 33.147549 -7.565712 0
      vertex 33.147549 -7.565712 6
      vertex 33.786215 -3.806792 6
    endloop
  endfacet
  facet normal -0.985871 0.167506 0
    outer loop
      vertex 33.147549 -7.565712 0
      vertex 33.786215 -3.806792 6
      vertex 33.786215 -3.806792 0
    endloop
  endfacet
  facet normal 0 0 -1
    outer loop
      vertex 0 0 0
      vertex 33.786215 -3.806792 0
      vertex 33.147549 -7.565712 0
    endloop
  endfacet
  facet normal 0 0 1
    outer loop
      vertex 0 0 6
      vertex 33.147549 -7.565712 6
      vertex 33.786215 -3.806792 6
    endloop
  endfacet
  facet normal -0.998427 0.05607 0
    outer loop
      vertex 33.786215 -3.806792 0
      vertex 33.786215 -3.806792 6
      vertex 34 0 6
    endloop
  endfacet
  facet normal -0.998427 0.05607 0
    outer loop
      vertex 33.786215 -3.806792 0
      vertex 34 0 6
      vertex 34 0 0
    endloop
  endfacet
  facet normal 0 0 -1
    outer loop
      vertex 0 0 0
      vertex 34 0 0
      vertex 33.786215 -3.806792 0
    endloop
  endfacet
  facet normal 0 0 1
    outer loop
      vertex 0 0 6
      vertex 33.786215 -3.806792 6
      vertex 34 0 6
    endloop
  endfacet
endsolid concept_puck_v3_base.stl
