solid concept_puck_v3_battery_18650.stl
  facet normal 0 -0.996195 -0.087156
    outer loop
      vertex -23 9 14
      vertex 23 9 14
      vertex 23 8.86327 15.562834
    endloop
  endfacet
  facet normal 0 -0.996195 -0.087156
    outer loop
      vertex -23 9 14
      vertex 23 8.86327 15.562834
      vertex -23 8.86327 15.562834
    endloop
  endfacet
  facet normal -1 0 0
    outer loop
      vertex -23 0 14
      vertex -23 8.86327 15.562834
      vertex -23 9 14
    endloop
  endfacet
  facet normal 1 0 0
    outer loop
      vertex 23 0 14
      vertex 23 9 14
      vertex 23 8.86327 15.562834
    endloop
  endfacet
  facet normal 0 -0.965926 -0.258819
    outer loop
      vertex -23 8.86327 15.562834
      vertex 23 8.86327 15.562834
      vertex 23 8.457234 17.078181
    endloop
  endfacet
  facet normal 0 -0.965926 -0.258819
    outer loop
      vertex -23 8.86327 15.562834
      vertex 23 8.457234 17.078181
      vertex -23 8.457234 17.078181
    endloop
  endfacet
  facet normal -1 0 0
    outer loop
      vertex -23 0 14
      vertex -23 8.457234 17.078181
      vertex -23 8.86327 15.562834
    endloop
  endfacet
  facet normal 1 0 0
    outer loop
      vertex 23 0 14
      vertex 23 8.86327 15.562834
      vertex 23 8.457234 17.078181
    endloop
  endfacet
  facet normal 0 -0.906308 -0.422618
    outer loop
      vertex -23 8.457234 17.078181
      vertex 23 8.457234 17.078181
      vertex 23 7.794229 18.5
    endloop
  endfacet
  facet normal 0 -0.906308 -0.422618
    outer loop
      vertex -23 8.457234 17.078181
      vertex 23 7.794229 18.5
      vertex -23 7.794229 18.5
    endloop
  endfacet
  facet normal -1 0 0
    outer loop
      vertex -23 0 14
      vertex -23 7.794229 18.5
      vertex -23 8.457234 17.078181
    endloop
  endfacet
  facet normal 1 0 0
    outer loop
      vertex 23 0 14
      vertex 23 8.457234 17.078181
      vertex 23 7.794229 18.5
    endloop
  endfacet
  facet normal 0 -0.819152 -0.573576
    outer loop
      vertex -23 7.794229 18.5
      vertex 23 7.794229 18.5
      vertex 23 6.8944 19.785088
    endloop
  endfacet
  facet normal 0 -0.819152 -0.573576
    outer loop
      vertex -23 7.794229 18.5
      vertex 23 6.8944 19.785088
      vertex -23 6.8944 19.785088
    endloop
  endfacet
  facet normal -1 0 0
    outer loop
      vertex -23 0 14
      vertex -23 6.8944 19.785088
      vertex -23 7.794229 18.5
    endloop
  endfacet
  facet normal 1 0 0
    outer loop
      vertex 23 0 14
      vertex 23 7.794229 18.5
      vertex 23 6.8944 19.785088
    endloop
  endfacet
  facet normal 0 -0.707107 -0.707107
    outer loop
      vertex -23 6.8944 19.785088
      vertex 23 6.8944 19.785088
      vertex 23 5.785088 20.8944
    endloop
  endfacet
  facet normal 0 -0.707107 -0.707107
    outer loop
      vertex -23 6.8944 19.785088
      vertex 23 5.785088 20.8944
      vertex -23 5.785088 20.8944
    endloop
  endfacet
  facet normal -1 0 0
    outer loop
      vertex -23 0 14
      vertex -23 5.785088 20.8944
      vertex -23 6.8944 19.785088
    endloop
  endfacet
  facet normal 1 0 0
    outer loop
      vertex 23 0 14
      vertex 23 6.8944 19.785088
      vertex 23 5.785088 20.8944
    endloop
  endfacet
  facet normal 0 -0.573576 -0.819152
    outer loop
      vertex -23 5.785088 20.8944
      vertex 23 5.785088 20.8944
      vertex 23 4.5 21.794229
    endloop
  endfacet
  facet normal 0 -0.573576 -0.819152
    outer loop
      vertex -23 5.785088 20.8944
      vertex 23 4.5 21.794229
      vertex -23 4.5 21.794229
    endloop
  endfacet
  facet normal -1 0 0
    outer loop
      vertex -23 0 14
      vertex -23 4.5 21.794229
      vertex -23 5.785088 20.8944
    endloop
  endfacet
  facet normal 1 0 0
    outer loop
      vertex 23 0 14
      vertex 23 5.785088 20.8944
      vertex 23 4.5 21.794229
    endloop
  endfacet
  facet normal 0 -0.422618 -0.906308
    outer loop
      vertex -23 4.5 21.794229
      vertex 23 4.5 21.794229
      vertex 23 3.078181 22.457234
    endloop
  endfacet
  facet normal 0 -0.422618 -0.906308
    outer loop
      vertex -23 4.5 21.794229
      vertex 23 3.078181 22.457234
      vertex -23 3.078181 22.457234
    endloop
  endfacet
  facet normal -1 0 0
    outer loop
      vertex -23 0 14
      vertex -23 3.078181 22.457234
      vertex -23 4.5 21.794229
    endloop
  endfacet
  facet normal 1 0 0
    outer loop
      vertex 23 0 14
      vertex 23 4.5 21.794229
      vertex 23 3.078181 22.457234
    endloop
  endfacet
  facet normal 0 -0.258819 -0.965926
    outer loop
      vertex -23 3.078181 22.457234
      vertex 23 3.078181 22.457234
      vertex 23 1.562834 22.86327
    endloop
  endfacet
  facet normal 0 -0.258819 -0.965926
    outer loop
      vertex -23 3.078181 22.457234
      vertex 23 1.562834 22.86327
      vertex -23 1.562834 22.86327
    endloop
  endfacet
  facet normal -1 0 0
    outer loop
      vertex -23 0 14
      vertex -23 1.562834 22.86327
      vertex -23 3.078181 22.457234
    endloop
  endfacet
  facet normal 1 0 0
    outer loop
      vertex 23 0 14
      vertex 23 3.078181 22.457234
      vertex 23 1.562834 22.86327
    endloop
  endfacet
  facet normal 0 -0.087156 -0.996195
    outer loop
      vertex -23 1.562834 22.86327
      vertex 23 1.562834 22.86327
      vertex 23 0 23
    endloop
  endfacet
  facet normal 0 -0.087156 -0.996195
    outer loop
      vertex -23 1.562834 22.86327
      vertex 23 0 23
      vertex -23 0 23
    endloop
  endfacet
  facet normal -1 0 0
    outer loop
      vertex -23 0 14
      vertex -23 0 23
      vertex -23 1.562834 22.86327
    endloop
  endfacet
  facet normal 1 0 0
    outer loop
      vertex 23 0 14
      vertex 23 1.562834 22.86327
      vertex 23 0 23
    endloop
  endfacet
  facet normal 0 0.087156 -0.996195
    outer loop
      vertex -23 0 23
      vertex 23 0 23
      vertex 23 -1.562834 22.86327
    endloop
  endfacet
  facet normal 0 0.087156 -0.996195
    outer loop
      vertex -23 0 23
      vertex 23 -1.562834 22.86327
      vertex -23 -1.562834 22.86327
    endloop
  endfacet
  facet normal -1 0 0
    outer loop
      vertex -23 0 14
      vertex -23 -1.562834 22.86327
      vertex -23 0 23
    endloop
  endfacet
  facet normal 1 0 0
    outer loop
      vertex 23 0 14
      vertex 23 0 23
      vertex 23 -1.562834 22.86327
    endloop
  endfacet
  facet normal 0 0.258819 -0.965926
    outer loop
      vertex -23 -1.562834 22.86327
      vertex 23 -1.562834 22.86327
      vertex 23 -3.078181 22.457234
    endloop
  endfacet
  facet normal 0 0.258819 -0.965926
    outer loop
      vertex -23 -1.562834 22.86327
      vertex 23 -3.078181 22.457234
      vertex -23 -3.078181 22.457234
    endloop
  endfacet
  facet normal -1 0 0
    outer loop
      vertex -23 0 14
      vertex -23 -3.078181 22.457234
      vertex -23 -1.562834 22.86327
    endloop
  endfacet
  facet normal 1 0 0
    outer loop
      vertex 23 0 14
      vertex 23 -1.562834 22.86327
      vertex 23 -3.078181 22.457234
    endloop
  endfacet
  facet normal 0 0.422618 -0.906308
    outer loop
      vertex -23 -3.078181 22.457234
      vertex 23 -3.078181 22.457234
      vertex 23 -4.5 21.794229
    endloop
  endfacet
  facet normal 0 0.422618 -0.906308
    outer loop
      vertex -23 -3.078181 22.457234
      vertex 23 -4.5 21.794229
      vertex -23 -4.5 21.794229
    endloop
  endfacet
  facet normal -1 0 0
    outer loop
      vertex -23 0 14
      vertex -23 -4.5 21.794229
      vertex -23 -3.078181 22.457234
    endloop
  endfacet
  facet normal 1 0 0
    outer loop
      vertex 23 0 14
      vertex 23 -3.078181 22.457234
      vertex 23 -4.5 21.794229
    endloop
  endfacet
  facet normal 0 0.573576 -0.819152
    outer loop
      vertex -23 -4.5 21.794229
      vertex 23 -4.5 21.794229
      vertex 23 -5.785088 20.8944
    endloop
  endfacet
  facet normal 0 0.573576 -0.819152
    outer loop
      vertex -23 -4.5 21.794229
      vertex 23 -5.785088 20.8944
      vertex -23 -5.785088 20.8944
    endloop
  endfacet
  facet normal -1 0 0
    outer loop
      vertex -23 0 14
      vertex -23 -5.785088 20.8944
      vertex -23 -4.5 21.794229
    endloop
  endfacet
  facet normal 1 0 0
    outer loop
      vertex 23 0 14
      vertex 23 -4.5 21.794229
      vertex 23 -5.785088 20.8944
    endloop
  endfacet
  facet normal 0 0.707107 -0.707107
    outer loop
      vertex -23 -5.785088 20.8944
      vertex 23 -5.785088 20.8944
      vertex 23 -6.8944 19.785088
    endloop
  endfacet
  facet normal 0 0.707107 -0.707107
    outer loop
      vertex -23 -5.785088 20.8944
      vertex 23 -6.8944 19.785088
      vertex -23 -6.8944 19.785088
    endloop
  endfacet
  facet normal -1 0 0
    outer loop
      vertex -23 0 14
      vertex -23 -6.8944 19.785088
      vertex -23 -5.785088 20.8944
    endloop
  endfacet
  facet normal 1 0 0
    outer loop
      vertex 23 0 14
      vertex 23 -5.785088 20.8944
      vertex 23 -6.8944 19.785088
    endloop
  endfacet
  facet normal 0 0.819152 -0.573576
    outer loop
      vertex -23 -6.8944 19.785088
      vertex 23 -6.8944 19.785088
      vertex 23 -7.794229 18.5
    endloop
  endfacet
  facet normal 0 0.819152 -0.573576
    outer loop
      vertex -23 -6.8944 19.785088
      vertex 23 -7.794229 18.5
      vertex -23 -7.794229 18.5
    endloop
  endfacet
  facet normal -1 0 0
    outer loop
      vertex -23 0 14
      vertex -23 -7.794229 18.5
      vertex -23 -6.8944 19.785088
    endloop
  endfacet
  facet normal 1 0 0
    outer loop
      vertex 23 0 14
      vertex 23 -6.8944 19.785088
      vertex 23 -7.794229 18.5
    endloop
  endfacet
  facet normal 0 0.906308 -0.422618
    outer loop
      vertex -23 -7.794229 18.5
      vertex 23 -7.794229 18.5
      vertex 23 -8.457234 17.078181
    endloop
  endfacet
  facet normal 0 0.906308 -0.422618
    outer loop
      vertex -23 -7.794229 18.5
      vertex 23 -8.457234 17.078181
      vertex -23 -8.457234 17.078181
    endloop
  endfacet
  facet normal -1 0 0
    outer loop
      vertex -23 0 14
      vertex -23 -8.457234 17.078181
      vertex -23 -7.794229 18.5
    endloop
  endfacet
  facet normal 1 0 0
    outer loop
      vertex 23 0 14
      vertex 23 -7.794229 18.5
      vertex 23 -8.457234 17.078181
    endloop
  endfacet
  facet normal 0 0.965926 -0.258819
    outer loop
      vertex -23 -8.457234 17.078181
      vertex 23 -8.457234 17.078181
      vertex 23 -8.86327 15.562834
    endloop
  endfacet
  facet normal 0 0.965926 -0.258819
    outer loop
      vertex -23 -8.457234 17.078181
      vertex 23 -8.86327 15.562834
      vertex -23 -8.86327 15.562834
    endloop
  endfacet
  facet normal -1 0 0
    outer loop
      vertex -23 0 14
      vertex -23 -8.86327 15.562834
      vertex -23 -8.457234 17.078181
    endloop
  endfacet
  facet normal 1 0 0
    outer loop
      vertex 23 0 14
      vertex 23 -8.457234 17.078181
      vertex 23 -8.86327 15.562834
    endloop
  endfacet
  facet normal 0 0.996195 -0.087156
    outer loop
      vertex -23 -8.86327 15.562834
      vertex 23 -8.86327 15.562834
      vertex 23 -9 14
    endloop
  endfacet
  facet normal 0 0.996195 -0.087156
    outer loop
      vertex -23 -8.86327 15.562834
      vertex 23 -9 14
      vertex -23 -9 14
    endloop
  endfacet
  facet normal -1 0 0
    outer loop
      vertex -23 0 14
      vertex -23 -9 14
      vertex -23 -8.86327 15.562834
    endloop
  endfacet
  facet normal 1 0 0
    outer loop
      vertex 23 0 14
      vertex 23 -8.86327 15.562834
      vertex 23 -9 14
    endloop
  endfacet
  facet normal 0 0.996195 0.087156
    outer loop
      vertex -23 -9 14
      vertex 23 -9 14
      vertex 23 -8.86327 12.437166
    endloop
  endfacet
  facet normal 0 0.996195 0.087156
    outer loop
      vertex -23 -9 14
      vertex 23 -8.86327 12.437166
      vertex -23 -8.86327 12.437166
    endloop
  endfacet
  facet normal -1 0 0
    outer loop
      vertex -23 0 14
      vertex -23 -8.86327 12.437166
      vertex -23 -9 14
    endloop
  endfacet
  facet normal 1 0 0
    outer loop
      vertex 23 0 14
      vertex 23 -9 14
      vertex 23 -8.86327 12.437166
    endloop
  endfacet
  facet normal 0 0.965926 0.258819
    outer loop
      vertex -23 -8.86327 12.437166
      vertex 23 -8.86327 12.437166
      vertex 23 -8.457234 10.921819
    endloop
  endfacet
  facet normal 0 0.965926 0.258819
    outer loop
      vertex -23 -8.86327 12.437166
      vertex 23 -8.457234 10.921819
      vertex -23 -8.457234 10.921819
    endloop
  endfacet
  facet normal -1 0 0
    outer loop
      vertex -23 0 14
      vertex -23 -8.457234 10.921819
      vertex -23 -8.86327 12.437166
    endloop
  endfacet
  facet normal 1 0 0
    outer loop
      vertex 23 0 14
      vertex 23 -8.86327 12.437166
      vertex 23 -8.457234 10.921819
    endloop
  endfacet
  facet normal 0 0.906308 0.422618
    outer loop
      vertex -23 -8.457234 10.921819
      vertex 23 -8.457234 10.921819
      vertex 23 -7.794229 9.5
    endloop
  endfacet
  facet normal 0 0.906308 0.422618
    outer loop
      vertex -23 -8.457234 10.921819
      vertex 23 -7.794229 9.5
      vertex -23 -7.794229 9.5
    endloop
  endfacet
  facet normal -1 0 0
    outer loop
      vertex -23 0 14
      vertex -23 -7.794229 9.5
      vertex -23 -8.457234 10.921819
    endloop
  endfacet
  facet normal 1 0 0
    outer loop
      vertex 23 0 14
      vertex 23 -8.457234 10.921819
      vertex 23 -7.794229 9.5
    endloop
  endfacet
  facet normal 0 0.819152 0.573576
    outer loop
      vertex -23 -7.794229 9.5
      vertex 23 -7.794229 9.5
      vertex 23 -6.8944 8.214912
    endloop
  endfacet
  facet normal 0 0.819152 0.573576
    outer loop
      vertex -23 -7.794229 9.5
      vertex 23 -6.8944 8.214912
      vertex -23 -6.8944 8.214912
    endloop
  endfacet
  facet normal -1 0 0
    outer loop
      vertex -23 0 14
      vertex -23 -6.8944 8.214912
      vertex -23 -7.794229 9.5
    endloop
  endfacet
  facet normal 1 0 0
    outer loop
      vertex 23 0 14
      vertex 23 -7.794229 9.5
      vertex 23 -6.8944 8.214912
    endloop
  endfacet
  facet normal 0 0.707107 0.707107
    outer loop
      vertex -23 -6.8944 8.214912
      vertex 23 -6.8944 8.214912
      vertex 23 -5.785088 7.1056
    endloop
  endfacet
  facet normal 0 0.707107 0.707107
    outer loop
      vertex -23 -6.8944 8.214912
      vertex 23 -5.785088 7.1056
      vertex -23 -5.785088 7.1056
    endloop
  endfacet
  facet normal -1 0 0
    outer loop
      vertex -23 0 14
      vertex -23 -5.785088 7.1056
      vertex -23 -6.8944 8.214912
    endloop
  endfacet
  facet normal 1 0 0
    outer loop
      vertex 23 0 14
      vertex 23 -6.8944 8.214912
      vertex 23 -5.785088 7.1056
    endloop
  endfacet
  facet normal 0 0.573576 0.819152
    outer loop
      vertex -23 -5.785088 7.1056
      vertex 23 -5.785088 7.1056
      vertex 23 -4.5 6.205771
    endloop
  endfacet
  facet normal 0 0.573576 0.819152
    outer loop
      vertex -23 -5.785088 7.1056
      vertex 23 -4.5 6.205771
      vertex -23 -4.5 6.205771
    endloop
  endfacet
  facet normal -1 0 0
    outer loop
      vertex -23 0 14
      vertex -23 -4.5 6.205771
      vertex -23 -5.785088 7.1056
    endloop
  endfacet
  facet normal 1 0 0
    outer loop
      vertex 23 0 14
      vertex 23 -5.785088 7.1056
      vertex 23 -4.5 6.205771
    endloop
  endfacet
  facet normal 0 0.422618 0.906308
    outer loop
      vertex -23 -4.5 6.205771
      vertex 23 -4.5 6.205771
      vertex 23 -3.078181 5.542766
    endloop
  endfacet
  facet normal 0 0.422618 0.906308
    outer loop
      vertex -23 -4.5 6.205771
      vertex 23 -3.078181 5.542766
      vertex -23 -3.078181 5.542766
    endloop
  endfacet
  facet normal -1 0 0
    outer loop
      vertex -23 0 14
      vertex -23 -3.078181 5.542766
      vertex -23 -4.5 6.205771
    endloop
  endfacet
  facet normal 1 0 0
    outer loop
      vertex 23 0 14
      vertex 23 -4.5 6.205771
      vertex 23 -3.078181 5.542766
    endloop
  endfacet
  facet normal 0 0.258819 0.965926
    outer loop
      vertex -23 -3.078181 5.542766
      vertex 23 -3.078181 5.542766
      vertex 23 -1.562834 5.13673
    endloop
  endfacet
  facet normal 0 0.258819 0.965926
    outer loop
      vertex -23 -3.078181 5.542766
      vertex 23 -1.562834 5.13673
      vertex -23 -1.562834 5.13673
    endloop
  endfacet
  facet normal -1 0 0
    outer loop
      vertex -23 0 14
      vertex -23 -1.562834 5.13673
      vertex -23 -3.078181 5.542766
    endloop
  endfacet
  facet normal 1 0 0
    outer loop
      vertex 23 0 14
      vertex 23 -3.078181 5.542766
      vertex 23 -1.562834 5.13673
    endloop
  endfacet
  facet normal 0 0.087156 0.996195
    outer loop
      vertex -23 -1.562834 5.13673
      vertex 23 -1.562834 5.13673
      vertex 23 0 5
    endloop
  endfacet
  facet normal 0 0.087156 0.996195
    outer loop
      vertex -23 -1.562834 5.13673
      vertex 23 0 5
      vertex -23 0 5
    endloop
  endfacet
  facet normal -1 0 0
    outer loop
      vertex -23 0 14
      vertex -23 0 5
      vertex -23 -1.562834 5.13673
    endloop
  endfacet
  facet normal 1 0 0
    outer loop
      vertex 23 0 14
      vertex 23 -1.562834 5.13673
      vertex 23 0 5
    endloop
  endfacet
  facet normal 0 -0.087156 0.996195
    outer loop
      vertex -23 0 5
      vertex 23 0 5
      vertex 23 1.562834 5.13673
    endloop
  endfacet
  facet normal 0 -0.087156 0.996195
    outer loop
      vertex -23 0 5
      vertex 23 1.562834 5.13673
      vertex -23 1.562834 5.13673
    endloop
  endfacet
  facet normal -1 0 0
    outer loop
      vertex -23 0 14
      vertex -23 1.562834 5.13673
      vertex -23 0 5
    endloop
  endfacet
  facet normal 1 0 0
    outer loop
      vertex 23 0 14
      vertex 23 0 5
      vertex 23 1.562834 5.13673
    endloop
  endfacet
  facet normal 0 -0.258819 0.965926
    outer loop
      vertex -23 1.562834 5.13673
      vertex 23 1.562834 5.13673
      vertex 23 3.078181 5.542766
    endloop
  endfacet
  facet normal 0 -0.258819 0.965926
    outer loop
      vertex -23 1.562834 5.13673
      vertex 23 3.078181 5.542766
      vertex -23 3.078181 5.542766
    endloop
  endfacet
  facet normal -1 0 0
    outer loop
      vertex -23 0 14
      vertex -23 3.078181 5.542766
      vertex -23 1.562834 5.13673
    endloop
  endfacet
  facet normal 1 0 0
    outer loop
      vertex 23 0 14
      vertex 23 1.562834 5.13673
      vertex 23 3.078181 5.542766
    endloop
  endfacet
  facet normal 0 -0.422618 0.906308
    outer loop
      vertex -23 3.078181 5.542766
      vertex 23 3.078181 5.542766
      vertex 23 4.5 6.205771
    endloop
  endfacet
  facet normal 0 -0.422618 0.906308
    outer loop
      vertex -23 3.078181 5.542766
      vertex 23 4.5 6.205771
      vertex -23 4.5 6.205771
    endloop
  endfacet
  facet normal -1 0 0
    outer loop
      vertex -23 0 14
      vertex -23 4.5 6.205771
      vertex -23 3.078181 5.542766
    endloop
  endfacet
  facet normal 1 0 0
    outer loop
      vertex 23 0 14
      vertex 23 3.078181 5.542766
      vertex 23 4.5 6.205771
    endloop
  endfacet
  facet normal 0 -0.573576 0.819152
    outer loop
      vertex -23 4.5 6.205771
      vertex 23 4.5 6.205771
      vertex 23 5.785088 7.1056
    endloop
  endfacet
  facet normal 0 -0.573576 0.819152
    outer loop
      vertex -23 4.5 6.205771
      vertex 23 5.785088 7.1056
      vertex -23 5.785088 7.1056
    endloop
  endfacet
  facet normal -1 0 0
    outer loop
      vertex -23 0 14
      vertex -23 5.785088 7.1056
      vertex -23 4.5 6.205771
    endloop
  endfacet
  facet normal 1 0 0
    outer loop
      vertex 23 0 14
      vertex 23 4.5 6.205771
      vertex 23 5.785088 7.1056
    endloop
  endfacet
  facet normal 0 -0.707107 0.707107
    outer loop
      vertex -23 5.785088 7.1056
      vertex 23 5.785088 7.1056
      vertex 23 6.8944 8.214912
    endloop
  endfacet
  facet normal 0 -0.707107 0.707107
    outer loop
      vertex -23 5.785088 7.1056
      vertex 23 6.8944 8.214912
      vertex -23 6.8944 8.214912
    endloop
  endfacet
  facet normal -1 0 0
    outer loop
      vertex -23 0 14
      vertex -23 6.8944 8.214912
      vertex -23 5.785088 7.1056
    endloop
  endfacet
  facet normal 1 0 0
    outer loop
      vertex 23 0 14
      vertex 23 5.785088 7.1056
      vertex 23 6.8944 8.214912
    endloop
  endfacet
  facet normal 0 -0.819152 0.573576
    outer loop
      vertex -23 6.8944 8.214912
      vertex 23 6.8944 8.214912
      vertex 23 7.794229 9.5
    endloop
  endfacet
  facet normal 0 -0.819152 0.573576
    outer loop
      vertex -23 6.8944 8.214912
      vertex 23 7.794229 9.5
      vertex -23 7.794229 9.5
    endloop
  endfacet
  facet normal -1 0 0
    outer loop
      vertex -23 0 14
      vertex -23 7.794229 9.5
      vertex -23 6.8944 8.214912
    endloop
  endfacet
  facet normal 1 0 0
    outer loop
      vertex 23 0 14
      vertex 23 6.8944 8.214912
      vertex 23 7.794229 9.5
    endloop
  endfacet
  facet normal 0 -0.906308 0.422618
    outer loop
      vertex -23 7.794229 9.5
      vertex 23 7.794229 9.5
      vertex 23 8.457234 10.921819
    endloop
  endfacet
  facet normal 0 -0.906308 0.422618
    outer loop
      vertex -23 7.794229 9.5
      vertex 23 8.457234 10.921819
      vertex -23 8.457234 10.921819
    endloop
  endfacet
  facet normal -1 0 0
    outer loop
      vertex -23 0 14
      vertex -23 8.457234 10.921819
      vertex -23 7.794229 9.5
    endloop
  endfacet
  facet normal 1 0 0
    outer loop
      vertex 23 0 14
      vertex 23 7.794229 9.5
      vertex 23 8.457234 10.921819
    endloop
  endfacet
  facet normal 0 -0.965926 0.258819
    outer loop
      vertex -23 8.457234 10.921819
      vertex 23 8.457234 10.921819
      vertex 23 8.86327 12.437166
    endloop
  endfacet
  facet normal 0 -0.965926 0.258819
    outer loop
      vertex -23 8.457234 10.921819
      vertex 23 8.86327 12.437166
      vertex -23 8.86327 12.437166
    endloop
  endfacet
  facet normal -1 0 0
    outer loop
      vertex -23 0 14
      vertex -23 8.86327 12.437166
      vertex -23 8.457234 10.921819
    endloop
  endfacet
  facet normal 1 0 0
    outer loop
      vertex 23 0 14
      vertex 23 8.457234 10.921819
      vertex 23 8.86327 12.437166
    endloop
  endfacet
  facet normal 0 -0.996195 0.087156
    outer loop
      vertex -23 8.86327 12.437166
      vertex 23 8.86327 12.437166
      vertex 23 9 14
    endloop
  endfacet
  facet normal 0 -0.996195 0.087156
    outer loop
      vertex -23 8.86327 12.437166
      vertex 23 9 14
      vertex -23 9 14
    endloop
  endfacet
  facet normal -1 0 0
    outer loop
      vertex -23 0 14
      vertex -23 9 14
      vertex -23 8.86327 12.437166
    endloop
  endfacet
  facet normal 1 0 0
    outer loop
      vertex 23 0 14
      vertex 23 8.86327 12.437166
      vertex 23 9 14
    endloop
  endfacet
endsolid concept_puck_v3_battery_18650.stl
